%TF.GenerationSoftware,KiCad,Pcbnew,9.0.7*%
%TF.CreationDate,2026-03-31T17:28:16+01:00*%
%TF.ProjectId,SplitKeyboard,53706c69-744b-4657-9962-6f6172642e6b,rev?*%
%TF.SameCoordinates,Original*%
%TF.FileFunction,Soldermask,Bot*%
%TF.FilePolarity,Negative*%
%FSLAX46Y46*%
G04 Gerber Fmt 4.6, Leading zero omitted, Abs format (unit mm)*
G04 Created by KiCad (PCBNEW 9.0.7) date 2026-03-31 17:28:16*
%MOMM*%
%LPD*%
G01*
G04 APERTURE LIST*
G04 Aperture macros list*
%AMRoundRect*
0 Rectangle with rounded corners*
0 $1 Rounding radius*
0 $2 $3 $4 $5 $6 $7 $8 $9 X,Y pos of 4 corners*
0 Add a 4 corners polygon primitive as box body*
4,1,4,$2,$3,$4,$5,$6,$7,$8,$9,$2,$3,0*
0 Add four circle primitives for the rounded corners*
1,1,$1+$1,$2,$3*
1,1,$1+$1,$4,$5*
1,1,$1+$1,$6,$7*
1,1,$1+$1,$8,$9*
0 Add four rect primitives between the rounded corners*
20,1,$1+$1,$2,$3,$4,$5,0*
20,1,$1+$1,$4,$5,$6,$7,0*
20,1,$1+$1,$6,$7,$8,$9,0*
20,1,$1+$1,$8,$9,$2,$3,0*%
G04 Aperture macros list end*
%ADD10C,1.700000*%
%ADD11C,3.400000*%
%ADD12C,0.500000*%
%ADD13RoundRect,0.250000X0.550000X-0.550000X0.550000X0.550000X-0.550000X0.550000X-0.550000X-0.550000X0*%
%ADD14C,1.600000*%
%ADD15R,2.000000X2.000000*%
%ADD16C,2.000000*%
%ADD17C,3.200000*%
%ADD18C,1.800000*%
%ADD19RoundRect,0.450000X0.450000X0.450000X-0.450000X0.450000X-0.450000X-0.450000X0.450000X-0.450000X0*%
%ADD20RoundRect,0.337500X-0.562500X-0.337500X0.562500X-0.337500X0.562500X0.337500X-0.562500X0.337500X0*%
%ADD21RoundRect,0.337500X0.337500X-0.562500X0.337500X0.562500X-0.337500X0.562500X-0.337500X-0.562500X0*%
%ADD22RoundRect,0.225000X-0.375000X0.225000X-0.375000X-0.225000X0.375000X-0.225000X0.375000X0.225000X0*%
%ADD23RoundRect,0.250000X0.250000X0.475000X-0.250000X0.475000X-0.250000X-0.475000X0.250000X-0.475000X0*%
G04 APERTURE END LIST*
D10*
%TO.C,SW55*%
X111779025Y-72924472D03*
D11*
X117279025Y-72924472D03*
D10*
X122779025Y-72924472D03*
%TD*%
%TO.C,SW72*%
X168930225Y-53874072D03*
D11*
X174430225Y-53874072D03*
D10*
X179930225Y-53874072D03*
%TD*%
%TO.C,SW54*%
X111779025Y-53874072D03*
D11*
X117279025Y-53874072D03*
D10*
X122779025Y-53874072D03*
%TD*%
D12*
%TO.C,B2*%
X227767225Y-162600272D03*
X230267225Y-162600272D03*
X227767225Y-161750272D03*
X230267225Y-161750272D03*
X227767225Y-160050272D03*
X230267225Y-160050272D03*
X227767225Y-158350272D03*
X230267225Y-158350272D03*
X227767225Y-157500272D03*
X230267225Y-157500272D03*
%TD*%
D13*
%TO.C,U1*%
X296191873Y-36225922D03*
D14*
X298731873Y-36225922D03*
X301271873Y-36225922D03*
X303811873Y-36225922D03*
X306351873Y-36225922D03*
X308891873Y-36225922D03*
X311431873Y-36225922D03*
X313971873Y-36225922D03*
X316511873Y-36225922D03*
X319051873Y-36225922D03*
X321591873Y-36225922D03*
X324131873Y-36225922D03*
X326671873Y-36225922D03*
X329211873Y-36225922D03*
X329211873Y-28605922D03*
X326671873Y-28605922D03*
X324131873Y-28605922D03*
X321591873Y-28605922D03*
X319051873Y-28605922D03*
X316511873Y-28605922D03*
X313971873Y-28605922D03*
X311431873Y-28605922D03*
X308891873Y-28605922D03*
X306351873Y-28605922D03*
X303811873Y-28605922D03*
X301271873Y-28605922D03*
X298731873Y-28605922D03*
X296191873Y-28605922D03*
%TD*%
D15*
%TO.C,BZ2*%
X116227600Y-36606397D03*
D16*
X123827600Y-36606397D03*
%TD*%
D10*
%TO.C,SW42*%
X73678225Y-53874072D03*
D11*
X79178225Y-53874072D03*
D10*
X84678225Y-53874072D03*
%TD*%
%TO.C,SW17*%
X301923298Y-130053272D03*
D11*
X307423298Y-130053272D03*
D10*
X312923298Y-130053272D03*
%TD*%
%TO.C,SW48*%
X92728625Y-53874072D03*
D11*
X98228625Y-53874072D03*
D10*
X103728625Y-53874072D03*
%TD*%
%TO.C,SW59*%
X111779025Y-149126072D03*
D11*
X117279025Y-149126072D03*
D10*
X122779025Y-149126072D03*
%TD*%
%TO.C,SW4*%
X247153648Y-111002072D03*
D11*
X252653648Y-111002072D03*
D10*
X258153648Y-111002072D03*
%TD*%
%TO.C,SW9*%
X268584898Y-91952472D03*
D11*
X274084898Y-91952472D03*
D10*
X279584898Y-91952472D03*
%TD*%
%TO.C,SW22*%
X311448498Y-111003822D03*
D11*
X316948498Y-111003822D03*
D10*
X322448498Y-111003822D03*
%TD*%
%TO.C,SW23*%
X320973698Y-130054222D03*
D11*
X326473698Y-130054222D03*
D10*
X331973698Y-130054222D03*
%TD*%
%TO.C,SW68*%
X140354625Y-91974872D03*
D11*
X145854625Y-91974872D03*
D10*
X151354625Y-91974872D03*
%TD*%
%TO.C,SW8*%
X259059898Y-72902072D03*
D11*
X264559898Y-72902072D03*
D10*
X270059898Y-72902072D03*
%TD*%
D17*
%TO.C,H5*%
X381897923Y-26428047D03*
%TD*%
D10*
%TO.C,SW10*%
X273347398Y-111002072D03*
D11*
X278847398Y-111002072D03*
D10*
X284347398Y-111002072D03*
%TD*%
D18*
%TO.C,U2*%
X238167225Y-23927772D03*
X238167225Y-26467772D03*
X238167225Y-29007772D03*
X238167225Y-31547772D03*
X238167225Y-34087772D03*
X238167225Y-36627772D03*
X238167225Y-39167772D03*
X253407225Y-23927772D03*
D19*
X253407225Y-26467772D03*
D18*
X253407225Y-29007772D03*
X253407225Y-31547772D03*
X253407225Y-34087772D03*
X253407225Y-36627772D03*
X253407225Y-39167772D03*
D20*
X241342224Y-29325272D03*
X241342223Y-31230272D03*
D21*
X249597225Y-40755272D03*
X251502225Y-40755272D03*
D18*
X244517225Y-22975272D03*
X247057225Y-22975272D03*
X244517225Y-25515272D03*
D19*
X247057225Y-25515272D03*
%TD*%
D10*
%TO.C,SW87*%
X207031025Y-149126072D03*
D11*
X212531025Y-149126072D03*
D10*
X218031025Y-149126072D03*
%TD*%
%TO.C,SW5*%
X251916148Y-130052072D03*
D11*
X257416148Y-130052072D03*
D10*
X262916148Y-130052072D03*
%TD*%
%TO.C,SW67*%
X149879825Y-72924472D03*
D11*
X155379825Y-72924472D03*
D10*
X160879825Y-72924472D03*
%TD*%
%TO.C,SW57*%
X107016425Y-111025272D03*
D11*
X112516425Y-111025272D03*
D10*
X118016425Y-111025272D03*
%TD*%
%TO.C,SW30*%
X354311898Y-149104622D03*
D11*
X359811898Y-149104622D03*
D10*
X365311898Y-149104622D03*
%TD*%
%TO.C,SW76*%
X161786325Y-130075672D03*
D11*
X167286325Y-130075672D03*
D10*
X172786325Y-130075672D03*
%TD*%
%TO.C,SW34*%
X349549298Y-111003822D03*
D11*
X355049298Y-111003822D03*
D10*
X360549298Y-111003822D03*
%TD*%
%TO.C,SW37*%
X354311898Y-72903022D03*
D11*
X359811898Y-72903022D03*
D10*
X365311898Y-72903022D03*
%TD*%
%TO.C,SW36*%
X354311898Y-53852622D03*
D11*
X359811898Y-53852622D03*
D10*
X365311898Y-53852622D03*
%TD*%
%TO.C,SW32*%
X335261498Y-72903022D03*
D11*
X340761498Y-72903022D03*
D10*
X346261498Y-72903022D03*
%TD*%
%TO.C,SW86*%
X207031025Y-130075672D03*
D11*
X212531025Y-130075672D03*
D10*
X218031025Y-130075672D03*
%TD*%
%TO.C,SW18*%
X290017698Y-149104622D03*
D11*
X295517698Y-149104622D03*
D10*
X301017698Y-149104622D03*
%TD*%
%TO.C,SW38*%
X363837098Y-91953422D03*
D11*
X369337098Y-91953422D03*
D10*
X374837098Y-91953422D03*
%TD*%
%TO.C,SW58*%
X97491225Y-130075672D03*
D11*
X102991225Y-130075672D03*
D10*
X108491225Y-130075672D03*
%TD*%
%TO.C,SW82*%
X187980625Y-130075672D03*
D11*
X193480625Y-130075672D03*
D10*
X198980625Y-130075672D03*
%TD*%
%TO.C,SW78*%
X187980625Y-53874072D03*
D11*
X193480625Y-53874072D03*
D10*
X198980625Y-53874072D03*
%TD*%
%TO.C,SW84*%
X207031025Y-53874072D03*
D11*
X212531025Y-53874072D03*
D10*
X218031025Y-53874072D03*
%TD*%
%TO.C,SW12*%
X266204698Y-149104622D03*
D11*
X271704698Y-149104622D03*
D10*
X277204698Y-149104622D03*
%TD*%
%TO.C,SW46*%
X59389008Y-130075672D03*
D11*
X64889008Y-130075672D03*
D10*
X70389008Y-130075672D03*
%TD*%
%TO.C,SW11*%
X282872398Y-130052072D03*
D11*
X288372398Y-130052072D03*
D10*
X293872398Y-130052072D03*
%TD*%
D15*
%TO.C,BZ1*%
X334580198Y-37183522D03*
D16*
X342180198Y-37183522D03*
%TD*%
D10*
%TO.C,SW65*%
X130829425Y-149126072D03*
D11*
X136329425Y-149126072D03*
D10*
X141829425Y-149126072D03*
%TD*%
%TO.C,SW79*%
X207031025Y-72924472D03*
D11*
X212531025Y-72924472D03*
D10*
X218031025Y-72924472D03*
%TD*%
%TO.C,SW75*%
X176074125Y-111025272D03*
D11*
X181574125Y-111025272D03*
D10*
X187074125Y-111025272D03*
%TD*%
D12*
%TO.C,B4*%
X227767225Y-124850272D03*
X230267225Y-124850272D03*
X227767225Y-124000272D03*
X230267225Y-124000272D03*
X227767225Y-122300272D03*
X230267225Y-122300272D03*
X227767225Y-120600272D03*
X230267225Y-120600272D03*
X227767225Y-119750272D03*
X230267225Y-119750272D03*
%TD*%
D10*
%TO.C,SW2*%
X240009898Y-72902072D03*
D11*
X245509898Y-72902072D03*
D10*
X251009898Y-72902072D03*
%TD*%
%TO.C,SW71*%
X149879825Y-149126072D03*
D11*
X155379825Y-149126072D03*
D10*
X160879825Y-149126072D03*
%TD*%
%TO.C,SW31*%
X335261498Y-53852622D03*
D11*
X340761498Y-53852622D03*
D10*
X346261498Y-53852622D03*
%TD*%
%TO.C,SW24*%
X323354998Y-149104622D03*
D11*
X328854998Y-149104622D03*
D10*
X334354998Y-149104622D03*
%TD*%
%TO.C,SW52*%
X78440825Y-130075672D03*
D11*
X83940825Y-130075672D03*
D10*
X89440825Y-130075672D03*
%TD*%
%TO.C,SW39*%
X368599698Y-111003822D03*
D11*
X374099698Y-111003822D03*
D10*
X379599698Y-111003822D03*
%TD*%
%TO.C,SW80*%
X183218025Y-91974872D03*
D11*
X188718025Y-91974872D03*
D10*
X194218025Y-91974872D03*
%TD*%
%TO.C,SW26*%
X316211098Y-72903022D03*
D11*
X321711098Y-72903022D03*
D10*
X327211098Y-72903022D03*
%TD*%
%TO.C,SW41*%
X373362298Y-72903022D03*
D11*
X378862298Y-72903022D03*
D10*
X384362298Y-72903022D03*
%TD*%
%TO.C,SW28*%
X330498898Y-111003822D03*
D11*
X335998898Y-111003822D03*
D10*
X341498898Y-111003822D03*
%TD*%
%TO.C,SW45*%
X68915625Y-111025272D03*
D11*
X74415625Y-111025272D03*
D10*
X79915625Y-111025272D03*
%TD*%
%TO.C,SW51*%
X87966025Y-111025272D03*
D11*
X93466025Y-111025272D03*
D10*
X98966025Y-111025272D03*
%TD*%
%TO.C,SW70*%
X135592025Y-130075672D03*
D11*
X141092025Y-130075672D03*
D10*
X146592025Y-130075672D03*
%TD*%
%TO.C,SW85*%
X207031025Y-91974872D03*
D11*
X212531025Y-91974872D03*
D10*
X218031025Y-91974872D03*
%TD*%
%TO.C,SW33*%
X344786698Y-91953422D03*
D11*
X350286698Y-91953422D03*
D10*
X355786698Y-91953422D03*
%TD*%
D17*
%TO.C,H6*%
X76116925Y-37849497D03*
%TD*%
D10*
%TO.C,SW66*%
X149879825Y-53874072D03*
D11*
X155379825Y-53874072D03*
D10*
X160879825Y-53874072D03*
%TD*%
%TO.C,SW44*%
X64153025Y-91974872D03*
D11*
X69653025Y-91974872D03*
D10*
X75153025Y-91974872D03*
%TD*%
%TO.C,SW74*%
X159405025Y-91974872D03*
D11*
X164905025Y-91974872D03*
D10*
X170405025Y-91974872D03*
%TD*%
%TO.C,SW7*%
X259059898Y-53852072D03*
D11*
X264559898Y-53852072D03*
D10*
X270059898Y-53852072D03*
%TD*%
%TO.C,SW21*%
X306685898Y-91953422D03*
D11*
X312185898Y-91953422D03*
D10*
X317685898Y-91953422D03*
%TD*%
D18*
%TO.C,U4*%
X205291625Y-23052872D03*
X205291625Y-25592872D03*
X205291625Y-28132872D03*
X205291625Y-30672872D03*
X205291625Y-33212872D03*
X205291625Y-35752872D03*
X205291625Y-38292872D03*
X220531625Y-23052872D03*
D19*
X220531625Y-25592872D03*
D18*
X220531625Y-28132872D03*
X220531625Y-30672872D03*
X220531625Y-33212872D03*
X220531625Y-35752872D03*
X220531625Y-38292872D03*
D20*
X208466624Y-28450372D03*
X208466623Y-30355372D03*
D21*
X216721625Y-39880372D03*
X218626625Y-39880372D03*
D18*
X211641625Y-22100372D03*
X214181625Y-22100372D03*
X211641625Y-24640372D03*
D19*
X214181625Y-24640372D03*
%TD*%
D10*
%TO.C,SW27*%
X325736298Y-91953422D03*
D11*
X331236298Y-91953422D03*
D10*
X336736298Y-91953422D03*
%TD*%
%TO.C,SW40*%
X373362298Y-53852622D03*
D11*
X378862298Y-53852622D03*
D10*
X384362298Y-53852622D03*
%TD*%
%TO.C,SW14*%
X278110298Y-72903022D03*
D11*
X283610298Y-72903022D03*
D10*
X289110298Y-72903022D03*
%TD*%
%TO.C,SW25*%
X316211098Y-53852622D03*
D11*
X321711098Y-53852622D03*
D10*
X327211098Y-53852622D03*
%TD*%
%TO.C,SW64*%
X116541625Y-130075672D03*
D11*
X122041625Y-130075672D03*
D10*
X127541625Y-130075672D03*
%TD*%
%TO.C,SW47*%
X53227025Y-149125656D03*
D11*
X58727025Y-149125656D03*
D10*
X64227025Y-149125656D03*
%TD*%
%TO.C,SW60*%
X130829425Y-53874072D03*
D11*
X136329425Y-53874072D03*
D10*
X141829425Y-53874072D03*
%TD*%
D17*
%TO.C,H8*%
X381897923Y-37828047D03*
%TD*%
D10*
%TO.C,SW61*%
X130829425Y-72924472D03*
D11*
X136329425Y-72924472D03*
D10*
X141829425Y-72924472D03*
%TD*%
%TO.C,SW62*%
X121304225Y-91974872D03*
D11*
X126804225Y-91974872D03*
D10*
X132304225Y-91974872D03*
%TD*%
%TO.C,SW29*%
X340024098Y-130054222D03*
D11*
X345524098Y-130054222D03*
D10*
X351024098Y-130054222D03*
%TD*%
%TO.C,SW16*%
X292398098Y-111002872D03*
D11*
X297898098Y-111002872D03*
D10*
X303398098Y-111002872D03*
%TD*%
%TO.C,SW73*%
X178455425Y-72924472D03*
D11*
X183955425Y-72924472D03*
D10*
X189455425Y-72924472D03*
%TD*%
D12*
%TO.C,B8*%
X227767225Y-78700272D03*
X230267225Y-78700272D03*
X227767225Y-77850272D03*
X230267225Y-77850272D03*
X227767225Y-76150272D03*
X230267225Y-76150272D03*
X227767225Y-74450272D03*
X230267225Y-74450272D03*
X227767225Y-73600272D03*
X230267225Y-73600272D03*
%TD*%
D10*
%TO.C,SW50*%
X83203425Y-91974872D03*
D11*
X88703425Y-91974872D03*
D10*
X94203425Y-91974872D03*
%TD*%
D17*
%TO.C,H7*%
X76116925Y-26449497D03*
%TD*%
D10*
%TO.C,SW63*%
X126066825Y-111025272D03*
D11*
X131566825Y-111025272D03*
D10*
X137066825Y-111025272D03*
%TD*%
%TO.C,SW20*%
X297160698Y-72903022D03*
D11*
X302660698Y-72903022D03*
D10*
X308160698Y-72903022D03*
%TD*%
%TO.C,SW43*%
X73678225Y-72924472D03*
D11*
X79178225Y-72924472D03*
D10*
X84678225Y-72924472D03*
%TD*%
%TO.C,SW69*%
X145117225Y-111025272D03*
D11*
X150617225Y-111025272D03*
D10*
X156117225Y-111025272D03*
%TD*%
%TO.C,SW1*%
X240009898Y-53852072D03*
D11*
X245509898Y-53852072D03*
D10*
X251009898Y-53852072D03*
%TD*%
%TO.C,SW83*%
X187980625Y-149126072D03*
D11*
X193480625Y-149126072D03*
D10*
X198980625Y-149126072D03*
%TD*%
%TO.C,SW81*%
X207031025Y-111025272D03*
D11*
X212531025Y-111025272D03*
D10*
X218031025Y-111025272D03*
%TD*%
%TO.C,SW19*%
X297160698Y-53852622D03*
D11*
X302660698Y-53852622D03*
D10*
X308160698Y-53852622D03*
%TD*%
%TO.C,SW35*%
X359074498Y-130054222D03*
D11*
X364574498Y-130054222D03*
D10*
X370074498Y-130054222D03*
%TD*%
D13*
%TO.C,U3*%
X129979825Y-36247372D03*
D14*
X132519825Y-36247372D03*
X135059825Y-36247372D03*
X137599825Y-36247372D03*
X140139825Y-36247372D03*
X142679825Y-36247372D03*
X145219825Y-36247372D03*
X147759825Y-36247372D03*
X150299825Y-36247372D03*
X152839825Y-36247372D03*
X155379825Y-36247372D03*
X157919825Y-36247372D03*
X160459825Y-36247372D03*
X162999825Y-36247372D03*
X162999825Y-28627372D03*
X160459825Y-28627372D03*
X157919825Y-28627372D03*
X155379825Y-28627372D03*
X152839825Y-28627372D03*
X150299825Y-28627372D03*
X147759825Y-28627372D03*
X145219825Y-28627372D03*
X142679825Y-28627372D03*
X140139825Y-28627372D03*
X137599825Y-28627372D03*
X135059825Y-28627372D03*
X132519825Y-28627372D03*
X129979825Y-28627372D03*
%TD*%
D10*
%TO.C,SW6*%
X242391148Y-149102072D03*
D11*
X247891148Y-149102072D03*
D10*
X253391148Y-149102072D03*
%TD*%
%TO.C,SW13*%
X278111198Y-53852622D03*
D11*
X283611198Y-53852622D03*
D10*
X289111198Y-53852622D03*
%TD*%
%TO.C,SW49*%
X92728625Y-72924472D03*
D11*
X98228625Y-72924472D03*
D10*
X103728625Y-72924472D03*
%TD*%
%TO.C,SW53*%
X83203425Y-149126072D03*
D11*
X88703425Y-149126072D03*
D10*
X94203425Y-149126072D03*
%TD*%
%TO.C,SW15*%
X287635498Y-91952472D03*
D11*
X293135498Y-91952472D03*
D10*
X298635498Y-91952472D03*
%TD*%
%TO.C,SW56*%
X102253825Y-91974872D03*
D11*
X107753825Y-91974872D03*
D10*
X113253825Y-91974872D03*
%TD*%
%TO.C,SW3*%
X244772398Y-91952072D03*
D11*
X250272398Y-91952072D03*
D10*
X255772398Y-91952072D03*
%TD*%
%TO.C,SW77*%
X168930225Y-149126072D03*
D11*
X174430225Y-149126072D03*
D10*
X179930225Y-149126072D03*
%TD*%
D12*
%TO.C,B3*%
X227767225Y-26900272D03*
X230267225Y-26900272D03*
X227767225Y-26050272D03*
X230267225Y-26050272D03*
X227767225Y-24350272D03*
X230267225Y-24350272D03*
X227767225Y-22650272D03*
X230267225Y-22650272D03*
X227767225Y-21800272D03*
X230267225Y-21800272D03*
%TD*%
D22*
%TO.C,D10*%
X272894448Y-105186547D03*
X272894448Y-108486547D03*
%TD*%
%TO.C,D44*%
X63841850Y-86157597D03*
X63841850Y-89457597D03*
%TD*%
%TO.C,D16*%
X291944848Y-105186547D03*
X291944848Y-108486547D03*
%TD*%
%TO.C,D22*%
X310995248Y-105186547D03*
X310995248Y-108486547D03*
%TD*%
%TO.C,D39*%
X368146448Y-105186547D03*
X368146448Y-108486547D03*
%TD*%
%TO.C,D38*%
X363383848Y-86136147D03*
X363383848Y-89436147D03*
%TD*%
%TO.C,D25*%
X315757848Y-48035347D03*
X315757848Y-51335347D03*
%TD*%
%TO.C,D5*%
X251462748Y-124236947D03*
X251462748Y-127536947D03*
%TD*%
D23*
%TO.C,C2*%
X161687750Y-33034447D03*
X159787750Y-33034447D03*
%TD*%
D22*
%TO.C,D56*%
X101942650Y-86157597D03*
X101942650Y-89457597D03*
%TD*%
%TO.C,D46*%
X59100000Y-124300000D03*
X59100000Y-127600000D03*
%TD*%
%TO.C,D32*%
X334808248Y-67085747D03*
X334808248Y-70385747D03*
%TD*%
%TO.C,D49*%
X92417450Y-67107197D03*
X92417450Y-70407197D03*
%TD*%
%TO.C,D79*%
X206577775Y-67107197D03*
X206577775Y-70407197D03*
%TD*%
%TO.C,D71*%
X149426575Y-143308797D03*
X149426575Y-146608797D03*
%TD*%
%TO.C,D9*%
X268131848Y-86136147D03*
X268131848Y-89436147D03*
%TD*%
%TO.C,D6*%
X241937548Y-143287347D03*
X241937548Y-146587347D03*
%TD*%
%TO.C,D78*%
X187527375Y-48056797D03*
X187527375Y-51356797D03*
%TD*%
%TO.C,D55*%
X111467850Y-67107197D03*
X111467850Y-70407197D03*
%TD*%
%TO.C,D59*%
X111467850Y-143308797D03*
X111467850Y-146608797D03*
%TD*%
%TO.C,D8*%
X258606648Y-67085747D03*
X258606648Y-70385747D03*
%TD*%
%TO.C,D42*%
X73367050Y-48056797D03*
X73367050Y-51356797D03*
%TD*%
%TO.C,D68*%
X139901375Y-86157597D03*
X139901375Y-89457597D03*
%TD*%
%TO.C,D47*%
X52816425Y-143164692D03*
X52816425Y-146464692D03*
%TD*%
%TO.C,D18*%
X289563548Y-143287347D03*
X289563548Y-146587347D03*
%TD*%
%TO.C,D37*%
X353858648Y-67085747D03*
X353858648Y-70385747D03*
%TD*%
%TO.C,D36*%
X353858648Y-48035347D03*
X353858648Y-51335347D03*
%TD*%
%TO.C,D17*%
X301470048Y-124236947D03*
X301470048Y-127536947D03*
%TD*%
%TO.C,D4*%
X246700148Y-105186547D03*
X246700148Y-108486547D03*
%TD*%
%TO.C,D53*%
X82892250Y-143308797D03*
X82892250Y-146608797D03*
%TD*%
%TO.C,D64*%
X116088375Y-124258397D03*
X116088375Y-127558397D03*
%TD*%
%TO.C,D61*%
X130376175Y-67107197D03*
X130376175Y-70407197D03*
%TD*%
%TO.C,D88*%
X206577775Y-143444772D03*
X206577775Y-146744772D03*
%TD*%
%TO.C,D40*%
X372909048Y-48035347D03*
X372909048Y-51335347D03*
%TD*%
%TO.C,D60*%
X130518250Y-48056797D03*
X130518250Y-51356797D03*
%TD*%
%TO.C,D72*%
X168476975Y-48056797D03*
X168476975Y-51356797D03*
%TD*%
%TO.C,D27*%
X325283048Y-86136147D03*
X325283048Y-89436147D03*
%TD*%
%TO.C,D19*%
X296707448Y-48035347D03*
X296707448Y-51335347D03*
%TD*%
%TO.C,D45*%
X68604450Y-105072022D03*
X68604450Y-108372022D03*
%TD*%
%TO.C,D57*%
X106705250Y-105207997D03*
X106705250Y-108507997D03*
%TD*%
%TO.C,D12*%
X265750548Y-143287347D03*
X265750548Y-146587347D03*
%TD*%
%TO.C,D50*%
X82892250Y-86157597D03*
X82892250Y-89457597D03*
%TD*%
%TO.C,D58*%
X97180050Y-124258397D03*
X97180050Y-127558397D03*
%TD*%
%TO.C,D41*%
X372909048Y-67085747D03*
X372909048Y-70385747D03*
%TD*%
%TO.C,D2*%
X239556248Y-67085747D03*
X239556248Y-70385747D03*
%TD*%
%TO.C,D65*%
X130376175Y-143308797D03*
X130376175Y-146608797D03*
%TD*%
%TO.C,D67*%
X149426575Y-67107197D03*
X149426575Y-70407197D03*
%TD*%
%TO.C,D3*%
X244318848Y-86136147D03*
X244318848Y-89436147D03*
%TD*%
%TO.C,D48*%
X92417450Y-48056797D03*
X92417450Y-51356797D03*
%TD*%
%TO.C,D83*%
X187527375Y-143308797D03*
X187527375Y-146608797D03*
%TD*%
%TO.C,D24*%
X322901748Y-143287347D03*
X322901748Y-146587347D03*
%TD*%
D23*
%TO.C,C1*%
X327423698Y-33016247D03*
X325523698Y-33016247D03*
%TD*%
D22*
%TO.C,D51*%
X87654850Y-105207997D03*
X87654850Y-108507997D03*
%TD*%
%TO.C,D74*%
X158951775Y-86157597D03*
X158951775Y-89457597D03*
%TD*%
%TO.C,D26*%
X315757848Y-67085747D03*
X315757848Y-70385747D03*
%TD*%
%TO.C,D81*%
X206577775Y-105207997D03*
X206577775Y-108507997D03*
%TD*%
%TO.C,D13*%
X277657048Y-48035347D03*
X277657048Y-51335347D03*
%TD*%
%TO.C,D69*%
X144663975Y-105207997D03*
X144663975Y-108507997D03*
%TD*%
%TO.C,D77*%
X168476975Y-143308797D03*
X168476975Y-146608797D03*
%TD*%
%TO.C,D23*%
X320520448Y-124372922D03*
X320520448Y-127672922D03*
%TD*%
%TO.C,D52*%
X78129650Y-124258397D03*
X78129650Y-127558397D03*
%TD*%
%TO.C,D15*%
X287182248Y-86136147D03*
X287182248Y-89436147D03*
%TD*%
%TO.C,D43*%
X73367050Y-67107197D03*
X73367050Y-70407197D03*
%TD*%
%TO.C,D75*%
X175620875Y-105207997D03*
X175620875Y-108507997D03*
%TD*%
%TO.C,D86*%
X206577775Y-86157597D03*
X206577775Y-89457597D03*
%TD*%
%TO.C,D66*%
X149426575Y-48056797D03*
X149426575Y-51356797D03*
%TD*%
%TO.C,D33*%
X344333448Y-86136147D03*
X344333448Y-89436147D03*
%TD*%
%TO.C,D1*%
X239556248Y-48035347D03*
X239556248Y-51335347D03*
%TD*%
%TO.C,D7*%
X258606648Y-48035347D03*
X258606648Y-51335347D03*
%TD*%
%TO.C,D84*%
X206577775Y-48056797D03*
X206577775Y-51356797D03*
%TD*%
%TO.C,D63*%
X125613575Y-105207997D03*
X125613575Y-108507997D03*
%TD*%
%TO.C,D31*%
X334808248Y-48035347D03*
X334808248Y-51335347D03*
%TD*%
%TO.C,D30*%
X353858648Y-143287347D03*
X353858648Y-146587347D03*
%TD*%
%TO.C,D11*%
X282419648Y-124236947D03*
X282419648Y-127536947D03*
%TD*%
%TO.C,D29*%
X339570848Y-124236947D03*
X339570848Y-127536947D03*
%TD*%
%TO.C,D87*%
X206577775Y-124258397D03*
X206577775Y-127558397D03*
%TD*%
%TO.C,D70*%
X135138775Y-124258397D03*
X135138775Y-127558397D03*
%TD*%
%TO.C,D20*%
X296707448Y-67085747D03*
X296707448Y-70385747D03*
%TD*%
%TO.C,D73*%
X178002175Y-67107197D03*
X178002175Y-70407197D03*
%TD*%
%TO.C,D21*%
X306232648Y-86136147D03*
X306232648Y-89436147D03*
%TD*%
%TO.C,D82*%
X187527375Y-124258397D03*
X187527375Y-127558397D03*
%TD*%
%TO.C,D34*%
X349096048Y-105186547D03*
X349096048Y-108486547D03*
%TD*%
%TO.C,D28*%
X330045648Y-105186547D03*
X330045648Y-108486547D03*
%TD*%
%TO.C,D76*%
X161333075Y-124258397D03*
X161333075Y-127558397D03*
%TD*%
%TO.C,D80*%
X182764775Y-86157597D03*
X182764775Y-89457597D03*
%TD*%
%TO.C,D62*%
X120850975Y-86157597D03*
X120850975Y-89457597D03*
%TD*%
%TO.C,D54*%
X111467850Y-48056797D03*
X111467850Y-51356797D03*
%TD*%
%TO.C,D35*%
X358621248Y-124236947D03*
X358621248Y-127536947D03*
%TD*%
%TO.C,D14*%
X277657048Y-67085747D03*
X277657048Y-70385747D03*
%TD*%
M02*
