M48
; DRILL file {KiCad 9.0.7} date 2026-03-31T17:28:14+0100
; FORMAT={-:-/ absolute / metric / decimal}
; #@! TF.CreationDate,2026-03-31T17:28:14+01:00
; #@! TF.GenerationSoftware,Kicad,Pcbnew,9.0.7
; #@! TF.FileFunction,NonPlated,1,2,NPTH
FMAT,2
METRIC
; #@! TA.AperFunction,NonPlated,NPTH,ComponentDrill
T1C0.500
; #@! TA.AperFunction,NonPlated,NPTH,ComponentDrill
T2C1.700
; #@! TA.AperFunction,NonPlated,NPTH,ComponentDrill
T3C3.200
; #@! TA.AperFunction,NonPlated,NPTH,ComponentDrill
T4C3.400
%
G90
G05
T1
X227.767Y-21.8
X227.767Y-22.65
X227.767Y-24.35
X227.767Y-26.05
X227.767Y-26.9
X227.767Y-73.6
X227.767Y-74.45
X227.767Y-76.15
X227.767Y-77.85
X227.767Y-78.7
X227.767Y-119.75
X227.767Y-120.6
X227.767Y-122.3
X227.767Y-124.0
X227.767Y-124.85
X227.767Y-157.5
X227.767Y-158.35
X227.767Y-160.05
X227.767Y-161.75
X227.767Y-162.6
X230.267Y-21.8
X230.267Y-22.65
X230.267Y-24.35
X230.267Y-26.05
X230.267Y-26.9
X230.267Y-73.6
X230.267Y-74.45
X230.267Y-76.15
X230.267Y-77.85
X230.267Y-78.7
X230.267Y-119.75
X230.267Y-120.6
X230.267Y-122.3
X230.267Y-124.0
X230.267Y-124.85
X230.267Y-157.5
X230.267Y-158.35
X230.267Y-160.05
X230.267Y-161.75
X230.267Y-162.6
T2
X53.227Y-149.126
X59.389Y-130.076
X64.153Y-91.975
X64.227Y-149.126
X68.916Y-111.025
X70.389Y-130.076
X73.678Y-53.874
X73.678Y-72.924
X75.153Y-91.975
X78.441Y-130.076
X79.916Y-111.025
X83.203Y-91.975
X83.203Y-149.126
X84.678Y-53.874
X84.678Y-72.924
X87.966Y-111.025
X89.441Y-130.076
X92.729Y-53.874
X92.729Y-72.924
X94.203Y-91.975
X94.203Y-149.126
X97.491Y-130.076
X98.966Y-111.025
X102.254Y-91.975
X103.729Y-53.874
X103.729Y-72.924
X107.016Y-111.025
X108.491Y-130.076
X111.779Y-53.874
X111.779Y-72.924
X111.779Y-149.126
X113.254Y-91.975
X116.542Y-130.076
X118.016Y-111.025
X121.304Y-91.975
X122.779Y-53.874
X122.779Y-72.924
X122.779Y-149.126
X126.067Y-111.025
X127.542Y-130.076
X130.829Y-53.874
X130.829Y-72.924
X130.829Y-149.126
X132.304Y-91.975
X135.592Y-130.076
X137.067Y-111.025
X140.355Y-91.975
X141.829Y-53.874
X141.829Y-72.924
X141.829Y-149.126
X145.117Y-111.025
X146.592Y-130.076
X149.88Y-53.874
X149.88Y-72.924
X149.88Y-149.126
X151.355Y-91.975
X156.117Y-111.025
X159.405Y-91.975
X160.88Y-53.874
X160.88Y-72.924
X160.88Y-149.126
X161.786Y-130.076
X168.93Y-53.874
X168.93Y-149.126
X170.405Y-91.975
X172.786Y-130.076
X176.074Y-111.025
X178.455Y-72.924
X179.93Y-53.874
X179.93Y-149.126
X183.218Y-91.975
X187.074Y-111.025
X187.981Y-53.874
X187.981Y-130.076
X187.981Y-149.126
X189.455Y-72.924
X194.218Y-91.975
X198.981Y-53.874
X198.981Y-130.076
X198.981Y-149.126
X207.031Y-53.874
X207.031Y-72.924
X207.031Y-91.975
X207.031Y-111.025
X207.031Y-130.076
X207.031Y-149.126
X218.031Y-53.874
X218.031Y-72.924
X218.031Y-91.975
X218.031Y-111.025
X218.031Y-130.076
X218.031Y-149.126
X240.01Y-53.852
X240.01Y-72.902
X242.391Y-149.102
X244.772Y-91.952
X247.154Y-111.002
X251.01Y-53.852
X251.01Y-72.902
X251.916Y-130.052
X253.391Y-149.102
X255.772Y-91.952
X258.154Y-111.002
X259.06Y-53.852
X259.06Y-72.902
X262.916Y-130.052
X266.205Y-149.105
X268.585Y-91.952
X270.06Y-53.852
X270.06Y-72.902
X273.347Y-111.002
X277.205Y-149.105
X278.11Y-72.903
X278.111Y-53.853
X279.585Y-91.952
X282.872Y-130.052
X284.347Y-111.002
X287.635Y-91.952
X289.11Y-72.903
X289.111Y-53.853
X290.018Y-149.105
X292.398Y-111.003
X293.872Y-130.052
X297.161Y-53.853
X297.161Y-72.903
X298.635Y-91.952
X301.018Y-149.105
X301.923Y-130.053
X303.398Y-111.003
X306.686Y-91.953
X308.161Y-53.853
X308.161Y-72.903
X311.448Y-111.004
X312.923Y-130.053
X316.211Y-53.853
X316.211Y-72.903
X317.686Y-91.953
X320.974Y-130.054
X322.448Y-111.004
X323.355Y-149.105
X325.736Y-91.953
X327.211Y-53.853
X327.211Y-72.903
X330.499Y-111.004
X331.974Y-130.054
X334.355Y-149.105
X335.261Y-53.853
X335.261Y-72.903
X336.736Y-91.953
X340.024Y-130.054
X341.499Y-111.004
X344.787Y-91.953
X346.261Y-53.853
X346.261Y-72.903
X349.549Y-111.004
X351.024Y-130.054
X354.312Y-53.853
X354.312Y-72.903
X354.312Y-149.105
X355.787Y-91.953
X359.074Y-130.054
X360.549Y-111.004
X363.837Y-91.953
X365.312Y-53.853
X365.312Y-72.903
X365.312Y-149.105
X368.6Y-111.004
X370.074Y-130.054
X373.362Y-53.853
X373.362Y-72.903
X374.837Y-91.953
X379.6Y-111.004
X384.362Y-53.853
X384.362Y-72.903
T3
X76.117Y-26.449
X76.117Y-37.849
X381.898Y-26.428
X381.898Y-37.828
T4
X58.727Y-149.126
X64.889Y-130.076
X69.653Y-91.975
X74.416Y-111.025
X79.178Y-53.874
X79.178Y-72.924
X83.941Y-130.076
X88.703Y-91.975
X88.703Y-149.126
X93.466Y-111.025
X98.229Y-53.874
X98.229Y-72.924
X102.991Y-130.076
X107.754Y-91.975
X112.516Y-111.025
X117.279Y-53.874
X117.279Y-72.924
X117.279Y-149.126
X122.042Y-130.076
X126.804Y-91.975
X131.567Y-111.025
X136.329Y-53.874
X136.329Y-72.924
X136.329Y-149.126
X141.092Y-130.076
X145.855Y-91.975
X150.617Y-111.025
X155.38Y-53.874
X155.38Y-72.924
X155.38Y-149.126
X164.905Y-91.975
X167.286Y-130.076
X174.43Y-53.874
X174.43Y-149.126
X181.574Y-111.025
X183.955Y-72.924
X188.718Y-91.975
X193.481Y-53.874
X193.481Y-130.076
X193.481Y-149.126
X212.531Y-53.874
X212.531Y-72.924
X212.531Y-91.975
X212.531Y-111.025
X212.531Y-130.076
X212.531Y-149.126
X245.51Y-53.852
X245.51Y-72.902
X247.891Y-149.102
X250.272Y-91.952
X252.654Y-111.002
X257.416Y-130.052
X264.56Y-53.852
X264.56Y-72.902
X271.705Y-149.105
X274.085Y-91.952
X278.847Y-111.002
X283.61Y-72.903
X283.611Y-53.853
X288.372Y-130.052
X293.135Y-91.952
X295.518Y-149.105
X297.898Y-111.003
X302.661Y-53.853
X302.661Y-72.903
X307.423Y-130.053
X312.186Y-91.953
X316.948Y-111.004
X321.711Y-53.853
X321.711Y-72.903
X326.474Y-130.054
X328.855Y-149.105
X331.236Y-91.953
X335.999Y-111.004
X340.761Y-53.853
X340.761Y-72.903
X345.524Y-130.054
X350.287Y-91.953
X355.049Y-111.004
X359.812Y-53.853
X359.812Y-72.903
X359.812Y-149.105
X364.574Y-130.054
X369.337Y-91.953
X374.1Y-111.004
X378.862Y-53.853
X378.862Y-72.903
M30
