M48
; DRILL file {KiCad 9.0.7} date 2026-03-31T17:28:14+0100
; FORMAT={-:-/ absolute / metric / decimal}
; #@! TF.CreationDate,2026-03-31T17:28:14+01:00
; #@! TF.GenerationSoftware,Kicad,Pcbnew,9.0.7
; #@! TF.FileFunction,Plated,1,2,PTH
FMAT,2
METRIC
; #@! TA.AperFunction,Plated,PTH,ViaDrill
T1C0.300
; #@! TA.AperFunction,Plated,PTH,ComponentDrill
T2C0.800
; #@! TA.AperFunction,Plated,PTH,ComponentDrill
T3C1.000
; #@! TA.AperFunction,Plated,PTH,ComponentDrill
T4C1.050
; #@! TA.AperFunction,Plated,PTH,ComponentDrill
T5C3.000
%
G90
G05
T1
X120.851Y-26.486
X125.018Y-31.844
X129.781Y-32.439
X132.022Y-29.828
X144.664Y-105.072
X145.855Y-46.727
X147.05Y-47.457
X158.952Y-86.158
X179.193Y-28.867
X181.257Y-30.68
X181.257Y-33.63
X189.313Y-22.914
X192.885Y-40.178
X251.909Y-25.148
X281.824Y-44.923
X289.564Y-51.184
X290.754Y-48.635
X292.54Y-43.137
X293.135Y-48.635
X296.107Y-38.429
X297.898Y-38.429
X303.256Y-25.868
X304.447Y-33.016
X305.042Y-49.685
X305.637Y-30.635
X308.614Y-43.307
X311.432Y-30.508
X311.432Y-42.906
X311.591Y-32.025
X324.092Y-32.025
X329.045Y-48.635
X331.236Y-28.254
T2
X129.98Y-28.627
X129.98Y-36.247
X132.52Y-28.627
X132.52Y-36.247
X135.06Y-28.627
X135.06Y-36.247
X137.6Y-28.627
X137.6Y-36.247
X140.14Y-28.627
X140.14Y-36.247
X142.68Y-28.627
X142.68Y-36.247
X145.22Y-28.627
X145.22Y-36.247
X147.76Y-28.627
X147.76Y-36.247
X150.3Y-28.627
X150.3Y-36.247
X152.84Y-28.627
X152.84Y-36.247
X155.38Y-28.627
X155.38Y-36.247
X157.92Y-28.627
X157.92Y-36.247
X160.46Y-28.627
X160.46Y-36.247
X163.0Y-28.627
X163.0Y-36.247
X296.192Y-28.606
X296.192Y-36.226
X298.732Y-28.606
X298.732Y-36.226
X301.272Y-28.606
X301.272Y-36.226
X303.812Y-28.606
X303.812Y-36.226
X306.352Y-28.606
X306.352Y-36.226
X308.892Y-28.606
X308.892Y-36.226
X311.432Y-28.606
X311.432Y-36.226
X313.972Y-28.606
X313.972Y-36.226
X316.512Y-28.606
X316.512Y-36.226
X319.052Y-28.606
X319.052Y-36.226
X321.592Y-28.606
X321.592Y-36.226
X324.132Y-28.606
X324.132Y-36.226
X326.672Y-28.606
X326.672Y-36.226
X329.212Y-28.606
X329.212Y-36.226
T3
X116.228Y-36.606
X123.828Y-36.606
X205.292Y-23.053
X205.292Y-25.593
X205.292Y-28.133
X205.292Y-30.673
X205.292Y-33.213
X205.292Y-35.753
X205.292Y-38.293
X220.532Y-23.053
X220.532Y-25.593
X220.532Y-28.133
X220.532Y-30.673
X220.532Y-33.213
X220.532Y-35.753
X220.532Y-38.293
X238.167Y-23.928
X238.167Y-26.468
X238.167Y-29.008
X238.167Y-31.548
X238.167Y-34.088
X238.167Y-36.628
X238.167Y-39.168
X253.407Y-23.928
X253.407Y-26.468
X253.407Y-29.008
X253.407Y-31.548
X253.407Y-34.088
X253.407Y-36.628
X253.407Y-39.168
X334.58Y-37.184
X342.18Y-37.184
T4
X208.467Y-30.355
X208.467Y-28.45
X211.642Y-22.1
X211.642Y-24.64
X214.182Y-22.1
X214.182Y-24.64
X216.722Y-39.88
X218.627Y-39.88
X241.342Y-31.23
X241.342Y-29.325
X244.517Y-22.975
X244.517Y-25.515
X247.057Y-22.975
X247.057Y-25.515
X249.597Y-40.755
X251.502Y-40.755
T5
X58.727Y-155.076
X63.727Y-152.876
X64.889Y-136.026
X69.653Y-97.925
X69.889Y-133.826
X74.416Y-116.975
X74.653Y-95.725
X79.178Y-59.824
X79.178Y-78.874
X79.416Y-114.775
X83.941Y-136.026
X84.178Y-57.624
X84.178Y-76.674
X88.703Y-97.925
X88.703Y-155.076
X88.941Y-133.826
X93.466Y-116.975
X93.703Y-95.725
X93.703Y-152.876
X98.229Y-59.824
X98.229Y-78.874
X98.466Y-114.775
X102.991Y-136.026
X103.229Y-57.624
X103.229Y-76.674
X107.754Y-97.925
X107.991Y-133.826
X112.516Y-116.975
X112.754Y-95.725
X117.279Y-59.824
X117.279Y-78.874
X117.279Y-155.076
X117.516Y-114.775
X122.042Y-136.026
X122.279Y-57.624
X122.279Y-76.674
X122.279Y-152.876
X126.804Y-97.925
X127.042Y-133.826
X131.567Y-116.975
X131.804Y-95.725
X136.329Y-59.824
X136.329Y-78.874
X136.329Y-155.076
X136.567Y-114.775
X141.092Y-136.026
X141.329Y-57.624
X141.329Y-76.674
X141.329Y-152.876
X145.855Y-97.925
X146.092Y-133.826
X150.617Y-116.975
X150.855Y-95.725
X155.38Y-59.824
X155.38Y-78.874
X155.38Y-155.076
X155.617Y-114.775
X160.38Y-57.624
X160.38Y-76.674
X160.38Y-152.876
X164.905Y-97.925
X167.286Y-136.026
X169.905Y-95.725
X172.286Y-133.826
X174.43Y-59.824
X174.43Y-155.076
X179.43Y-57.624
X179.43Y-152.876
X181.574Y-116.975
X183.955Y-78.874
X186.574Y-114.775
X188.718Y-97.925
X188.955Y-76.674
X193.481Y-59.824
X193.481Y-136.026
X193.481Y-155.076
X193.718Y-95.725
X198.481Y-57.624
X198.481Y-133.826
X198.481Y-152.876
X212.531Y-59.824
X212.531Y-78.874
X212.531Y-97.925
X212.531Y-116.975
X212.531Y-136.026
X212.531Y-155.076
X217.531Y-57.624
X217.531Y-76.674
X217.531Y-95.725
X217.531Y-114.775
X217.531Y-133.826
X217.531Y-152.876
X245.51Y-59.802
X245.51Y-78.852
X247.891Y-155.052
X250.272Y-97.902
X250.51Y-57.602
X250.51Y-76.652
X252.654Y-116.952
X252.891Y-152.852
X255.272Y-95.702
X257.416Y-136.002
X257.654Y-114.752
X262.416Y-133.802
X264.56Y-59.802
X264.56Y-78.852
X269.56Y-57.602
X269.56Y-76.652
X271.705Y-155.055
X274.085Y-97.902
X276.705Y-152.855
X278.847Y-116.952
X279.085Y-95.702
X283.61Y-78.853
X283.611Y-59.803
X283.847Y-114.752
X288.372Y-136.002
X288.61Y-76.653
X288.611Y-57.603
X293.135Y-97.902
X293.372Y-133.802
X295.518Y-155.055
X297.898Y-116.953
X298.135Y-95.702
X300.518Y-152.855
X302.661Y-59.803
X302.661Y-78.853
X302.898Y-114.753
X307.423Y-136.003
X307.661Y-57.603
X307.661Y-76.653
X312.186Y-97.903
X312.423Y-133.803
X316.948Y-116.954
X317.186Y-95.703
X321.711Y-59.803
X321.711Y-78.853
X321.948Y-114.754
X326.474Y-136.004
X326.711Y-57.603
X326.711Y-76.653
X328.855Y-155.055
X331.236Y-97.903
X331.474Y-133.804
X333.855Y-152.855
X335.999Y-116.954
X336.236Y-95.703
X340.761Y-59.803
X340.761Y-78.853
X340.999Y-114.754
X345.524Y-136.004
X345.761Y-57.603
X345.761Y-76.653
X350.287Y-97.903
X350.524Y-133.804
X355.049Y-116.954
X355.287Y-95.703
X359.812Y-59.803
X359.812Y-78.853
X359.812Y-155.055
X360.049Y-114.754
X364.574Y-136.004
X364.812Y-57.603
X364.812Y-76.653
X364.812Y-152.855
X369.337Y-97.903
X369.574Y-133.804
X374.1Y-116.954
X374.337Y-95.703
X378.862Y-59.803
X378.862Y-78.853
X379.1Y-114.754
X383.862Y-57.603
X383.862Y-76.653
M30
