%TF.GenerationSoftware,KiCad,Pcbnew,9.0.7*%
%TF.CreationDate,2026-03-31T17:28:16+01:00*%
%TF.ProjectId,SplitKeyboard,53706c69-744b-4657-9962-6f6172642e6b,rev?*%
%TF.SameCoordinates,Original*%
%TF.FileFunction,Paste,Bot*%
%TF.FilePolarity,Positive*%
%FSLAX46Y46*%
G04 Gerber Fmt 4.6, Leading zero omitted, Abs format (unit mm)*
G04 Created by KiCad (PCBNEW 9.0.7) date 2026-03-31 17:28:16*
%MOMM*%
%LPD*%
G01*
G04 APERTURE LIST*
G04 Aperture macros list*
%AMRoundRect*
0 Rectangle with rounded corners*
0 $1 Rounding radius*
0 $2 $3 $4 $5 $6 $7 $8 $9 X,Y pos of 4 corners*
0 Add a 4 corners polygon primitive as box body*
4,1,4,$2,$3,$4,$5,$6,$7,$8,$9,$2,$3,0*
0 Add four circle primitives for the rounded corners*
1,1,$1+$1,$2,$3*
1,1,$1+$1,$4,$5*
1,1,$1+$1,$6,$7*
1,1,$1+$1,$8,$9*
0 Add four rect primitives between the rounded corners*
20,1,$1+$1,$2,$3,$4,$5,0*
20,1,$1+$1,$4,$5,$6,$7,0*
20,1,$1+$1,$6,$7,$8,$9,0*
20,1,$1+$1,$8,$9,$2,$3,0*%
G04 Aperture macros list end*
%ADD10RoundRect,0.225000X-0.375000X0.225000X-0.375000X-0.225000X0.375000X-0.225000X0.375000X0.225000X0*%
%ADD11RoundRect,0.250000X0.250000X0.475000X-0.250000X0.475000X-0.250000X-0.475000X0.250000X-0.475000X0*%
G04 APERTURE END LIST*
D10*
%TO.C,D10*%
X272894448Y-105186547D03*
X272894448Y-108486547D03*
%TD*%
%TO.C,D44*%
X63841850Y-86157597D03*
X63841850Y-89457597D03*
%TD*%
%TO.C,D16*%
X291944848Y-105186547D03*
X291944848Y-108486547D03*
%TD*%
%TO.C,D22*%
X310995248Y-105186547D03*
X310995248Y-108486547D03*
%TD*%
%TO.C,D39*%
X368146448Y-105186547D03*
X368146448Y-108486547D03*
%TD*%
%TO.C,D38*%
X363383848Y-86136147D03*
X363383848Y-89436147D03*
%TD*%
%TO.C,D25*%
X315757848Y-48035347D03*
X315757848Y-51335347D03*
%TD*%
%TO.C,D5*%
X251462748Y-124236947D03*
X251462748Y-127536947D03*
%TD*%
D11*
%TO.C,C2*%
X161687750Y-33034447D03*
X159787750Y-33034447D03*
%TD*%
D10*
%TO.C,D56*%
X101942650Y-86157597D03*
X101942650Y-89457597D03*
%TD*%
%TO.C,D46*%
X59100000Y-124300000D03*
X59100000Y-127600000D03*
%TD*%
%TO.C,D32*%
X334808248Y-67085747D03*
X334808248Y-70385747D03*
%TD*%
%TO.C,D49*%
X92417450Y-67107197D03*
X92417450Y-70407197D03*
%TD*%
%TO.C,D79*%
X206577775Y-67107197D03*
X206577775Y-70407197D03*
%TD*%
%TO.C,D71*%
X149426575Y-143308797D03*
X149426575Y-146608797D03*
%TD*%
%TO.C,D9*%
X268131848Y-86136147D03*
X268131848Y-89436147D03*
%TD*%
%TO.C,D6*%
X241937548Y-143287347D03*
X241937548Y-146587347D03*
%TD*%
%TO.C,D78*%
X187527375Y-48056797D03*
X187527375Y-51356797D03*
%TD*%
%TO.C,D55*%
X111467850Y-67107197D03*
X111467850Y-70407197D03*
%TD*%
%TO.C,D59*%
X111467850Y-143308797D03*
X111467850Y-146608797D03*
%TD*%
%TO.C,D8*%
X258606648Y-67085747D03*
X258606648Y-70385747D03*
%TD*%
%TO.C,D42*%
X73367050Y-48056797D03*
X73367050Y-51356797D03*
%TD*%
%TO.C,D68*%
X139901375Y-86157597D03*
X139901375Y-89457597D03*
%TD*%
%TO.C,D47*%
X52816425Y-143164692D03*
X52816425Y-146464692D03*
%TD*%
%TO.C,D18*%
X289563548Y-143287347D03*
X289563548Y-146587347D03*
%TD*%
%TO.C,D37*%
X353858648Y-67085747D03*
X353858648Y-70385747D03*
%TD*%
%TO.C,D36*%
X353858648Y-48035347D03*
X353858648Y-51335347D03*
%TD*%
%TO.C,D17*%
X301470048Y-124236947D03*
X301470048Y-127536947D03*
%TD*%
%TO.C,D4*%
X246700148Y-105186547D03*
X246700148Y-108486547D03*
%TD*%
%TO.C,D53*%
X82892250Y-143308797D03*
X82892250Y-146608797D03*
%TD*%
%TO.C,D64*%
X116088375Y-124258397D03*
X116088375Y-127558397D03*
%TD*%
%TO.C,D61*%
X130376175Y-67107197D03*
X130376175Y-70407197D03*
%TD*%
%TO.C,D88*%
X206577775Y-143444772D03*
X206577775Y-146744772D03*
%TD*%
%TO.C,D40*%
X372909048Y-48035347D03*
X372909048Y-51335347D03*
%TD*%
%TO.C,D60*%
X130518250Y-48056797D03*
X130518250Y-51356797D03*
%TD*%
%TO.C,D72*%
X168476975Y-48056797D03*
X168476975Y-51356797D03*
%TD*%
%TO.C,D27*%
X325283048Y-86136147D03*
X325283048Y-89436147D03*
%TD*%
%TO.C,D19*%
X296707448Y-48035347D03*
X296707448Y-51335347D03*
%TD*%
%TO.C,D45*%
X68604450Y-105072022D03*
X68604450Y-108372022D03*
%TD*%
%TO.C,D57*%
X106705250Y-105207997D03*
X106705250Y-108507997D03*
%TD*%
%TO.C,D12*%
X265750548Y-143287347D03*
X265750548Y-146587347D03*
%TD*%
%TO.C,D50*%
X82892250Y-86157597D03*
X82892250Y-89457597D03*
%TD*%
%TO.C,D58*%
X97180050Y-124258397D03*
X97180050Y-127558397D03*
%TD*%
%TO.C,D41*%
X372909048Y-67085747D03*
X372909048Y-70385747D03*
%TD*%
%TO.C,D2*%
X239556248Y-67085747D03*
X239556248Y-70385747D03*
%TD*%
%TO.C,D65*%
X130376175Y-143308797D03*
X130376175Y-146608797D03*
%TD*%
%TO.C,D67*%
X149426575Y-67107197D03*
X149426575Y-70407197D03*
%TD*%
%TO.C,D3*%
X244318848Y-86136147D03*
X244318848Y-89436147D03*
%TD*%
%TO.C,D48*%
X92417450Y-48056797D03*
X92417450Y-51356797D03*
%TD*%
%TO.C,D83*%
X187527375Y-143308797D03*
X187527375Y-146608797D03*
%TD*%
%TO.C,D24*%
X322901748Y-143287347D03*
X322901748Y-146587347D03*
%TD*%
D11*
%TO.C,C1*%
X327423698Y-33016247D03*
X325523698Y-33016247D03*
%TD*%
D10*
%TO.C,D51*%
X87654850Y-105207997D03*
X87654850Y-108507997D03*
%TD*%
%TO.C,D74*%
X158951775Y-86157597D03*
X158951775Y-89457597D03*
%TD*%
%TO.C,D26*%
X315757848Y-67085747D03*
X315757848Y-70385747D03*
%TD*%
%TO.C,D81*%
X206577775Y-105207997D03*
X206577775Y-108507997D03*
%TD*%
%TO.C,D13*%
X277657048Y-48035347D03*
X277657048Y-51335347D03*
%TD*%
%TO.C,D69*%
X144663975Y-105207997D03*
X144663975Y-108507997D03*
%TD*%
%TO.C,D77*%
X168476975Y-143308797D03*
X168476975Y-146608797D03*
%TD*%
%TO.C,D23*%
X320520448Y-124372922D03*
X320520448Y-127672922D03*
%TD*%
%TO.C,D52*%
X78129650Y-124258397D03*
X78129650Y-127558397D03*
%TD*%
%TO.C,D15*%
X287182248Y-86136147D03*
X287182248Y-89436147D03*
%TD*%
%TO.C,D43*%
X73367050Y-67107197D03*
X73367050Y-70407197D03*
%TD*%
%TO.C,D75*%
X175620875Y-105207997D03*
X175620875Y-108507997D03*
%TD*%
%TO.C,D86*%
X206577775Y-86157597D03*
X206577775Y-89457597D03*
%TD*%
%TO.C,D66*%
X149426575Y-48056797D03*
X149426575Y-51356797D03*
%TD*%
%TO.C,D33*%
X344333448Y-86136147D03*
X344333448Y-89436147D03*
%TD*%
%TO.C,D1*%
X239556248Y-48035347D03*
X239556248Y-51335347D03*
%TD*%
%TO.C,D7*%
X258606648Y-48035347D03*
X258606648Y-51335347D03*
%TD*%
%TO.C,D84*%
X206577775Y-48056797D03*
X206577775Y-51356797D03*
%TD*%
%TO.C,D63*%
X125613575Y-105207997D03*
X125613575Y-108507997D03*
%TD*%
%TO.C,D31*%
X334808248Y-48035347D03*
X334808248Y-51335347D03*
%TD*%
%TO.C,D30*%
X353858648Y-143287347D03*
X353858648Y-146587347D03*
%TD*%
%TO.C,D11*%
X282419648Y-124236947D03*
X282419648Y-127536947D03*
%TD*%
%TO.C,D29*%
X339570848Y-124236947D03*
X339570848Y-127536947D03*
%TD*%
%TO.C,D87*%
X206577775Y-124258397D03*
X206577775Y-127558397D03*
%TD*%
%TO.C,D70*%
X135138775Y-124258397D03*
X135138775Y-127558397D03*
%TD*%
%TO.C,D20*%
X296707448Y-67085747D03*
X296707448Y-70385747D03*
%TD*%
%TO.C,D73*%
X178002175Y-67107197D03*
X178002175Y-70407197D03*
%TD*%
%TO.C,D21*%
X306232648Y-86136147D03*
X306232648Y-89436147D03*
%TD*%
%TO.C,D82*%
X187527375Y-124258397D03*
X187527375Y-127558397D03*
%TD*%
%TO.C,D34*%
X349096048Y-105186547D03*
X349096048Y-108486547D03*
%TD*%
%TO.C,D28*%
X330045648Y-105186547D03*
X330045648Y-108486547D03*
%TD*%
%TO.C,D76*%
X161333075Y-124258397D03*
X161333075Y-127558397D03*
%TD*%
%TO.C,D80*%
X182764775Y-86157597D03*
X182764775Y-89457597D03*
%TD*%
%TO.C,D62*%
X120850975Y-86157597D03*
X120850975Y-89457597D03*
%TD*%
%TO.C,D54*%
X111467850Y-48056797D03*
X111467850Y-51356797D03*
%TD*%
%TO.C,D35*%
X358621248Y-124236947D03*
X358621248Y-127536947D03*
%TD*%
%TO.C,D14*%
X277657048Y-67085747D03*
X277657048Y-70385747D03*
%TD*%
M02*
