%TF.GenerationSoftware,KiCad,Pcbnew,9.0.7*%
%TF.CreationDate,2026-03-31T17:28:16+01:00*%
%TF.ProjectId,SplitKeyboard,53706c69-744b-4657-9962-6f6172642e6b,rev?*%
%TF.SameCoordinates,Original*%
%TF.FileFunction,Legend,Bot*%
%TF.FilePolarity,Positive*%
%FSLAX46Y46*%
G04 Gerber Fmt 4.6, Leading zero omitted, Abs format (unit mm)*
G04 Created by KiCad (PCBNEW 9.0.7) date 2026-03-31 17:28:16*
%MOMM*%
%LPD*%
G01*
G04 APERTURE LIST*
%ADD10C,0.150000*%
%ADD11C,0.120000*%
G04 APERTURE END LIST*
D10*
X245872111Y-31176281D02*
X245729254Y-31223900D01*
X245729254Y-31223900D02*
X245681635Y-31271519D01*
X245681635Y-31271519D02*
X245634016Y-31366757D01*
X245634016Y-31366757D02*
X245634016Y-31509614D01*
X245634016Y-31509614D02*
X245681635Y-31604852D01*
X245681635Y-31604852D02*
X245729254Y-31652472D01*
X245729254Y-31652472D02*
X245824492Y-31700091D01*
X245824492Y-31700091D02*
X246205444Y-31700091D01*
X246205444Y-31700091D02*
X246205444Y-30700091D01*
X246205444Y-30700091D02*
X245872111Y-30700091D01*
X245872111Y-30700091D02*
X245776873Y-30747710D01*
X245776873Y-30747710D02*
X245729254Y-30795329D01*
X245729254Y-30795329D02*
X245681635Y-30890567D01*
X245681635Y-30890567D02*
X245681635Y-30985805D01*
X245681635Y-30985805D02*
X245729254Y-31081043D01*
X245729254Y-31081043D02*
X245776873Y-31128662D01*
X245776873Y-31128662D02*
X245872111Y-31176281D01*
X245872111Y-31176281D02*
X246205444Y-31176281D01*
X245253063Y-31414376D02*
X244776873Y-31414376D01*
X245348301Y-31700091D02*
X245014968Y-30700091D01*
X245014968Y-30700091D02*
X244681635Y-31700091D01*
X244491158Y-30700091D02*
X243919730Y-30700091D01*
X244205444Y-31700091D02*
X244205444Y-30700091D01*
X243586396Y-31319138D02*
X242824492Y-31319138D01*
X243205444Y-31700091D02*
X243205444Y-30938186D01*
X245872111Y-29271281D02*
X245729254Y-29318900D01*
X245729254Y-29318900D02*
X245681635Y-29366519D01*
X245681635Y-29366519D02*
X245634016Y-29461757D01*
X245634016Y-29461757D02*
X245634016Y-29604614D01*
X245634016Y-29604614D02*
X245681635Y-29699852D01*
X245681635Y-29699852D02*
X245729254Y-29747472D01*
X245729254Y-29747472D02*
X245824492Y-29795091D01*
X245824492Y-29795091D02*
X246205444Y-29795091D01*
X246205444Y-29795091D02*
X246205444Y-28795091D01*
X246205444Y-28795091D02*
X245872111Y-28795091D01*
X245872111Y-28795091D02*
X245776873Y-28842710D01*
X245776873Y-28842710D02*
X245729254Y-28890329D01*
X245729254Y-28890329D02*
X245681635Y-28985567D01*
X245681635Y-28985567D02*
X245681635Y-29080805D01*
X245681635Y-29080805D02*
X245729254Y-29176043D01*
X245729254Y-29176043D02*
X245776873Y-29223662D01*
X245776873Y-29223662D02*
X245872111Y-29271281D01*
X245872111Y-29271281D02*
X246205444Y-29271281D01*
X245253063Y-29509376D02*
X244776873Y-29509376D01*
X245348301Y-29795091D02*
X245014968Y-28795091D01*
X245014968Y-28795091D02*
X244681635Y-29795091D01*
X244491158Y-28795091D02*
X243919730Y-28795091D01*
X244205444Y-29795091D02*
X244205444Y-28795091D01*
X243586396Y-29414138D02*
X242824492Y-29414138D01*
X212996511Y-30301381D02*
X212853654Y-30349000D01*
X212853654Y-30349000D02*
X212806035Y-30396619D01*
X212806035Y-30396619D02*
X212758416Y-30491857D01*
X212758416Y-30491857D02*
X212758416Y-30634714D01*
X212758416Y-30634714D02*
X212806035Y-30729952D01*
X212806035Y-30729952D02*
X212853654Y-30777572D01*
X212853654Y-30777572D02*
X212948892Y-30825191D01*
X212948892Y-30825191D02*
X213329844Y-30825191D01*
X213329844Y-30825191D02*
X213329844Y-29825191D01*
X213329844Y-29825191D02*
X212996511Y-29825191D01*
X212996511Y-29825191D02*
X212901273Y-29872810D01*
X212901273Y-29872810D02*
X212853654Y-29920429D01*
X212853654Y-29920429D02*
X212806035Y-30015667D01*
X212806035Y-30015667D02*
X212806035Y-30110905D01*
X212806035Y-30110905D02*
X212853654Y-30206143D01*
X212853654Y-30206143D02*
X212901273Y-30253762D01*
X212901273Y-30253762D02*
X212996511Y-30301381D01*
X212996511Y-30301381D02*
X213329844Y-30301381D01*
X212377463Y-30539476D02*
X211901273Y-30539476D01*
X212472701Y-30825191D02*
X212139368Y-29825191D01*
X212139368Y-29825191D02*
X211806035Y-30825191D01*
X211615558Y-29825191D02*
X211044130Y-29825191D01*
X211329844Y-30825191D02*
X211329844Y-29825191D01*
X210710796Y-30444238D02*
X209948892Y-30444238D01*
X210329844Y-30825191D02*
X210329844Y-30063286D01*
X212996511Y-28396381D02*
X212853654Y-28444000D01*
X212853654Y-28444000D02*
X212806035Y-28491619D01*
X212806035Y-28491619D02*
X212758416Y-28586857D01*
X212758416Y-28586857D02*
X212758416Y-28729714D01*
X212758416Y-28729714D02*
X212806035Y-28824952D01*
X212806035Y-28824952D02*
X212853654Y-28872572D01*
X212853654Y-28872572D02*
X212948892Y-28920191D01*
X212948892Y-28920191D02*
X213329844Y-28920191D01*
X213329844Y-28920191D02*
X213329844Y-27920191D01*
X213329844Y-27920191D02*
X212996511Y-27920191D01*
X212996511Y-27920191D02*
X212901273Y-27967810D01*
X212901273Y-27967810D02*
X212853654Y-28015429D01*
X212853654Y-28015429D02*
X212806035Y-28110667D01*
X212806035Y-28110667D02*
X212806035Y-28205905D01*
X212806035Y-28205905D02*
X212853654Y-28301143D01*
X212853654Y-28301143D02*
X212901273Y-28348762D01*
X212901273Y-28348762D02*
X212996511Y-28396381D01*
X212996511Y-28396381D02*
X213329844Y-28396381D01*
X212377463Y-28634476D02*
X211901273Y-28634476D01*
X212472701Y-28920191D02*
X212139368Y-27920191D01*
X212139368Y-27920191D02*
X211806035Y-28920191D01*
X211615558Y-27920191D02*
X211044130Y-27920191D01*
X211329844Y-28920191D02*
X211329844Y-27920191D01*
X210710796Y-28539238D02*
X209948892Y-28539238D01*
X271349267Y-105622261D02*
X270349267Y-105622261D01*
X270349267Y-105622261D02*
X270349267Y-105860356D01*
X270349267Y-105860356D02*
X270396886Y-106003213D01*
X270396886Y-106003213D02*
X270492124Y-106098451D01*
X270492124Y-106098451D02*
X270587362Y-106146070D01*
X270587362Y-106146070D02*
X270777838Y-106193689D01*
X270777838Y-106193689D02*
X270920695Y-106193689D01*
X270920695Y-106193689D02*
X271111171Y-106146070D01*
X271111171Y-106146070D02*
X271206409Y-106098451D01*
X271206409Y-106098451D02*
X271301648Y-106003213D01*
X271301648Y-106003213D02*
X271349267Y-105860356D01*
X271349267Y-105860356D02*
X271349267Y-105622261D01*
X271349267Y-107146070D02*
X271349267Y-106574642D01*
X271349267Y-106860356D02*
X270349267Y-106860356D01*
X270349267Y-106860356D02*
X270492124Y-106765118D01*
X270492124Y-106765118D02*
X270587362Y-106669880D01*
X270587362Y-106669880D02*
X270634981Y-106574642D01*
X270349267Y-107765118D02*
X270349267Y-107860356D01*
X270349267Y-107860356D02*
X270396886Y-107955594D01*
X270396886Y-107955594D02*
X270444505Y-108003213D01*
X270444505Y-108003213D02*
X270539743Y-108050832D01*
X270539743Y-108050832D02*
X270730219Y-108098451D01*
X270730219Y-108098451D02*
X270968314Y-108098451D01*
X270968314Y-108098451D02*
X271158790Y-108050832D01*
X271158790Y-108050832D02*
X271254028Y-108003213D01*
X271254028Y-108003213D02*
X271301648Y-107955594D01*
X271301648Y-107955594D02*
X271349267Y-107860356D01*
X271349267Y-107860356D02*
X271349267Y-107765118D01*
X271349267Y-107765118D02*
X271301648Y-107669880D01*
X271301648Y-107669880D02*
X271254028Y-107622261D01*
X271254028Y-107622261D02*
X271158790Y-107574642D01*
X271158790Y-107574642D02*
X270968314Y-107527023D01*
X270968314Y-107527023D02*
X270730219Y-107527023D01*
X270730219Y-107527023D02*
X270539743Y-107574642D01*
X270539743Y-107574642D02*
X270444505Y-107622261D01*
X270444505Y-107622261D02*
X270396886Y-107669880D01*
X270396886Y-107669880D02*
X270349267Y-107765118D01*
X62296669Y-86593311D02*
X61296669Y-86593311D01*
X61296669Y-86593311D02*
X61296669Y-86831406D01*
X61296669Y-86831406D02*
X61344288Y-86974263D01*
X61344288Y-86974263D02*
X61439526Y-87069501D01*
X61439526Y-87069501D02*
X61534764Y-87117120D01*
X61534764Y-87117120D02*
X61725240Y-87164739D01*
X61725240Y-87164739D02*
X61868097Y-87164739D01*
X61868097Y-87164739D02*
X62058573Y-87117120D01*
X62058573Y-87117120D02*
X62153811Y-87069501D01*
X62153811Y-87069501D02*
X62249050Y-86974263D01*
X62249050Y-86974263D02*
X62296669Y-86831406D01*
X62296669Y-86831406D02*
X62296669Y-86593311D01*
X61630002Y-88021882D02*
X62296669Y-88021882D01*
X61249050Y-87783787D02*
X61963335Y-87545692D01*
X61963335Y-87545692D02*
X61963335Y-88164739D01*
X61630002Y-88974263D02*
X62296669Y-88974263D01*
X61249050Y-88736168D02*
X61963335Y-88498073D01*
X61963335Y-88498073D02*
X61963335Y-89117120D01*
X290399667Y-105622261D02*
X289399667Y-105622261D01*
X289399667Y-105622261D02*
X289399667Y-105860356D01*
X289399667Y-105860356D02*
X289447286Y-106003213D01*
X289447286Y-106003213D02*
X289542524Y-106098451D01*
X289542524Y-106098451D02*
X289637762Y-106146070D01*
X289637762Y-106146070D02*
X289828238Y-106193689D01*
X289828238Y-106193689D02*
X289971095Y-106193689D01*
X289971095Y-106193689D02*
X290161571Y-106146070D01*
X290161571Y-106146070D02*
X290256809Y-106098451D01*
X290256809Y-106098451D02*
X290352048Y-106003213D01*
X290352048Y-106003213D02*
X290399667Y-105860356D01*
X290399667Y-105860356D02*
X290399667Y-105622261D01*
X290399667Y-107146070D02*
X290399667Y-106574642D01*
X290399667Y-106860356D02*
X289399667Y-106860356D01*
X289399667Y-106860356D02*
X289542524Y-106765118D01*
X289542524Y-106765118D02*
X289637762Y-106669880D01*
X289637762Y-106669880D02*
X289685381Y-106574642D01*
X289399667Y-108003213D02*
X289399667Y-107812737D01*
X289399667Y-107812737D02*
X289447286Y-107717499D01*
X289447286Y-107717499D02*
X289494905Y-107669880D01*
X289494905Y-107669880D02*
X289637762Y-107574642D01*
X289637762Y-107574642D02*
X289828238Y-107527023D01*
X289828238Y-107527023D02*
X290209190Y-107527023D01*
X290209190Y-107527023D02*
X290304428Y-107574642D01*
X290304428Y-107574642D02*
X290352048Y-107622261D01*
X290352048Y-107622261D02*
X290399667Y-107717499D01*
X290399667Y-107717499D02*
X290399667Y-107907975D01*
X290399667Y-107907975D02*
X290352048Y-108003213D01*
X290352048Y-108003213D02*
X290304428Y-108050832D01*
X290304428Y-108050832D02*
X290209190Y-108098451D01*
X290209190Y-108098451D02*
X289971095Y-108098451D01*
X289971095Y-108098451D02*
X289875857Y-108050832D01*
X289875857Y-108050832D02*
X289828238Y-108003213D01*
X289828238Y-108003213D02*
X289780619Y-107907975D01*
X289780619Y-107907975D02*
X289780619Y-107717499D01*
X289780619Y-107717499D02*
X289828238Y-107622261D01*
X289828238Y-107622261D02*
X289875857Y-107574642D01*
X289875857Y-107574642D02*
X289971095Y-107527023D01*
X309450067Y-105622261D02*
X308450067Y-105622261D01*
X308450067Y-105622261D02*
X308450067Y-105860356D01*
X308450067Y-105860356D02*
X308497686Y-106003213D01*
X308497686Y-106003213D02*
X308592924Y-106098451D01*
X308592924Y-106098451D02*
X308688162Y-106146070D01*
X308688162Y-106146070D02*
X308878638Y-106193689D01*
X308878638Y-106193689D02*
X309021495Y-106193689D01*
X309021495Y-106193689D02*
X309211971Y-106146070D01*
X309211971Y-106146070D02*
X309307209Y-106098451D01*
X309307209Y-106098451D02*
X309402448Y-106003213D01*
X309402448Y-106003213D02*
X309450067Y-105860356D01*
X309450067Y-105860356D02*
X309450067Y-105622261D01*
X308545305Y-106574642D02*
X308497686Y-106622261D01*
X308497686Y-106622261D02*
X308450067Y-106717499D01*
X308450067Y-106717499D02*
X308450067Y-106955594D01*
X308450067Y-106955594D02*
X308497686Y-107050832D01*
X308497686Y-107050832D02*
X308545305Y-107098451D01*
X308545305Y-107098451D02*
X308640543Y-107146070D01*
X308640543Y-107146070D02*
X308735781Y-107146070D01*
X308735781Y-107146070D02*
X308878638Y-107098451D01*
X308878638Y-107098451D02*
X309450067Y-106527023D01*
X309450067Y-106527023D02*
X309450067Y-107146070D01*
X308545305Y-107527023D02*
X308497686Y-107574642D01*
X308497686Y-107574642D02*
X308450067Y-107669880D01*
X308450067Y-107669880D02*
X308450067Y-107907975D01*
X308450067Y-107907975D02*
X308497686Y-108003213D01*
X308497686Y-108003213D02*
X308545305Y-108050832D01*
X308545305Y-108050832D02*
X308640543Y-108098451D01*
X308640543Y-108098451D02*
X308735781Y-108098451D01*
X308735781Y-108098451D02*
X308878638Y-108050832D01*
X308878638Y-108050832D02*
X309450067Y-107479404D01*
X309450067Y-107479404D02*
X309450067Y-108098451D01*
X366601267Y-105622261D02*
X365601267Y-105622261D01*
X365601267Y-105622261D02*
X365601267Y-105860356D01*
X365601267Y-105860356D02*
X365648886Y-106003213D01*
X365648886Y-106003213D02*
X365744124Y-106098451D01*
X365744124Y-106098451D02*
X365839362Y-106146070D01*
X365839362Y-106146070D02*
X366029838Y-106193689D01*
X366029838Y-106193689D02*
X366172695Y-106193689D01*
X366172695Y-106193689D02*
X366363171Y-106146070D01*
X366363171Y-106146070D02*
X366458409Y-106098451D01*
X366458409Y-106098451D02*
X366553648Y-106003213D01*
X366553648Y-106003213D02*
X366601267Y-105860356D01*
X366601267Y-105860356D02*
X366601267Y-105622261D01*
X365601267Y-106527023D02*
X365601267Y-107146070D01*
X365601267Y-107146070D02*
X365982219Y-106812737D01*
X365982219Y-106812737D02*
X365982219Y-106955594D01*
X365982219Y-106955594D02*
X366029838Y-107050832D01*
X366029838Y-107050832D02*
X366077457Y-107098451D01*
X366077457Y-107098451D02*
X366172695Y-107146070D01*
X366172695Y-107146070D02*
X366410790Y-107146070D01*
X366410790Y-107146070D02*
X366506028Y-107098451D01*
X366506028Y-107098451D02*
X366553648Y-107050832D01*
X366553648Y-107050832D02*
X366601267Y-106955594D01*
X366601267Y-106955594D02*
X366601267Y-106669880D01*
X366601267Y-106669880D02*
X366553648Y-106574642D01*
X366553648Y-106574642D02*
X366506028Y-106527023D01*
X366601267Y-107622261D02*
X366601267Y-107812737D01*
X366601267Y-107812737D02*
X366553648Y-107907975D01*
X366553648Y-107907975D02*
X366506028Y-107955594D01*
X366506028Y-107955594D02*
X366363171Y-108050832D01*
X366363171Y-108050832D02*
X366172695Y-108098451D01*
X366172695Y-108098451D02*
X365791743Y-108098451D01*
X365791743Y-108098451D02*
X365696505Y-108050832D01*
X365696505Y-108050832D02*
X365648886Y-108003213D01*
X365648886Y-108003213D02*
X365601267Y-107907975D01*
X365601267Y-107907975D02*
X365601267Y-107717499D01*
X365601267Y-107717499D02*
X365648886Y-107622261D01*
X365648886Y-107622261D02*
X365696505Y-107574642D01*
X365696505Y-107574642D02*
X365791743Y-107527023D01*
X365791743Y-107527023D02*
X366029838Y-107527023D01*
X366029838Y-107527023D02*
X366125076Y-107574642D01*
X366125076Y-107574642D02*
X366172695Y-107622261D01*
X366172695Y-107622261D02*
X366220314Y-107717499D01*
X366220314Y-107717499D02*
X366220314Y-107907975D01*
X366220314Y-107907975D02*
X366172695Y-108003213D01*
X366172695Y-108003213D02*
X366125076Y-108050832D01*
X366125076Y-108050832D02*
X366029838Y-108098451D01*
X361838667Y-86571861D02*
X360838667Y-86571861D01*
X360838667Y-86571861D02*
X360838667Y-86809956D01*
X360838667Y-86809956D02*
X360886286Y-86952813D01*
X360886286Y-86952813D02*
X360981524Y-87048051D01*
X360981524Y-87048051D02*
X361076762Y-87095670D01*
X361076762Y-87095670D02*
X361267238Y-87143289D01*
X361267238Y-87143289D02*
X361410095Y-87143289D01*
X361410095Y-87143289D02*
X361600571Y-87095670D01*
X361600571Y-87095670D02*
X361695809Y-87048051D01*
X361695809Y-87048051D02*
X361791048Y-86952813D01*
X361791048Y-86952813D02*
X361838667Y-86809956D01*
X361838667Y-86809956D02*
X361838667Y-86571861D01*
X360838667Y-87476623D02*
X360838667Y-88095670D01*
X360838667Y-88095670D02*
X361219619Y-87762337D01*
X361219619Y-87762337D02*
X361219619Y-87905194D01*
X361219619Y-87905194D02*
X361267238Y-88000432D01*
X361267238Y-88000432D02*
X361314857Y-88048051D01*
X361314857Y-88048051D02*
X361410095Y-88095670D01*
X361410095Y-88095670D02*
X361648190Y-88095670D01*
X361648190Y-88095670D02*
X361743428Y-88048051D01*
X361743428Y-88048051D02*
X361791048Y-88000432D01*
X361791048Y-88000432D02*
X361838667Y-87905194D01*
X361838667Y-87905194D02*
X361838667Y-87619480D01*
X361838667Y-87619480D02*
X361791048Y-87524242D01*
X361791048Y-87524242D02*
X361743428Y-87476623D01*
X361267238Y-88667099D02*
X361219619Y-88571861D01*
X361219619Y-88571861D02*
X361172000Y-88524242D01*
X361172000Y-88524242D02*
X361076762Y-88476623D01*
X361076762Y-88476623D02*
X361029143Y-88476623D01*
X361029143Y-88476623D02*
X360933905Y-88524242D01*
X360933905Y-88524242D02*
X360886286Y-88571861D01*
X360886286Y-88571861D02*
X360838667Y-88667099D01*
X360838667Y-88667099D02*
X360838667Y-88857575D01*
X360838667Y-88857575D02*
X360886286Y-88952813D01*
X360886286Y-88952813D02*
X360933905Y-89000432D01*
X360933905Y-89000432D02*
X361029143Y-89048051D01*
X361029143Y-89048051D02*
X361076762Y-89048051D01*
X361076762Y-89048051D02*
X361172000Y-89000432D01*
X361172000Y-89000432D02*
X361219619Y-88952813D01*
X361219619Y-88952813D02*
X361267238Y-88857575D01*
X361267238Y-88857575D02*
X361267238Y-88667099D01*
X361267238Y-88667099D02*
X361314857Y-88571861D01*
X361314857Y-88571861D02*
X361362476Y-88524242D01*
X361362476Y-88524242D02*
X361457714Y-88476623D01*
X361457714Y-88476623D02*
X361648190Y-88476623D01*
X361648190Y-88476623D02*
X361743428Y-88524242D01*
X361743428Y-88524242D02*
X361791048Y-88571861D01*
X361791048Y-88571861D02*
X361838667Y-88667099D01*
X361838667Y-88667099D02*
X361838667Y-88857575D01*
X361838667Y-88857575D02*
X361791048Y-88952813D01*
X361791048Y-88952813D02*
X361743428Y-89000432D01*
X361743428Y-89000432D02*
X361648190Y-89048051D01*
X361648190Y-89048051D02*
X361457714Y-89048051D01*
X361457714Y-89048051D02*
X361362476Y-89000432D01*
X361362476Y-89000432D02*
X361314857Y-88952813D01*
X361314857Y-88952813D02*
X361267238Y-88857575D01*
X314212667Y-48471061D02*
X313212667Y-48471061D01*
X313212667Y-48471061D02*
X313212667Y-48709156D01*
X313212667Y-48709156D02*
X313260286Y-48852013D01*
X313260286Y-48852013D02*
X313355524Y-48947251D01*
X313355524Y-48947251D02*
X313450762Y-48994870D01*
X313450762Y-48994870D02*
X313641238Y-49042489D01*
X313641238Y-49042489D02*
X313784095Y-49042489D01*
X313784095Y-49042489D02*
X313974571Y-48994870D01*
X313974571Y-48994870D02*
X314069809Y-48947251D01*
X314069809Y-48947251D02*
X314165048Y-48852013D01*
X314165048Y-48852013D02*
X314212667Y-48709156D01*
X314212667Y-48709156D02*
X314212667Y-48471061D01*
X313307905Y-49423442D02*
X313260286Y-49471061D01*
X313260286Y-49471061D02*
X313212667Y-49566299D01*
X313212667Y-49566299D02*
X313212667Y-49804394D01*
X313212667Y-49804394D02*
X313260286Y-49899632D01*
X313260286Y-49899632D02*
X313307905Y-49947251D01*
X313307905Y-49947251D02*
X313403143Y-49994870D01*
X313403143Y-49994870D02*
X313498381Y-49994870D01*
X313498381Y-49994870D02*
X313641238Y-49947251D01*
X313641238Y-49947251D02*
X314212667Y-49375823D01*
X314212667Y-49375823D02*
X314212667Y-49994870D01*
X313212667Y-50899632D02*
X313212667Y-50423442D01*
X313212667Y-50423442D02*
X313688857Y-50375823D01*
X313688857Y-50375823D02*
X313641238Y-50423442D01*
X313641238Y-50423442D02*
X313593619Y-50518680D01*
X313593619Y-50518680D02*
X313593619Y-50756775D01*
X313593619Y-50756775D02*
X313641238Y-50852013D01*
X313641238Y-50852013D02*
X313688857Y-50899632D01*
X313688857Y-50899632D02*
X313784095Y-50947251D01*
X313784095Y-50947251D02*
X314022190Y-50947251D01*
X314022190Y-50947251D02*
X314117428Y-50899632D01*
X314117428Y-50899632D02*
X314165048Y-50852013D01*
X314165048Y-50852013D02*
X314212667Y-50756775D01*
X314212667Y-50756775D02*
X314212667Y-50518680D01*
X314212667Y-50518680D02*
X314165048Y-50423442D01*
X314165048Y-50423442D02*
X314117428Y-50375823D01*
X249917567Y-125148852D02*
X248917567Y-125148852D01*
X248917567Y-125148852D02*
X248917567Y-125386947D01*
X248917567Y-125386947D02*
X248965186Y-125529804D01*
X248965186Y-125529804D02*
X249060424Y-125625042D01*
X249060424Y-125625042D02*
X249155662Y-125672661D01*
X249155662Y-125672661D02*
X249346138Y-125720280D01*
X249346138Y-125720280D02*
X249488995Y-125720280D01*
X249488995Y-125720280D02*
X249679471Y-125672661D01*
X249679471Y-125672661D02*
X249774709Y-125625042D01*
X249774709Y-125625042D02*
X249869948Y-125529804D01*
X249869948Y-125529804D02*
X249917567Y-125386947D01*
X249917567Y-125386947D02*
X249917567Y-125148852D01*
X248917567Y-126625042D02*
X248917567Y-126148852D01*
X248917567Y-126148852D02*
X249393757Y-126101233D01*
X249393757Y-126101233D02*
X249346138Y-126148852D01*
X249346138Y-126148852D02*
X249298519Y-126244090D01*
X249298519Y-126244090D02*
X249298519Y-126482185D01*
X249298519Y-126482185D02*
X249346138Y-126577423D01*
X249346138Y-126577423D02*
X249393757Y-126625042D01*
X249393757Y-126625042D02*
X249488995Y-126672661D01*
X249488995Y-126672661D02*
X249727090Y-126672661D01*
X249727090Y-126672661D02*
X249822328Y-126625042D01*
X249822328Y-126625042D02*
X249869948Y-126577423D01*
X249869948Y-126577423D02*
X249917567Y-126482185D01*
X249917567Y-126482185D02*
X249917567Y-126244090D01*
X249917567Y-126244090D02*
X249869948Y-126148852D01*
X249869948Y-126148852D02*
X249822328Y-126101233D01*
X160904416Y-31714027D02*
X160952035Y-31761647D01*
X160952035Y-31761647D02*
X161094892Y-31809266D01*
X161094892Y-31809266D02*
X161190130Y-31809266D01*
X161190130Y-31809266D02*
X161332987Y-31761647D01*
X161332987Y-31761647D02*
X161428225Y-31666408D01*
X161428225Y-31666408D02*
X161475844Y-31571170D01*
X161475844Y-31571170D02*
X161523463Y-31380694D01*
X161523463Y-31380694D02*
X161523463Y-31237837D01*
X161523463Y-31237837D02*
X161475844Y-31047361D01*
X161475844Y-31047361D02*
X161428225Y-30952123D01*
X161428225Y-30952123D02*
X161332987Y-30856885D01*
X161332987Y-30856885D02*
X161190130Y-30809266D01*
X161190130Y-30809266D02*
X161094892Y-30809266D01*
X161094892Y-30809266D02*
X160952035Y-30856885D01*
X160952035Y-30856885D02*
X160904416Y-30904504D01*
X160523463Y-30904504D02*
X160475844Y-30856885D01*
X160475844Y-30856885D02*
X160380606Y-30809266D01*
X160380606Y-30809266D02*
X160142511Y-30809266D01*
X160142511Y-30809266D02*
X160047273Y-30856885D01*
X160047273Y-30856885D02*
X159999654Y-30904504D01*
X159999654Y-30904504D02*
X159952035Y-30999742D01*
X159952035Y-30999742D02*
X159952035Y-31094980D01*
X159952035Y-31094980D02*
X159999654Y-31237837D01*
X159999654Y-31237837D02*
X160571082Y-31809266D01*
X160571082Y-31809266D02*
X159952035Y-31809266D01*
X100397469Y-86593311D02*
X99397469Y-86593311D01*
X99397469Y-86593311D02*
X99397469Y-86831406D01*
X99397469Y-86831406D02*
X99445088Y-86974263D01*
X99445088Y-86974263D02*
X99540326Y-87069501D01*
X99540326Y-87069501D02*
X99635564Y-87117120D01*
X99635564Y-87117120D02*
X99826040Y-87164739D01*
X99826040Y-87164739D02*
X99968897Y-87164739D01*
X99968897Y-87164739D02*
X100159373Y-87117120D01*
X100159373Y-87117120D02*
X100254611Y-87069501D01*
X100254611Y-87069501D02*
X100349850Y-86974263D01*
X100349850Y-86974263D02*
X100397469Y-86831406D01*
X100397469Y-86831406D02*
X100397469Y-86593311D01*
X99397469Y-88069501D02*
X99397469Y-87593311D01*
X99397469Y-87593311D02*
X99873659Y-87545692D01*
X99873659Y-87545692D02*
X99826040Y-87593311D01*
X99826040Y-87593311D02*
X99778421Y-87688549D01*
X99778421Y-87688549D02*
X99778421Y-87926644D01*
X99778421Y-87926644D02*
X99826040Y-88021882D01*
X99826040Y-88021882D02*
X99873659Y-88069501D01*
X99873659Y-88069501D02*
X99968897Y-88117120D01*
X99968897Y-88117120D02*
X100206992Y-88117120D01*
X100206992Y-88117120D02*
X100302230Y-88069501D01*
X100302230Y-88069501D02*
X100349850Y-88021882D01*
X100349850Y-88021882D02*
X100397469Y-87926644D01*
X100397469Y-87926644D02*
X100397469Y-87688549D01*
X100397469Y-87688549D02*
X100349850Y-87593311D01*
X100349850Y-87593311D02*
X100302230Y-87545692D01*
X99397469Y-88974263D02*
X99397469Y-88783787D01*
X99397469Y-88783787D02*
X99445088Y-88688549D01*
X99445088Y-88688549D02*
X99492707Y-88640930D01*
X99492707Y-88640930D02*
X99635564Y-88545692D01*
X99635564Y-88545692D02*
X99826040Y-88498073D01*
X99826040Y-88498073D02*
X100206992Y-88498073D01*
X100206992Y-88498073D02*
X100302230Y-88545692D01*
X100302230Y-88545692D02*
X100349850Y-88593311D01*
X100349850Y-88593311D02*
X100397469Y-88688549D01*
X100397469Y-88688549D02*
X100397469Y-88879025D01*
X100397469Y-88879025D02*
X100349850Y-88974263D01*
X100349850Y-88974263D02*
X100302230Y-89021882D01*
X100302230Y-89021882D02*
X100206992Y-89069501D01*
X100206992Y-89069501D02*
X99968897Y-89069501D01*
X99968897Y-89069501D02*
X99873659Y-89021882D01*
X99873659Y-89021882D02*
X99826040Y-88974263D01*
X99826040Y-88974263D02*
X99778421Y-88879025D01*
X99778421Y-88879025D02*
X99778421Y-88688549D01*
X99778421Y-88688549D02*
X99826040Y-88593311D01*
X99826040Y-88593311D02*
X99873659Y-88545692D01*
X99873659Y-88545692D02*
X99968897Y-88498073D01*
X57554819Y-124735714D02*
X56554819Y-124735714D01*
X56554819Y-124735714D02*
X56554819Y-124973809D01*
X56554819Y-124973809D02*
X56602438Y-125116666D01*
X56602438Y-125116666D02*
X56697676Y-125211904D01*
X56697676Y-125211904D02*
X56792914Y-125259523D01*
X56792914Y-125259523D02*
X56983390Y-125307142D01*
X56983390Y-125307142D02*
X57126247Y-125307142D01*
X57126247Y-125307142D02*
X57316723Y-125259523D01*
X57316723Y-125259523D02*
X57411961Y-125211904D01*
X57411961Y-125211904D02*
X57507200Y-125116666D01*
X57507200Y-125116666D02*
X57554819Y-124973809D01*
X57554819Y-124973809D02*
X57554819Y-124735714D01*
X56888152Y-126164285D02*
X57554819Y-126164285D01*
X56507200Y-125926190D02*
X57221485Y-125688095D01*
X57221485Y-125688095D02*
X57221485Y-126307142D01*
X56554819Y-127116666D02*
X56554819Y-126926190D01*
X56554819Y-126926190D02*
X56602438Y-126830952D01*
X56602438Y-126830952D02*
X56650057Y-126783333D01*
X56650057Y-126783333D02*
X56792914Y-126688095D01*
X56792914Y-126688095D02*
X56983390Y-126640476D01*
X56983390Y-126640476D02*
X57364342Y-126640476D01*
X57364342Y-126640476D02*
X57459580Y-126688095D01*
X57459580Y-126688095D02*
X57507200Y-126735714D01*
X57507200Y-126735714D02*
X57554819Y-126830952D01*
X57554819Y-126830952D02*
X57554819Y-127021428D01*
X57554819Y-127021428D02*
X57507200Y-127116666D01*
X57507200Y-127116666D02*
X57459580Y-127164285D01*
X57459580Y-127164285D02*
X57364342Y-127211904D01*
X57364342Y-127211904D02*
X57126247Y-127211904D01*
X57126247Y-127211904D02*
X57031009Y-127164285D01*
X57031009Y-127164285D02*
X56983390Y-127116666D01*
X56983390Y-127116666D02*
X56935771Y-127021428D01*
X56935771Y-127021428D02*
X56935771Y-126830952D01*
X56935771Y-126830952D02*
X56983390Y-126735714D01*
X56983390Y-126735714D02*
X57031009Y-126688095D01*
X57031009Y-126688095D02*
X57126247Y-126640476D01*
X333263067Y-67521461D02*
X332263067Y-67521461D01*
X332263067Y-67521461D02*
X332263067Y-67759556D01*
X332263067Y-67759556D02*
X332310686Y-67902413D01*
X332310686Y-67902413D02*
X332405924Y-67997651D01*
X332405924Y-67997651D02*
X332501162Y-68045270D01*
X332501162Y-68045270D02*
X332691638Y-68092889D01*
X332691638Y-68092889D02*
X332834495Y-68092889D01*
X332834495Y-68092889D02*
X333024971Y-68045270D01*
X333024971Y-68045270D02*
X333120209Y-67997651D01*
X333120209Y-67997651D02*
X333215448Y-67902413D01*
X333215448Y-67902413D02*
X333263067Y-67759556D01*
X333263067Y-67759556D02*
X333263067Y-67521461D01*
X332263067Y-68426223D02*
X332263067Y-69045270D01*
X332263067Y-69045270D02*
X332644019Y-68711937D01*
X332644019Y-68711937D02*
X332644019Y-68854794D01*
X332644019Y-68854794D02*
X332691638Y-68950032D01*
X332691638Y-68950032D02*
X332739257Y-68997651D01*
X332739257Y-68997651D02*
X332834495Y-69045270D01*
X332834495Y-69045270D02*
X333072590Y-69045270D01*
X333072590Y-69045270D02*
X333167828Y-68997651D01*
X333167828Y-68997651D02*
X333215448Y-68950032D01*
X333215448Y-68950032D02*
X333263067Y-68854794D01*
X333263067Y-68854794D02*
X333263067Y-68569080D01*
X333263067Y-68569080D02*
X333215448Y-68473842D01*
X333215448Y-68473842D02*
X333167828Y-68426223D01*
X332358305Y-69426223D02*
X332310686Y-69473842D01*
X332310686Y-69473842D02*
X332263067Y-69569080D01*
X332263067Y-69569080D02*
X332263067Y-69807175D01*
X332263067Y-69807175D02*
X332310686Y-69902413D01*
X332310686Y-69902413D02*
X332358305Y-69950032D01*
X332358305Y-69950032D02*
X332453543Y-69997651D01*
X332453543Y-69997651D02*
X332548781Y-69997651D01*
X332548781Y-69997651D02*
X332691638Y-69950032D01*
X332691638Y-69950032D02*
X333263067Y-69378604D01*
X333263067Y-69378604D02*
X333263067Y-69997651D01*
X90872269Y-67542911D02*
X89872269Y-67542911D01*
X89872269Y-67542911D02*
X89872269Y-67781006D01*
X89872269Y-67781006D02*
X89919888Y-67923863D01*
X89919888Y-67923863D02*
X90015126Y-68019101D01*
X90015126Y-68019101D02*
X90110364Y-68066720D01*
X90110364Y-68066720D02*
X90300840Y-68114339D01*
X90300840Y-68114339D02*
X90443697Y-68114339D01*
X90443697Y-68114339D02*
X90634173Y-68066720D01*
X90634173Y-68066720D02*
X90729411Y-68019101D01*
X90729411Y-68019101D02*
X90824650Y-67923863D01*
X90824650Y-67923863D02*
X90872269Y-67781006D01*
X90872269Y-67781006D02*
X90872269Y-67542911D01*
X90205602Y-68971482D02*
X90872269Y-68971482D01*
X89824650Y-68733387D02*
X90538935Y-68495292D01*
X90538935Y-68495292D02*
X90538935Y-69114339D01*
X90872269Y-69542911D02*
X90872269Y-69733387D01*
X90872269Y-69733387D02*
X90824650Y-69828625D01*
X90824650Y-69828625D02*
X90777030Y-69876244D01*
X90777030Y-69876244D02*
X90634173Y-69971482D01*
X90634173Y-69971482D02*
X90443697Y-70019101D01*
X90443697Y-70019101D02*
X90062745Y-70019101D01*
X90062745Y-70019101D02*
X89967507Y-69971482D01*
X89967507Y-69971482D02*
X89919888Y-69923863D01*
X89919888Y-69923863D02*
X89872269Y-69828625D01*
X89872269Y-69828625D02*
X89872269Y-69638149D01*
X89872269Y-69638149D02*
X89919888Y-69542911D01*
X89919888Y-69542911D02*
X89967507Y-69495292D01*
X89967507Y-69495292D02*
X90062745Y-69447673D01*
X90062745Y-69447673D02*
X90300840Y-69447673D01*
X90300840Y-69447673D02*
X90396078Y-69495292D01*
X90396078Y-69495292D02*
X90443697Y-69542911D01*
X90443697Y-69542911D02*
X90491316Y-69638149D01*
X90491316Y-69638149D02*
X90491316Y-69828625D01*
X90491316Y-69828625D02*
X90443697Y-69923863D01*
X90443697Y-69923863D02*
X90396078Y-69971482D01*
X90396078Y-69971482D02*
X90300840Y-70019101D01*
X205032594Y-67542911D02*
X204032594Y-67542911D01*
X204032594Y-67542911D02*
X204032594Y-67781006D01*
X204032594Y-67781006D02*
X204080213Y-67923863D01*
X204080213Y-67923863D02*
X204175451Y-68019101D01*
X204175451Y-68019101D02*
X204270689Y-68066720D01*
X204270689Y-68066720D02*
X204461165Y-68114339D01*
X204461165Y-68114339D02*
X204604022Y-68114339D01*
X204604022Y-68114339D02*
X204794498Y-68066720D01*
X204794498Y-68066720D02*
X204889736Y-68019101D01*
X204889736Y-68019101D02*
X204984975Y-67923863D01*
X204984975Y-67923863D02*
X205032594Y-67781006D01*
X205032594Y-67781006D02*
X205032594Y-67542911D01*
X204032594Y-68447673D02*
X204032594Y-69114339D01*
X204032594Y-69114339D02*
X205032594Y-68685768D01*
X205032594Y-69542911D02*
X205032594Y-69733387D01*
X205032594Y-69733387D02*
X204984975Y-69828625D01*
X204984975Y-69828625D02*
X204937355Y-69876244D01*
X204937355Y-69876244D02*
X204794498Y-69971482D01*
X204794498Y-69971482D02*
X204604022Y-70019101D01*
X204604022Y-70019101D02*
X204223070Y-70019101D01*
X204223070Y-70019101D02*
X204127832Y-69971482D01*
X204127832Y-69971482D02*
X204080213Y-69923863D01*
X204080213Y-69923863D02*
X204032594Y-69828625D01*
X204032594Y-69828625D02*
X204032594Y-69638149D01*
X204032594Y-69638149D02*
X204080213Y-69542911D01*
X204080213Y-69542911D02*
X204127832Y-69495292D01*
X204127832Y-69495292D02*
X204223070Y-69447673D01*
X204223070Y-69447673D02*
X204461165Y-69447673D01*
X204461165Y-69447673D02*
X204556403Y-69495292D01*
X204556403Y-69495292D02*
X204604022Y-69542911D01*
X204604022Y-69542911D02*
X204651641Y-69638149D01*
X204651641Y-69638149D02*
X204651641Y-69828625D01*
X204651641Y-69828625D02*
X204604022Y-69923863D01*
X204604022Y-69923863D02*
X204556403Y-69971482D01*
X204556403Y-69971482D02*
X204461165Y-70019101D01*
X147881394Y-143744511D02*
X146881394Y-143744511D01*
X146881394Y-143744511D02*
X146881394Y-143982606D01*
X146881394Y-143982606D02*
X146929013Y-144125463D01*
X146929013Y-144125463D02*
X147024251Y-144220701D01*
X147024251Y-144220701D02*
X147119489Y-144268320D01*
X147119489Y-144268320D02*
X147309965Y-144315939D01*
X147309965Y-144315939D02*
X147452822Y-144315939D01*
X147452822Y-144315939D02*
X147643298Y-144268320D01*
X147643298Y-144268320D02*
X147738536Y-144220701D01*
X147738536Y-144220701D02*
X147833775Y-144125463D01*
X147833775Y-144125463D02*
X147881394Y-143982606D01*
X147881394Y-143982606D02*
X147881394Y-143744511D01*
X146881394Y-144649273D02*
X146881394Y-145315939D01*
X146881394Y-145315939D02*
X147881394Y-144887368D01*
X147881394Y-146220701D02*
X147881394Y-145649273D01*
X147881394Y-145934987D02*
X146881394Y-145934987D01*
X146881394Y-145934987D02*
X147024251Y-145839749D01*
X147024251Y-145839749D02*
X147119489Y-145744511D01*
X147119489Y-145744511D02*
X147167108Y-145649273D01*
X266586667Y-87048052D02*
X265586667Y-87048052D01*
X265586667Y-87048052D02*
X265586667Y-87286147D01*
X265586667Y-87286147D02*
X265634286Y-87429004D01*
X265634286Y-87429004D02*
X265729524Y-87524242D01*
X265729524Y-87524242D02*
X265824762Y-87571861D01*
X265824762Y-87571861D02*
X266015238Y-87619480D01*
X266015238Y-87619480D02*
X266158095Y-87619480D01*
X266158095Y-87619480D02*
X266348571Y-87571861D01*
X266348571Y-87571861D02*
X266443809Y-87524242D01*
X266443809Y-87524242D02*
X266539048Y-87429004D01*
X266539048Y-87429004D02*
X266586667Y-87286147D01*
X266586667Y-87286147D02*
X266586667Y-87048052D01*
X266586667Y-88095671D02*
X266586667Y-88286147D01*
X266586667Y-88286147D02*
X266539048Y-88381385D01*
X266539048Y-88381385D02*
X266491428Y-88429004D01*
X266491428Y-88429004D02*
X266348571Y-88524242D01*
X266348571Y-88524242D02*
X266158095Y-88571861D01*
X266158095Y-88571861D02*
X265777143Y-88571861D01*
X265777143Y-88571861D02*
X265681905Y-88524242D01*
X265681905Y-88524242D02*
X265634286Y-88476623D01*
X265634286Y-88476623D02*
X265586667Y-88381385D01*
X265586667Y-88381385D02*
X265586667Y-88190909D01*
X265586667Y-88190909D02*
X265634286Y-88095671D01*
X265634286Y-88095671D02*
X265681905Y-88048052D01*
X265681905Y-88048052D02*
X265777143Y-88000433D01*
X265777143Y-88000433D02*
X266015238Y-88000433D01*
X266015238Y-88000433D02*
X266110476Y-88048052D01*
X266110476Y-88048052D02*
X266158095Y-88095671D01*
X266158095Y-88095671D02*
X266205714Y-88190909D01*
X266205714Y-88190909D02*
X266205714Y-88381385D01*
X266205714Y-88381385D02*
X266158095Y-88476623D01*
X266158095Y-88476623D02*
X266110476Y-88524242D01*
X266110476Y-88524242D02*
X266015238Y-88571861D01*
X240392367Y-144199252D02*
X239392367Y-144199252D01*
X239392367Y-144199252D02*
X239392367Y-144437347D01*
X239392367Y-144437347D02*
X239439986Y-144580204D01*
X239439986Y-144580204D02*
X239535224Y-144675442D01*
X239535224Y-144675442D02*
X239630462Y-144723061D01*
X239630462Y-144723061D02*
X239820938Y-144770680D01*
X239820938Y-144770680D02*
X239963795Y-144770680D01*
X239963795Y-144770680D02*
X240154271Y-144723061D01*
X240154271Y-144723061D02*
X240249509Y-144675442D01*
X240249509Y-144675442D02*
X240344748Y-144580204D01*
X240344748Y-144580204D02*
X240392367Y-144437347D01*
X240392367Y-144437347D02*
X240392367Y-144199252D01*
X239392367Y-145627823D02*
X239392367Y-145437347D01*
X239392367Y-145437347D02*
X239439986Y-145342109D01*
X239439986Y-145342109D02*
X239487605Y-145294490D01*
X239487605Y-145294490D02*
X239630462Y-145199252D01*
X239630462Y-145199252D02*
X239820938Y-145151633D01*
X239820938Y-145151633D02*
X240201890Y-145151633D01*
X240201890Y-145151633D02*
X240297128Y-145199252D01*
X240297128Y-145199252D02*
X240344748Y-145246871D01*
X240344748Y-145246871D02*
X240392367Y-145342109D01*
X240392367Y-145342109D02*
X240392367Y-145532585D01*
X240392367Y-145532585D02*
X240344748Y-145627823D01*
X240344748Y-145627823D02*
X240297128Y-145675442D01*
X240297128Y-145675442D02*
X240201890Y-145723061D01*
X240201890Y-145723061D02*
X239963795Y-145723061D01*
X239963795Y-145723061D02*
X239868557Y-145675442D01*
X239868557Y-145675442D02*
X239820938Y-145627823D01*
X239820938Y-145627823D02*
X239773319Y-145532585D01*
X239773319Y-145532585D02*
X239773319Y-145342109D01*
X239773319Y-145342109D02*
X239820938Y-145246871D01*
X239820938Y-145246871D02*
X239868557Y-145199252D01*
X239868557Y-145199252D02*
X239963795Y-145151633D01*
X185982194Y-48492511D02*
X184982194Y-48492511D01*
X184982194Y-48492511D02*
X184982194Y-48730606D01*
X184982194Y-48730606D02*
X185029813Y-48873463D01*
X185029813Y-48873463D02*
X185125051Y-48968701D01*
X185125051Y-48968701D02*
X185220289Y-49016320D01*
X185220289Y-49016320D02*
X185410765Y-49063939D01*
X185410765Y-49063939D02*
X185553622Y-49063939D01*
X185553622Y-49063939D02*
X185744098Y-49016320D01*
X185744098Y-49016320D02*
X185839336Y-48968701D01*
X185839336Y-48968701D02*
X185934575Y-48873463D01*
X185934575Y-48873463D02*
X185982194Y-48730606D01*
X185982194Y-48730606D02*
X185982194Y-48492511D01*
X184982194Y-49397273D02*
X184982194Y-50063939D01*
X184982194Y-50063939D02*
X185982194Y-49635368D01*
X185410765Y-50587749D02*
X185363146Y-50492511D01*
X185363146Y-50492511D02*
X185315527Y-50444892D01*
X185315527Y-50444892D02*
X185220289Y-50397273D01*
X185220289Y-50397273D02*
X185172670Y-50397273D01*
X185172670Y-50397273D02*
X185077432Y-50444892D01*
X185077432Y-50444892D02*
X185029813Y-50492511D01*
X185029813Y-50492511D02*
X184982194Y-50587749D01*
X184982194Y-50587749D02*
X184982194Y-50778225D01*
X184982194Y-50778225D02*
X185029813Y-50873463D01*
X185029813Y-50873463D02*
X185077432Y-50921082D01*
X185077432Y-50921082D02*
X185172670Y-50968701D01*
X185172670Y-50968701D02*
X185220289Y-50968701D01*
X185220289Y-50968701D02*
X185315527Y-50921082D01*
X185315527Y-50921082D02*
X185363146Y-50873463D01*
X185363146Y-50873463D02*
X185410765Y-50778225D01*
X185410765Y-50778225D02*
X185410765Y-50587749D01*
X185410765Y-50587749D02*
X185458384Y-50492511D01*
X185458384Y-50492511D02*
X185506003Y-50444892D01*
X185506003Y-50444892D02*
X185601241Y-50397273D01*
X185601241Y-50397273D02*
X185791717Y-50397273D01*
X185791717Y-50397273D02*
X185886955Y-50444892D01*
X185886955Y-50444892D02*
X185934575Y-50492511D01*
X185934575Y-50492511D02*
X185982194Y-50587749D01*
X185982194Y-50587749D02*
X185982194Y-50778225D01*
X185982194Y-50778225D02*
X185934575Y-50873463D01*
X185934575Y-50873463D02*
X185886955Y-50921082D01*
X185886955Y-50921082D02*
X185791717Y-50968701D01*
X185791717Y-50968701D02*
X185601241Y-50968701D01*
X185601241Y-50968701D02*
X185506003Y-50921082D01*
X185506003Y-50921082D02*
X185458384Y-50873463D01*
X185458384Y-50873463D02*
X185410765Y-50778225D01*
X109922669Y-67542911D02*
X108922669Y-67542911D01*
X108922669Y-67542911D02*
X108922669Y-67781006D01*
X108922669Y-67781006D02*
X108970288Y-67923863D01*
X108970288Y-67923863D02*
X109065526Y-68019101D01*
X109065526Y-68019101D02*
X109160764Y-68066720D01*
X109160764Y-68066720D02*
X109351240Y-68114339D01*
X109351240Y-68114339D02*
X109494097Y-68114339D01*
X109494097Y-68114339D02*
X109684573Y-68066720D01*
X109684573Y-68066720D02*
X109779811Y-68019101D01*
X109779811Y-68019101D02*
X109875050Y-67923863D01*
X109875050Y-67923863D02*
X109922669Y-67781006D01*
X109922669Y-67781006D02*
X109922669Y-67542911D01*
X108922669Y-69019101D02*
X108922669Y-68542911D01*
X108922669Y-68542911D02*
X109398859Y-68495292D01*
X109398859Y-68495292D02*
X109351240Y-68542911D01*
X109351240Y-68542911D02*
X109303621Y-68638149D01*
X109303621Y-68638149D02*
X109303621Y-68876244D01*
X109303621Y-68876244D02*
X109351240Y-68971482D01*
X109351240Y-68971482D02*
X109398859Y-69019101D01*
X109398859Y-69019101D02*
X109494097Y-69066720D01*
X109494097Y-69066720D02*
X109732192Y-69066720D01*
X109732192Y-69066720D02*
X109827430Y-69019101D01*
X109827430Y-69019101D02*
X109875050Y-68971482D01*
X109875050Y-68971482D02*
X109922669Y-68876244D01*
X109922669Y-68876244D02*
X109922669Y-68638149D01*
X109922669Y-68638149D02*
X109875050Y-68542911D01*
X109875050Y-68542911D02*
X109827430Y-68495292D01*
X108922669Y-69971482D02*
X108922669Y-69495292D01*
X108922669Y-69495292D02*
X109398859Y-69447673D01*
X109398859Y-69447673D02*
X109351240Y-69495292D01*
X109351240Y-69495292D02*
X109303621Y-69590530D01*
X109303621Y-69590530D02*
X109303621Y-69828625D01*
X109303621Y-69828625D02*
X109351240Y-69923863D01*
X109351240Y-69923863D02*
X109398859Y-69971482D01*
X109398859Y-69971482D02*
X109494097Y-70019101D01*
X109494097Y-70019101D02*
X109732192Y-70019101D01*
X109732192Y-70019101D02*
X109827430Y-69971482D01*
X109827430Y-69971482D02*
X109875050Y-69923863D01*
X109875050Y-69923863D02*
X109922669Y-69828625D01*
X109922669Y-69828625D02*
X109922669Y-69590530D01*
X109922669Y-69590530D02*
X109875050Y-69495292D01*
X109875050Y-69495292D02*
X109827430Y-69447673D01*
X109922669Y-143744511D02*
X108922669Y-143744511D01*
X108922669Y-143744511D02*
X108922669Y-143982606D01*
X108922669Y-143982606D02*
X108970288Y-144125463D01*
X108970288Y-144125463D02*
X109065526Y-144220701D01*
X109065526Y-144220701D02*
X109160764Y-144268320D01*
X109160764Y-144268320D02*
X109351240Y-144315939D01*
X109351240Y-144315939D02*
X109494097Y-144315939D01*
X109494097Y-144315939D02*
X109684573Y-144268320D01*
X109684573Y-144268320D02*
X109779811Y-144220701D01*
X109779811Y-144220701D02*
X109875050Y-144125463D01*
X109875050Y-144125463D02*
X109922669Y-143982606D01*
X109922669Y-143982606D02*
X109922669Y-143744511D01*
X108922669Y-145220701D02*
X108922669Y-144744511D01*
X108922669Y-144744511D02*
X109398859Y-144696892D01*
X109398859Y-144696892D02*
X109351240Y-144744511D01*
X109351240Y-144744511D02*
X109303621Y-144839749D01*
X109303621Y-144839749D02*
X109303621Y-145077844D01*
X109303621Y-145077844D02*
X109351240Y-145173082D01*
X109351240Y-145173082D02*
X109398859Y-145220701D01*
X109398859Y-145220701D02*
X109494097Y-145268320D01*
X109494097Y-145268320D02*
X109732192Y-145268320D01*
X109732192Y-145268320D02*
X109827430Y-145220701D01*
X109827430Y-145220701D02*
X109875050Y-145173082D01*
X109875050Y-145173082D02*
X109922669Y-145077844D01*
X109922669Y-145077844D02*
X109922669Y-144839749D01*
X109922669Y-144839749D02*
X109875050Y-144744511D01*
X109875050Y-144744511D02*
X109827430Y-144696892D01*
X109922669Y-145744511D02*
X109922669Y-145934987D01*
X109922669Y-145934987D02*
X109875050Y-146030225D01*
X109875050Y-146030225D02*
X109827430Y-146077844D01*
X109827430Y-146077844D02*
X109684573Y-146173082D01*
X109684573Y-146173082D02*
X109494097Y-146220701D01*
X109494097Y-146220701D02*
X109113145Y-146220701D01*
X109113145Y-146220701D02*
X109017907Y-146173082D01*
X109017907Y-146173082D02*
X108970288Y-146125463D01*
X108970288Y-146125463D02*
X108922669Y-146030225D01*
X108922669Y-146030225D02*
X108922669Y-145839749D01*
X108922669Y-145839749D02*
X108970288Y-145744511D01*
X108970288Y-145744511D02*
X109017907Y-145696892D01*
X109017907Y-145696892D02*
X109113145Y-145649273D01*
X109113145Y-145649273D02*
X109351240Y-145649273D01*
X109351240Y-145649273D02*
X109446478Y-145696892D01*
X109446478Y-145696892D02*
X109494097Y-145744511D01*
X109494097Y-145744511D02*
X109541716Y-145839749D01*
X109541716Y-145839749D02*
X109541716Y-146030225D01*
X109541716Y-146030225D02*
X109494097Y-146125463D01*
X109494097Y-146125463D02*
X109446478Y-146173082D01*
X109446478Y-146173082D02*
X109351240Y-146220701D01*
X257061467Y-67997652D02*
X256061467Y-67997652D01*
X256061467Y-67997652D02*
X256061467Y-68235747D01*
X256061467Y-68235747D02*
X256109086Y-68378604D01*
X256109086Y-68378604D02*
X256204324Y-68473842D01*
X256204324Y-68473842D02*
X256299562Y-68521461D01*
X256299562Y-68521461D02*
X256490038Y-68569080D01*
X256490038Y-68569080D02*
X256632895Y-68569080D01*
X256632895Y-68569080D02*
X256823371Y-68521461D01*
X256823371Y-68521461D02*
X256918609Y-68473842D01*
X256918609Y-68473842D02*
X257013848Y-68378604D01*
X257013848Y-68378604D02*
X257061467Y-68235747D01*
X257061467Y-68235747D02*
X257061467Y-67997652D01*
X256490038Y-69140509D02*
X256442419Y-69045271D01*
X256442419Y-69045271D02*
X256394800Y-68997652D01*
X256394800Y-68997652D02*
X256299562Y-68950033D01*
X256299562Y-68950033D02*
X256251943Y-68950033D01*
X256251943Y-68950033D02*
X256156705Y-68997652D01*
X256156705Y-68997652D02*
X256109086Y-69045271D01*
X256109086Y-69045271D02*
X256061467Y-69140509D01*
X256061467Y-69140509D02*
X256061467Y-69330985D01*
X256061467Y-69330985D02*
X256109086Y-69426223D01*
X256109086Y-69426223D02*
X256156705Y-69473842D01*
X256156705Y-69473842D02*
X256251943Y-69521461D01*
X256251943Y-69521461D02*
X256299562Y-69521461D01*
X256299562Y-69521461D02*
X256394800Y-69473842D01*
X256394800Y-69473842D02*
X256442419Y-69426223D01*
X256442419Y-69426223D02*
X256490038Y-69330985D01*
X256490038Y-69330985D02*
X256490038Y-69140509D01*
X256490038Y-69140509D02*
X256537657Y-69045271D01*
X256537657Y-69045271D02*
X256585276Y-68997652D01*
X256585276Y-68997652D02*
X256680514Y-68950033D01*
X256680514Y-68950033D02*
X256870990Y-68950033D01*
X256870990Y-68950033D02*
X256966228Y-68997652D01*
X256966228Y-68997652D02*
X257013848Y-69045271D01*
X257013848Y-69045271D02*
X257061467Y-69140509D01*
X257061467Y-69140509D02*
X257061467Y-69330985D01*
X257061467Y-69330985D02*
X257013848Y-69426223D01*
X257013848Y-69426223D02*
X256966228Y-69473842D01*
X256966228Y-69473842D02*
X256870990Y-69521461D01*
X256870990Y-69521461D02*
X256680514Y-69521461D01*
X256680514Y-69521461D02*
X256585276Y-69473842D01*
X256585276Y-69473842D02*
X256537657Y-69426223D01*
X256537657Y-69426223D02*
X256490038Y-69330985D01*
X71821869Y-48492511D02*
X70821869Y-48492511D01*
X70821869Y-48492511D02*
X70821869Y-48730606D01*
X70821869Y-48730606D02*
X70869488Y-48873463D01*
X70869488Y-48873463D02*
X70964726Y-48968701D01*
X70964726Y-48968701D02*
X71059964Y-49016320D01*
X71059964Y-49016320D02*
X71250440Y-49063939D01*
X71250440Y-49063939D02*
X71393297Y-49063939D01*
X71393297Y-49063939D02*
X71583773Y-49016320D01*
X71583773Y-49016320D02*
X71679011Y-48968701D01*
X71679011Y-48968701D02*
X71774250Y-48873463D01*
X71774250Y-48873463D02*
X71821869Y-48730606D01*
X71821869Y-48730606D02*
X71821869Y-48492511D01*
X71155202Y-49921082D02*
X71821869Y-49921082D01*
X70774250Y-49682987D02*
X71488535Y-49444892D01*
X71488535Y-49444892D02*
X71488535Y-50063939D01*
X70917107Y-50397273D02*
X70869488Y-50444892D01*
X70869488Y-50444892D02*
X70821869Y-50540130D01*
X70821869Y-50540130D02*
X70821869Y-50778225D01*
X70821869Y-50778225D02*
X70869488Y-50873463D01*
X70869488Y-50873463D02*
X70917107Y-50921082D01*
X70917107Y-50921082D02*
X71012345Y-50968701D01*
X71012345Y-50968701D02*
X71107583Y-50968701D01*
X71107583Y-50968701D02*
X71250440Y-50921082D01*
X71250440Y-50921082D02*
X71821869Y-50349654D01*
X71821869Y-50349654D02*
X71821869Y-50968701D01*
X138356194Y-86593311D02*
X137356194Y-86593311D01*
X137356194Y-86593311D02*
X137356194Y-86831406D01*
X137356194Y-86831406D02*
X137403813Y-86974263D01*
X137403813Y-86974263D02*
X137499051Y-87069501D01*
X137499051Y-87069501D02*
X137594289Y-87117120D01*
X137594289Y-87117120D02*
X137784765Y-87164739D01*
X137784765Y-87164739D02*
X137927622Y-87164739D01*
X137927622Y-87164739D02*
X138118098Y-87117120D01*
X138118098Y-87117120D02*
X138213336Y-87069501D01*
X138213336Y-87069501D02*
X138308575Y-86974263D01*
X138308575Y-86974263D02*
X138356194Y-86831406D01*
X138356194Y-86831406D02*
X138356194Y-86593311D01*
X137356194Y-88021882D02*
X137356194Y-87831406D01*
X137356194Y-87831406D02*
X137403813Y-87736168D01*
X137403813Y-87736168D02*
X137451432Y-87688549D01*
X137451432Y-87688549D02*
X137594289Y-87593311D01*
X137594289Y-87593311D02*
X137784765Y-87545692D01*
X137784765Y-87545692D02*
X138165717Y-87545692D01*
X138165717Y-87545692D02*
X138260955Y-87593311D01*
X138260955Y-87593311D02*
X138308575Y-87640930D01*
X138308575Y-87640930D02*
X138356194Y-87736168D01*
X138356194Y-87736168D02*
X138356194Y-87926644D01*
X138356194Y-87926644D02*
X138308575Y-88021882D01*
X138308575Y-88021882D02*
X138260955Y-88069501D01*
X138260955Y-88069501D02*
X138165717Y-88117120D01*
X138165717Y-88117120D02*
X137927622Y-88117120D01*
X137927622Y-88117120D02*
X137832384Y-88069501D01*
X137832384Y-88069501D02*
X137784765Y-88021882D01*
X137784765Y-88021882D02*
X137737146Y-87926644D01*
X137737146Y-87926644D02*
X137737146Y-87736168D01*
X137737146Y-87736168D02*
X137784765Y-87640930D01*
X137784765Y-87640930D02*
X137832384Y-87593311D01*
X137832384Y-87593311D02*
X137927622Y-87545692D01*
X137784765Y-88688549D02*
X137737146Y-88593311D01*
X137737146Y-88593311D02*
X137689527Y-88545692D01*
X137689527Y-88545692D02*
X137594289Y-88498073D01*
X137594289Y-88498073D02*
X137546670Y-88498073D01*
X137546670Y-88498073D02*
X137451432Y-88545692D01*
X137451432Y-88545692D02*
X137403813Y-88593311D01*
X137403813Y-88593311D02*
X137356194Y-88688549D01*
X137356194Y-88688549D02*
X137356194Y-88879025D01*
X137356194Y-88879025D02*
X137403813Y-88974263D01*
X137403813Y-88974263D02*
X137451432Y-89021882D01*
X137451432Y-89021882D02*
X137546670Y-89069501D01*
X137546670Y-89069501D02*
X137594289Y-89069501D01*
X137594289Y-89069501D02*
X137689527Y-89021882D01*
X137689527Y-89021882D02*
X137737146Y-88974263D01*
X137737146Y-88974263D02*
X137784765Y-88879025D01*
X137784765Y-88879025D02*
X137784765Y-88688549D01*
X137784765Y-88688549D02*
X137832384Y-88593311D01*
X137832384Y-88593311D02*
X137880003Y-88545692D01*
X137880003Y-88545692D02*
X137975241Y-88498073D01*
X137975241Y-88498073D02*
X138165717Y-88498073D01*
X138165717Y-88498073D02*
X138260955Y-88545692D01*
X138260955Y-88545692D02*
X138308575Y-88593311D01*
X138308575Y-88593311D02*
X138356194Y-88688549D01*
X138356194Y-88688549D02*
X138356194Y-88879025D01*
X138356194Y-88879025D02*
X138308575Y-88974263D01*
X138308575Y-88974263D02*
X138260955Y-89021882D01*
X138260955Y-89021882D02*
X138165717Y-89069501D01*
X138165717Y-89069501D02*
X137975241Y-89069501D01*
X137975241Y-89069501D02*
X137880003Y-89021882D01*
X137880003Y-89021882D02*
X137832384Y-88974263D01*
X137832384Y-88974263D02*
X137784765Y-88879025D01*
X51271244Y-143600406D02*
X50271244Y-143600406D01*
X50271244Y-143600406D02*
X50271244Y-143838501D01*
X50271244Y-143838501D02*
X50318863Y-143981358D01*
X50318863Y-143981358D02*
X50414101Y-144076596D01*
X50414101Y-144076596D02*
X50509339Y-144124215D01*
X50509339Y-144124215D02*
X50699815Y-144171834D01*
X50699815Y-144171834D02*
X50842672Y-144171834D01*
X50842672Y-144171834D02*
X51033148Y-144124215D01*
X51033148Y-144124215D02*
X51128386Y-144076596D01*
X51128386Y-144076596D02*
X51223625Y-143981358D01*
X51223625Y-143981358D02*
X51271244Y-143838501D01*
X51271244Y-143838501D02*
X51271244Y-143600406D01*
X50604577Y-145028977D02*
X51271244Y-145028977D01*
X50223625Y-144790882D02*
X50937910Y-144552787D01*
X50937910Y-144552787D02*
X50937910Y-145171834D01*
X50271244Y-145457549D02*
X50271244Y-146124215D01*
X50271244Y-146124215D02*
X51271244Y-145695644D01*
X288018367Y-143723061D02*
X287018367Y-143723061D01*
X287018367Y-143723061D02*
X287018367Y-143961156D01*
X287018367Y-143961156D02*
X287065986Y-144104013D01*
X287065986Y-144104013D02*
X287161224Y-144199251D01*
X287161224Y-144199251D02*
X287256462Y-144246870D01*
X287256462Y-144246870D02*
X287446938Y-144294489D01*
X287446938Y-144294489D02*
X287589795Y-144294489D01*
X287589795Y-144294489D02*
X287780271Y-144246870D01*
X287780271Y-144246870D02*
X287875509Y-144199251D01*
X287875509Y-144199251D02*
X287970748Y-144104013D01*
X287970748Y-144104013D02*
X288018367Y-143961156D01*
X288018367Y-143961156D02*
X288018367Y-143723061D01*
X288018367Y-145246870D02*
X288018367Y-144675442D01*
X288018367Y-144961156D02*
X287018367Y-144961156D01*
X287018367Y-144961156D02*
X287161224Y-144865918D01*
X287161224Y-144865918D02*
X287256462Y-144770680D01*
X287256462Y-144770680D02*
X287304081Y-144675442D01*
X287446938Y-145818299D02*
X287399319Y-145723061D01*
X287399319Y-145723061D02*
X287351700Y-145675442D01*
X287351700Y-145675442D02*
X287256462Y-145627823D01*
X287256462Y-145627823D02*
X287208843Y-145627823D01*
X287208843Y-145627823D02*
X287113605Y-145675442D01*
X287113605Y-145675442D02*
X287065986Y-145723061D01*
X287065986Y-145723061D02*
X287018367Y-145818299D01*
X287018367Y-145818299D02*
X287018367Y-146008775D01*
X287018367Y-146008775D02*
X287065986Y-146104013D01*
X287065986Y-146104013D02*
X287113605Y-146151632D01*
X287113605Y-146151632D02*
X287208843Y-146199251D01*
X287208843Y-146199251D02*
X287256462Y-146199251D01*
X287256462Y-146199251D02*
X287351700Y-146151632D01*
X287351700Y-146151632D02*
X287399319Y-146104013D01*
X287399319Y-146104013D02*
X287446938Y-146008775D01*
X287446938Y-146008775D02*
X287446938Y-145818299D01*
X287446938Y-145818299D02*
X287494557Y-145723061D01*
X287494557Y-145723061D02*
X287542176Y-145675442D01*
X287542176Y-145675442D02*
X287637414Y-145627823D01*
X287637414Y-145627823D02*
X287827890Y-145627823D01*
X287827890Y-145627823D02*
X287923128Y-145675442D01*
X287923128Y-145675442D02*
X287970748Y-145723061D01*
X287970748Y-145723061D02*
X288018367Y-145818299D01*
X288018367Y-145818299D02*
X288018367Y-146008775D01*
X288018367Y-146008775D02*
X287970748Y-146104013D01*
X287970748Y-146104013D02*
X287923128Y-146151632D01*
X287923128Y-146151632D02*
X287827890Y-146199251D01*
X287827890Y-146199251D02*
X287637414Y-146199251D01*
X287637414Y-146199251D02*
X287542176Y-146151632D01*
X287542176Y-146151632D02*
X287494557Y-146104013D01*
X287494557Y-146104013D02*
X287446938Y-146008775D01*
X352313467Y-67521461D02*
X351313467Y-67521461D01*
X351313467Y-67521461D02*
X351313467Y-67759556D01*
X351313467Y-67759556D02*
X351361086Y-67902413D01*
X351361086Y-67902413D02*
X351456324Y-67997651D01*
X351456324Y-67997651D02*
X351551562Y-68045270D01*
X351551562Y-68045270D02*
X351742038Y-68092889D01*
X351742038Y-68092889D02*
X351884895Y-68092889D01*
X351884895Y-68092889D02*
X352075371Y-68045270D01*
X352075371Y-68045270D02*
X352170609Y-67997651D01*
X352170609Y-67997651D02*
X352265848Y-67902413D01*
X352265848Y-67902413D02*
X352313467Y-67759556D01*
X352313467Y-67759556D02*
X352313467Y-67521461D01*
X351313467Y-68426223D02*
X351313467Y-69045270D01*
X351313467Y-69045270D02*
X351694419Y-68711937D01*
X351694419Y-68711937D02*
X351694419Y-68854794D01*
X351694419Y-68854794D02*
X351742038Y-68950032D01*
X351742038Y-68950032D02*
X351789657Y-68997651D01*
X351789657Y-68997651D02*
X351884895Y-69045270D01*
X351884895Y-69045270D02*
X352122990Y-69045270D01*
X352122990Y-69045270D02*
X352218228Y-68997651D01*
X352218228Y-68997651D02*
X352265848Y-68950032D01*
X352265848Y-68950032D02*
X352313467Y-68854794D01*
X352313467Y-68854794D02*
X352313467Y-68569080D01*
X352313467Y-68569080D02*
X352265848Y-68473842D01*
X352265848Y-68473842D02*
X352218228Y-68426223D01*
X351313467Y-69378604D02*
X351313467Y-70045270D01*
X351313467Y-70045270D02*
X352313467Y-69616699D01*
X352313467Y-48471061D02*
X351313467Y-48471061D01*
X351313467Y-48471061D02*
X351313467Y-48709156D01*
X351313467Y-48709156D02*
X351361086Y-48852013D01*
X351361086Y-48852013D02*
X351456324Y-48947251D01*
X351456324Y-48947251D02*
X351551562Y-48994870D01*
X351551562Y-48994870D02*
X351742038Y-49042489D01*
X351742038Y-49042489D02*
X351884895Y-49042489D01*
X351884895Y-49042489D02*
X352075371Y-48994870D01*
X352075371Y-48994870D02*
X352170609Y-48947251D01*
X352170609Y-48947251D02*
X352265848Y-48852013D01*
X352265848Y-48852013D02*
X352313467Y-48709156D01*
X352313467Y-48709156D02*
X352313467Y-48471061D01*
X351313467Y-49375823D02*
X351313467Y-49994870D01*
X351313467Y-49994870D02*
X351694419Y-49661537D01*
X351694419Y-49661537D02*
X351694419Y-49804394D01*
X351694419Y-49804394D02*
X351742038Y-49899632D01*
X351742038Y-49899632D02*
X351789657Y-49947251D01*
X351789657Y-49947251D02*
X351884895Y-49994870D01*
X351884895Y-49994870D02*
X352122990Y-49994870D01*
X352122990Y-49994870D02*
X352218228Y-49947251D01*
X352218228Y-49947251D02*
X352265848Y-49899632D01*
X352265848Y-49899632D02*
X352313467Y-49804394D01*
X352313467Y-49804394D02*
X352313467Y-49518680D01*
X352313467Y-49518680D02*
X352265848Y-49423442D01*
X352265848Y-49423442D02*
X352218228Y-49375823D01*
X351313467Y-50852013D02*
X351313467Y-50661537D01*
X351313467Y-50661537D02*
X351361086Y-50566299D01*
X351361086Y-50566299D02*
X351408705Y-50518680D01*
X351408705Y-50518680D02*
X351551562Y-50423442D01*
X351551562Y-50423442D02*
X351742038Y-50375823D01*
X351742038Y-50375823D02*
X352122990Y-50375823D01*
X352122990Y-50375823D02*
X352218228Y-50423442D01*
X352218228Y-50423442D02*
X352265848Y-50471061D01*
X352265848Y-50471061D02*
X352313467Y-50566299D01*
X352313467Y-50566299D02*
X352313467Y-50756775D01*
X352313467Y-50756775D02*
X352265848Y-50852013D01*
X352265848Y-50852013D02*
X352218228Y-50899632D01*
X352218228Y-50899632D02*
X352122990Y-50947251D01*
X352122990Y-50947251D02*
X351884895Y-50947251D01*
X351884895Y-50947251D02*
X351789657Y-50899632D01*
X351789657Y-50899632D02*
X351742038Y-50852013D01*
X351742038Y-50852013D02*
X351694419Y-50756775D01*
X351694419Y-50756775D02*
X351694419Y-50566299D01*
X351694419Y-50566299D02*
X351742038Y-50471061D01*
X351742038Y-50471061D02*
X351789657Y-50423442D01*
X351789657Y-50423442D02*
X351884895Y-50375823D01*
X299924867Y-124672661D02*
X298924867Y-124672661D01*
X298924867Y-124672661D02*
X298924867Y-124910756D01*
X298924867Y-124910756D02*
X298972486Y-125053613D01*
X298972486Y-125053613D02*
X299067724Y-125148851D01*
X299067724Y-125148851D02*
X299162962Y-125196470D01*
X299162962Y-125196470D02*
X299353438Y-125244089D01*
X299353438Y-125244089D02*
X299496295Y-125244089D01*
X299496295Y-125244089D02*
X299686771Y-125196470D01*
X299686771Y-125196470D02*
X299782009Y-125148851D01*
X299782009Y-125148851D02*
X299877248Y-125053613D01*
X299877248Y-125053613D02*
X299924867Y-124910756D01*
X299924867Y-124910756D02*
X299924867Y-124672661D01*
X299924867Y-126196470D02*
X299924867Y-125625042D01*
X299924867Y-125910756D02*
X298924867Y-125910756D01*
X298924867Y-125910756D02*
X299067724Y-125815518D01*
X299067724Y-125815518D02*
X299162962Y-125720280D01*
X299162962Y-125720280D02*
X299210581Y-125625042D01*
X298924867Y-126529804D02*
X298924867Y-127196470D01*
X298924867Y-127196470D02*
X299924867Y-126767899D01*
X245154967Y-106098452D02*
X244154967Y-106098452D01*
X244154967Y-106098452D02*
X244154967Y-106336547D01*
X244154967Y-106336547D02*
X244202586Y-106479404D01*
X244202586Y-106479404D02*
X244297824Y-106574642D01*
X244297824Y-106574642D02*
X244393062Y-106622261D01*
X244393062Y-106622261D02*
X244583538Y-106669880D01*
X244583538Y-106669880D02*
X244726395Y-106669880D01*
X244726395Y-106669880D02*
X244916871Y-106622261D01*
X244916871Y-106622261D02*
X245012109Y-106574642D01*
X245012109Y-106574642D02*
X245107348Y-106479404D01*
X245107348Y-106479404D02*
X245154967Y-106336547D01*
X245154967Y-106336547D02*
X245154967Y-106098452D01*
X244488300Y-107527023D02*
X245154967Y-107527023D01*
X244107348Y-107288928D02*
X244821633Y-107050833D01*
X244821633Y-107050833D02*
X244821633Y-107669880D01*
X81347069Y-143744511D02*
X80347069Y-143744511D01*
X80347069Y-143744511D02*
X80347069Y-143982606D01*
X80347069Y-143982606D02*
X80394688Y-144125463D01*
X80394688Y-144125463D02*
X80489926Y-144220701D01*
X80489926Y-144220701D02*
X80585164Y-144268320D01*
X80585164Y-144268320D02*
X80775640Y-144315939D01*
X80775640Y-144315939D02*
X80918497Y-144315939D01*
X80918497Y-144315939D02*
X81108973Y-144268320D01*
X81108973Y-144268320D02*
X81204211Y-144220701D01*
X81204211Y-144220701D02*
X81299450Y-144125463D01*
X81299450Y-144125463D02*
X81347069Y-143982606D01*
X81347069Y-143982606D02*
X81347069Y-143744511D01*
X80347069Y-145220701D02*
X80347069Y-144744511D01*
X80347069Y-144744511D02*
X80823259Y-144696892D01*
X80823259Y-144696892D02*
X80775640Y-144744511D01*
X80775640Y-144744511D02*
X80728021Y-144839749D01*
X80728021Y-144839749D02*
X80728021Y-145077844D01*
X80728021Y-145077844D02*
X80775640Y-145173082D01*
X80775640Y-145173082D02*
X80823259Y-145220701D01*
X80823259Y-145220701D02*
X80918497Y-145268320D01*
X80918497Y-145268320D02*
X81156592Y-145268320D01*
X81156592Y-145268320D02*
X81251830Y-145220701D01*
X81251830Y-145220701D02*
X81299450Y-145173082D01*
X81299450Y-145173082D02*
X81347069Y-145077844D01*
X81347069Y-145077844D02*
X81347069Y-144839749D01*
X81347069Y-144839749D02*
X81299450Y-144744511D01*
X81299450Y-144744511D02*
X81251830Y-144696892D01*
X80347069Y-145601654D02*
X80347069Y-146220701D01*
X80347069Y-146220701D02*
X80728021Y-145887368D01*
X80728021Y-145887368D02*
X80728021Y-146030225D01*
X80728021Y-146030225D02*
X80775640Y-146125463D01*
X80775640Y-146125463D02*
X80823259Y-146173082D01*
X80823259Y-146173082D02*
X80918497Y-146220701D01*
X80918497Y-146220701D02*
X81156592Y-146220701D01*
X81156592Y-146220701D02*
X81251830Y-146173082D01*
X81251830Y-146173082D02*
X81299450Y-146125463D01*
X81299450Y-146125463D02*
X81347069Y-146030225D01*
X81347069Y-146030225D02*
X81347069Y-145744511D01*
X81347069Y-145744511D02*
X81299450Y-145649273D01*
X81299450Y-145649273D02*
X81251830Y-145601654D01*
X114543194Y-124694111D02*
X113543194Y-124694111D01*
X113543194Y-124694111D02*
X113543194Y-124932206D01*
X113543194Y-124932206D02*
X113590813Y-125075063D01*
X113590813Y-125075063D02*
X113686051Y-125170301D01*
X113686051Y-125170301D02*
X113781289Y-125217920D01*
X113781289Y-125217920D02*
X113971765Y-125265539D01*
X113971765Y-125265539D02*
X114114622Y-125265539D01*
X114114622Y-125265539D02*
X114305098Y-125217920D01*
X114305098Y-125217920D02*
X114400336Y-125170301D01*
X114400336Y-125170301D02*
X114495575Y-125075063D01*
X114495575Y-125075063D02*
X114543194Y-124932206D01*
X114543194Y-124932206D02*
X114543194Y-124694111D01*
X113543194Y-126122682D02*
X113543194Y-125932206D01*
X113543194Y-125932206D02*
X113590813Y-125836968D01*
X113590813Y-125836968D02*
X113638432Y-125789349D01*
X113638432Y-125789349D02*
X113781289Y-125694111D01*
X113781289Y-125694111D02*
X113971765Y-125646492D01*
X113971765Y-125646492D02*
X114352717Y-125646492D01*
X114352717Y-125646492D02*
X114447955Y-125694111D01*
X114447955Y-125694111D02*
X114495575Y-125741730D01*
X114495575Y-125741730D02*
X114543194Y-125836968D01*
X114543194Y-125836968D02*
X114543194Y-126027444D01*
X114543194Y-126027444D02*
X114495575Y-126122682D01*
X114495575Y-126122682D02*
X114447955Y-126170301D01*
X114447955Y-126170301D02*
X114352717Y-126217920D01*
X114352717Y-126217920D02*
X114114622Y-126217920D01*
X114114622Y-126217920D02*
X114019384Y-126170301D01*
X114019384Y-126170301D02*
X113971765Y-126122682D01*
X113971765Y-126122682D02*
X113924146Y-126027444D01*
X113924146Y-126027444D02*
X113924146Y-125836968D01*
X113924146Y-125836968D02*
X113971765Y-125741730D01*
X113971765Y-125741730D02*
X114019384Y-125694111D01*
X114019384Y-125694111D02*
X114114622Y-125646492D01*
X113876527Y-127075063D02*
X114543194Y-127075063D01*
X113495575Y-126836968D02*
X114209860Y-126598873D01*
X114209860Y-126598873D02*
X114209860Y-127217920D01*
X128830994Y-67542911D02*
X127830994Y-67542911D01*
X127830994Y-67542911D02*
X127830994Y-67781006D01*
X127830994Y-67781006D02*
X127878613Y-67923863D01*
X127878613Y-67923863D02*
X127973851Y-68019101D01*
X127973851Y-68019101D02*
X128069089Y-68066720D01*
X128069089Y-68066720D02*
X128259565Y-68114339D01*
X128259565Y-68114339D02*
X128402422Y-68114339D01*
X128402422Y-68114339D02*
X128592898Y-68066720D01*
X128592898Y-68066720D02*
X128688136Y-68019101D01*
X128688136Y-68019101D02*
X128783375Y-67923863D01*
X128783375Y-67923863D02*
X128830994Y-67781006D01*
X128830994Y-67781006D02*
X128830994Y-67542911D01*
X127830994Y-68971482D02*
X127830994Y-68781006D01*
X127830994Y-68781006D02*
X127878613Y-68685768D01*
X127878613Y-68685768D02*
X127926232Y-68638149D01*
X127926232Y-68638149D02*
X128069089Y-68542911D01*
X128069089Y-68542911D02*
X128259565Y-68495292D01*
X128259565Y-68495292D02*
X128640517Y-68495292D01*
X128640517Y-68495292D02*
X128735755Y-68542911D01*
X128735755Y-68542911D02*
X128783375Y-68590530D01*
X128783375Y-68590530D02*
X128830994Y-68685768D01*
X128830994Y-68685768D02*
X128830994Y-68876244D01*
X128830994Y-68876244D02*
X128783375Y-68971482D01*
X128783375Y-68971482D02*
X128735755Y-69019101D01*
X128735755Y-69019101D02*
X128640517Y-69066720D01*
X128640517Y-69066720D02*
X128402422Y-69066720D01*
X128402422Y-69066720D02*
X128307184Y-69019101D01*
X128307184Y-69019101D02*
X128259565Y-68971482D01*
X128259565Y-68971482D02*
X128211946Y-68876244D01*
X128211946Y-68876244D02*
X128211946Y-68685768D01*
X128211946Y-68685768D02*
X128259565Y-68590530D01*
X128259565Y-68590530D02*
X128307184Y-68542911D01*
X128307184Y-68542911D02*
X128402422Y-68495292D01*
X128830994Y-70019101D02*
X128830994Y-69447673D01*
X128830994Y-69733387D02*
X127830994Y-69733387D01*
X127830994Y-69733387D02*
X127973851Y-69638149D01*
X127973851Y-69638149D02*
X128069089Y-69542911D01*
X128069089Y-69542911D02*
X128116708Y-69447673D01*
X205032594Y-143880486D02*
X204032594Y-143880486D01*
X204032594Y-143880486D02*
X204032594Y-144118581D01*
X204032594Y-144118581D02*
X204080213Y-144261438D01*
X204080213Y-144261438D02*
X204175451Y-144356676D01*
X204175451Y-144356676D02*
X204270689Y-144404295D01*
X204270689Y-144404295D02*
X204461165Y-144451914D01*
X204461165Y-144451914D02*
X204604022Y-144451914D01*
X204604022Y-144451914D02*
X204794498Y-144404295D01*
X204794498Y-144404295D02*
X204889736Y-144356676D01*
X204889736Y-144356676D02*
X204984975Y-144261438D01*
X204984975Y-144261438D02*
X205032594Y-144118581D01*
X205032594Y-144118581D02*
X205032594Y-143880486D01*
X204461165Y-145023343D02*
X204413546Y-144928105D01*
X204413546Y-144928105D02*
X204365927Y-144880486D01*
X204365927Y-144880486D02*
X204270689Y-144832867D01*
X204270689Y-144832867D02*
X204223070Y-144832867D01*
X204223070Y-144832867D02*
X204127832Y-144880486D01*
X204127832Y-144880486D02*
X204080213Y-144928105D01*
X204080213Y-144928105D02*
X204032594Y-145023343D01*
X204032594Y-145023343D02*
X204032594Y-145213819D01*
X204032594Y-145213819D02*
X204080213Y-145309057D01*
X204080213Y-145309057D02*
X204127832Y-145356676D01*
X204127832Y-145356676D02*
X204223070Y-145404295D01*
X204223070Y-145404295D02*
X204270689Y-145404295D01*
X204270689Y-145404295D02*
X204365927Y-145356676D01*
X204365927Y-145356676D02*
X204413546Y-145309057D01*
X204413546Y-145309057D02*
X204461165Y-145213819D01*
X204461165Y-145213819D02*
X204461165Y-145023343D01*
X204461165Y-145023343D02*
X204508784Y-144928105D01*
X204508784Y-144928105D02*
X204556403Y-144880486D01*
X204556403Y-144880486D02*
X204651641Y-144832867D01*
X204651641Y-144832867D02*
X204842117Y-144832867D01*
X204842117Y-144832867D02*
X204937355Y-144880486D01*
X204937355Y-144880486D02*
X204984975Y-144928105D01*
X204984975Y-144928105D02*
X205032594Y-145023343D01*
X205032594Y-145023343D02*
X205032594Y-145213819D01*
X205032594Y-145213819D02*
X204984975Y-145309057D01*
X204984975Y-145309057D02*
X204937355Y-145356676D01*
X204937355Y-145356676D02*
X204842117Y-145404295D01*
X204842117Y-145404295D02*
X204651641Y-145404295D01*
X204651641Y-145404295D02*
X204556403Y-145356676D01*
X204556403Y-145356676D02*
X204508784Y-145309057D01*
X204508784Y-145309057D02*
X204461165Y-145213819D01*
X204461165Y-145975724D02*
X204413546Y-145880486D01*
X204413546Y-145880486D02*
X204365927Y-145832867D01*
X204365927Y-145832867D02*
X204270689Y-145785248D01*
X204270689Y-145785248D02*
X204223070Y-145785248D01*
X204223070Y-145785248D02*
X204127832Y-145832867D01*
X204127832Y-145832867D02*
X204080213Y-145880486D01*
X204080213Y-145880486D02*
X204032594Y-145975724D01*
X204032594Y-145975724D02*
X204032594Y-146166200D01*
X204032594Y-146166200D02*
X204080213Y-146261438D01*
X204080213Y-146261438D02*
X204127832Y-146309057D01*
X204127832Y-146309057D02*
X204223070Y-146356676D01*
X204223070Y-146356676D02*
X204270689Y-146356676D01*
X204270689Y-146356676D02*
X204365927Y-146309057D01*
X204365927Y-146309057D02*
X204413546Y-146261438D01*
X204413546Y-146261438D02*
X204461165Y-146166200D01*
X204461165Y-146166200D02*
X204461165Y-145975724D01*
X204461165Y-145975724D02*
X204508784Y-145880486D01*
X204508784Y-145880486D02*
X204556403Y-145832867D01*
X204556403Y-145832867D02*
X204651641Y-145785248D01*
X204651641Y-145785248D02*
X204842117Y-145785248D01*
X204842117Y-145785248D02*
X204937355Y-145832867D01*
X204937355Y-145832867D02*
X204984975Y-145880486D01*
X204984975Y-145880486D02*
X205032594Y-145975724D01*
X205032594Y-145975724D02*
X205032594Y-146166200D01*
X205032594Y-146166200D02*
X204984975Y-146261438D01*
X204984975Y-146261438D02*
X204937355Y-146309057D01*
X204937355Y-146309057D02*
X204842117Y-146356676D01*
X204842117Y-146356676D02*
X204651641Y-146356676D01*
X204651641Y-146356676D02*
X204556403Y-146309057D01*
X204556403Y-146309057D02*
X204508784Y-146261438D01*
X204508784Y-146261438D02*
X204461165Y-146166200D01*
X371363867Y-48471061D02*
X370363867Y-48471061D01*
X370363867Y-48471061D02*
X370363867Y-48709156D01*
X370363867Y-48709156D02*
X370411486Y-48852013D01*
X370411486Y-48852013D02*
X370506724Y-48947251D01*
X370506724Y-48947251D02*
X370601962Y-48994870D01*
X370601962Y-48994870D02*
X370792438Y-49042489D01*
X370792438Y-49042489D02*
X370935295Y-49042489D01*
X370935295Y-49042489D02*
X371125771Y-48994870D01*
X371125771Y-48994870D02*
X371221009Y-48947251D01*
X371221009Y-48947251D02*
X371316248Y-48852013D01*
X371316248Y-48852013D02*
X371363867Y-48709156D01*
X371363867Y-48709156D02*
X371363867Y-48471061D01*
X370697200Y-49899632D02*
X371363867Y-49899632D01*
X370316248Y-49661537D02*
X371030533Y-49423442D01*
X371030533Y-49423442D02*
X371030533Y-50042489D01*
X370363867Y-50613918D02*
X370363867Y-50709156D01*
X370363867Y-50709156D02*
X370411486Y-50804394D01*
X370411486Y-50804394D02*
X370459105Y-50852013D01*
X370459105Y-50852013D02*
X370554343Y-50899632D01*
X370554343Y-50899632D02*
X370744819Y-50947251D01*
X370744819Y-50947251D02*
X370982914Y-50947251D01*
X370982914Y-50947251D02*
X371173390Y-50899632D01*
X371173390Y-50899632D02*
X371268628Y-50852013D01*
X371268628Y-50852013D02*
X371316248Y-50804394D01*
X371316248Y-50804394D02*
X371363867Y-50709156D01*
X371363867Y-50709156D02*
X371363867Y-50613918D01*
X371363867Y-50613918D02*
X371316248Y-50518680D01*
X371316248Y-50518680D02*
X371268628Y-50471061D01*
X371268628Y-50471061D02*
X371173390Y-50423442D01*
X371173390Y-50423442D02*
X370982914Y-50375823D01*
X370982914Y-50375823D02*
X370744819Y-50375823D01*
X370744819Y-50375823D02*
X370554343Y-50423442D01*
X370554343Y-50423442D02*
X370459105Y-50471061D01*
X370459105Y-50471061D02*
X370411486Y-50518680D01*
X370411486Y-50518680D02*
X370363867Y-50613918D01*
X128973069Y-48492511D02*
X127973069Y-48492511D01*
X127973069Y-48492511D02*
X127973069Y-48730606D01*
X127973069Y-48730606D02*
X128020688Y-48873463D01*
X128020688Y-48873463D02*
X128115926Y-48968701D01*
X128115926Y-48968701D02*
X128211164Y-49016320D01*
X128211164Y-49016320D02*
X128401640Y-49063939D01*
X128401640Y-49063939D02*
X128544497Y-49063939D01*
X128544497Y-49063939D02*
X128734973Y-49016320D01*
X128734973Y-49016320D02*
X128830211Y-48968701D01*
X128830211Y-48968701D02*
X128925450Y-48873463D01*
X128925450Y-48873463D02*
X128973069Y-48730606D01*
X128973069Y-48730606D02*
X128973069Y-48492511D01*
X127973069Y-49921082D02*
X127973069Y-49730606D01*
X127973069Y-49730606D02*
X128020688Y-49635368D01*
X128020688Y-49635368D02*
X128068307Y-49587749D01*
X128068307Y-49587749D02*
X128211164Y-49492511D01*
X128211164Y-49492511D02*
X128401640Y-49444892D01*
X128401640Y-49444892D02*
X128782592Y-49444892D01*
X128782592Y-49444892D02*
X128877830Y-49492511D01*
X128877830Y-49492511D02*
X128925450Y-49540130D01*
X128925450Y-49540130D02*
X128973069Y-49635368D01*
X128973069Y-49635368D02*
X128973069Y-49825844D01*
X128973069Y-49825844D02*
X128925450Y-49921082D01*
X128925450Y-49921082D02*
X128877830Y-49968701D01*
X128877830Y-49968701D02*
X128782592Y-50016320D01*
X128782592Y-50016320D02*
X128544497Y-50016320D01*
X128544497Y-50016320D02*
X128449259Y-49968701D01*
X128449259Y-49968701D02*
X128401640Y-49921082D01*
X128401640Y-49921082D02*
X128354021Y-49825844D01*
X128354021Y-49825844D02*
X128354021Y-49635368D01*
X128354021Y-49635368D02*
X128401640Y-49540130D01*
X128401640Y-49540130D02*
X128449259Y-49492511D01*
X128449259Y-49492511D02*
X128544497Y-49444892D01*
X127973069Y-50635368D02*
X127973069Y-50730606D01*
X127973069Y-50730606D02*
X128020688Y-50825844D01*
X128020688Y-50825844D02*
X128068307Y-50873463D01*
X128068307Y-50873463D02*
X128163545Y-50921082D01*
X128163545Y-50921082D02*
X128354021Y-50968701D01*
X128354021Y-50968701D02*
X128592116Y-50968701D01*
X128592116Y-50968701D02*
X128782592Y-50921082D01*
X128782592Y-50921082D02*
X128877830Y-50873463D01*
X128877830Y-50873463D02*
X128925450Y-50825844D01*
X128925450Y-50825844D02*
X128973069Y-50730606D01*
X128973069Y-50730606D02*
X128973069Y-50635368D01*
X128973069Y-50635368D02*
X128925450Y-50540130D01*
X128925450Y-50540130D02*
X128877830Y-50492511D01*
X128877830Y-50492511D02*
X128782592Y-50444892D01*
X128782592Y-50444892D02*
X128592116Y-50397273D01*
X128592116Y-50397273D02*
X128354021Y-50397273D01*
X128354021Y-50397273D02*
X128163545Y-50444892D01*
X128163545Y-50444892D02*
X128068307Y-50492511D01*
X128068307Y-50492511D02*
X128020688Y-50540130D01*
X128020688Y-50540130D02*
X127973069Y-50635368D01*
X166931794Y-48492511D02*
X165931794Y-48492511D01*
X165931794Y-48492511D02*
X165931794Y-48730606D01*
X165931794Y-48730606D02*
X165979413Y-48873463D01*
X165979413Y-48873463D02*
X166074651Y-48968701D01*
X166074651Y-48968701D02*
X166169889Y-49016320D01*
X166169889Y-49016320D02*
X166360365Y-49063939D01*
X166360365Y-49063939D02*
X166503222Y-49063939D01*
X166503222Y-49063939D02*
X166693698Y-49016320D01*
X166693698Y-49016320D02*
X166788936Y-48968701D01*
X166788936Y-48968701D02*
X166884175Y-48873463D01*
X166884175Y-48873463D02*
X166931794Y-48730606D01*
X166931794Y-48730606D02*
X166931794Y-48492511D01*
X165931794Y-49397273D02*
X165931794Y-50063939D01*
X165931794Y-50063939D02*
X166931794Y-49635368D01*
X166027032Y-50397273D02*
X165979413Y-50444892D01*
X165979413Y-50444892D02*
X165931794Y-50540130D01*
X165931794Y-50540130D02*
X165931794Y-50778225D01*
X165931794Y-50778225D02*
X165979413Y-50873463D01*
X165979413Y-50873463D02*
X166027032Y-50921082D01*
X166027032Y-50921082D02*
X166122270Y-50968701D01*
X166122270Y-50968701D02*
X166217508Y-50968701D01*
X166217508Y-50968701D02*
X166360365Y-50921082D01*
X166360365Y-50921082D02*
X166931794Y-50349654D01*
X166931794Y-50349654D02*
X166931794Y-50968701D01*
X323737867Y-86571861D02*
X322737867Y-86571861D01*
X322737867Y-86571861D02*
X322737867Y-86809956D01*
X322737867Y-86809956D02*
X322785486Y-86952813D01*
X322785486Y-86952813D02*
X322880724Y-87048051D01*
X322880724Y-87048051D02*
X322975962Y-87095670D01*
X322975962Y-87095670D02*
X323166438Y-87143289D01*
X323166438Y-87143289D02*
X323309295Y-87143289D01*
X323309295Y-87143289D02*
X323499771Y-87095670D01*
X323499771Y-87095670D02*
X323595009Y-87048051D01*
X323595009Y-87048051D02*
X323690248Y-86952813D01*
X323690248Y-86952813D02*
X323737867Y-86809956D01*
X323737867Y-86809956D02*
X323737867Y-86571861D01*
X322833105Y-87524242D02*
X322785486Y-87571861D01*
X322785486Y-87571861D02*
X322737867Y-87667099D01*
X322737867Y-87667099D02*
X322737867Y-87905194D01*
X322737867Y-87905194D02*
X322785486Y-88000432D01*
X322785486Y-88000432D02*
X322833105Y-88048051D01*
X322833105Y-88048051D02*
X322928343Y-88095670D01*
X322928343Y-88095670D02*
X323023581Y-88095670D01*
X323023581Y-88095670D02*
X323166438Y-88048051D01*
X323166438Y-88048051D02*
X323737867Y-87476623D01*
X323737867Y-87476623D02*
X323737867Y-88095670D01*
X322737867Y-88429004D02*
X322737867Y-89095670D01*
X322737867Y-89095670D02*
X323737867Y-88667099D01*
X295162267Y-48471061D02*
X294162267Y-48471061D01*
X294162267Y-48471061D02*
X294162267Y-48709156D01*
X294162267Y-48709156D02*
X294209886Y-48852013D01*
X294209886Y-48852013D02*
X294305124Y-48947251D01*
X294305124Y-48947251D02*
X294400362Y-48994870D01*
X294400362Y-48994870D02*
X294590838Y-49042489D01*
X294590838Y-49042489D02*
X294733695Y-49042489D01*
X294733695Y-49042489D02*
X294924171Y-48994870D01*
X294924171Y-48994870D02*
X295019409Y-48947251D01*
X295019409Y-48947251D02*
X295114648Y-48852013D01*
X295114648Y-48852013D02*
X295162267Y-48709156D01*
X295162267Y-48709156D02*
X295162267Y-48471061D01*
X295162267Y-49994870D02*
X295162267Y-49423442D01*
X295162267Y-49709156D02*
X294162267Y-49709156D01*
X294162267Y-49709156D02*
X294305124Y-49613918D01*
X294305124Y-49613918D02*
X294400362Y-49518680D01*
X294400362Y-49518680D02*
X294447981Y-49423442D01*
X295162267Y-50471061D02*
X295162267Y-50661537D01*
X295162267Y-50661537D02*
X295114648Y-50756775D01*
X295114648Y-50756775D02*
X295067028Y-50804394D01*
X295067028Y-50804394D02*
X294924171Y-50899632D01*
X294924171Y-50899632D02*
X294733695Y-50947251D01*
X294733695Y-50947251D02*
X294352743Y-50947251D01*
X294352743Y-50947251D02*
X294257505Y-50899632D01*
X294257505Y-50899632D02*
X294209886Y-50852013D01*
X294209886Y-50852013D02*
X294162267Y-50756775D01*
X294162267Y-50756775D02*
X294162267Y-50566299D01*
X294162267Y-50566299D02*
X294209886Y-50471061D01*
X294209886Y-50471061D02*
X294257505Y-50423442D01*
X294257505Y-50423442D02*
X294352743Y-50375823D01*
X294352743Y-50375823D02*
X294590838Y-50375823D01*
X294590838Y-50375823D02*
X294686076Y-50423442D01*
X294686076Y-50423442D02*
X294733695Y-50471061D01*
X294733695Y-50471061D02*
X294781314Y-50566299D01*
X294781314Y-50566299D02*
X294781314Y-50756775D01*
X294781314Y-50756775D02*
X294733695Y-50852013D01*
X294733695Y-50852013D02*
X294686076Y-50899632D01*
X294686076Y-50899632D02*
X294590838Y-50947251D01*
X67059269Y-105507736D02*
X66059269Y-105507736D01*
X66059269Y-105507736D02*
X66059269Y-105745831D01*
X66059269Y-105745831D02*
X66106888Y-105888688D01*
X66106888Y-105888688D02*
X66202126Y-105983926D01*
X66202126Y-105983926D02*
X66297364Y-106031545D01*
X66297364Y-106031545D02*
X66487840Y-106079164D01*
X66487840Y-106079164D02*
X66630697Y-106079164D01*
X66630697Y-106079164D02*
X66821173Y-106031545D01*
X66821173Y-106031545D02*
X66916411Y-105983926D01*
X66916411Y-105983926D02*
X67011650Y-105888688D01*
X67011650Y-105888688D02*
X67059269Y-105745831D01*
X67059269Y-105745831D02*
X67059269Y-105507736D01*
X66392602Y-106936307D02*
X67059269Y-106936307D01*
X66011650Y-106698212D02*
X66725935Y-106460117D01*
X66725935Y-106460117D02*
X66725935Y-107079164D01*
X66059269Y-107936307D02*
X66059269Y-107460117D01*
X66059269Y-107460117D02*
X66535459Y-107412498D01*
X66535459Y-107412498D02*
X66487840Y-107460117D01*
X66487840Y-107460117D02*
X66440221Y-107555355D01*
X66440221Y-107555355D02*
X66440221Y-107793450D01*
X66440221Y-107793450D02*
X66487840Y-107888688D01*
X66487840Y-107888688D02*
X66535459Y-107936307D01*
X66535459Y-107936307D02*
X66630697Y-107983926D01*
X66630697Y-107983926D02*
X66868792Y-107983926D01*
X66868792Y-107983926D02*
X66964030Y-107936307D01*
X66964030Y-107936307D02*
X67011650Y-107888688D01*
X67011650Y-107888688D02*
X67059269Y-107793450D01*
X67059269Y-107793450D02*
X67059269Y-107555355D01*
X67059269Y-107555355D02*
X67011650Y-107460117D01*
X67011650Y-107460117D02*
X66964030Y-107412498D01*
X105160069Y-105643711D02*
X104160069Y-105643711D01*
X104160069Y-105643711D02*
X104160069Y-105881806D01*
X104160069Y-105881806D02*
X104207688Y-106024663D01*
X104207688Y-106024663D02*
X104302926Y-106119901D01*
X104302926Y-106119901D02*
X104398164Y-106167520D01*
X104398164Y-106167520D02*
X104588640Y-106215139D01*
X104588640Y-106215139D02*
X104731497Y-106215139D01*
X104731497Y-106215139D02*
X104921973Y-106167520D01*
X104921973Y-106167520D02*
X105017211Y-106119901D01*
X105017211Y-106119901D02*
X105112450Y-106024663D01*
X105112450Y-106024663D02*
X105160069Y-105881806D01*
X105160069Y-105881806D02*
X105160069Y-105643711D01*
X104160069Y-107119901D02*
X104160069Y-106643711D01*
X104160069Y-106643711D02*
X104636259Y-106596092D01*
X104636259Y-106596092D02*
X104588640Y-106643711D01*
X104588640Y-106643711D02*
X104541021Y-106738949D01*
X104541021Y-106738949D02*
X104541021Y-106977044D01*
X104541021Y-106977044D02*
X104588640Y-107072282D01*
X104588640Y-107072282D02*
X104636259Y-107119901D01*
X104636259Y-107119901D02*
X104731497Y-107167520D01*
X104731497Y-107167520D02*
X104969592Y-107167520D01*
X104969592Y-107167520D02*
X105064830Y-107119901D01*
X105064830Y-107119901D02*
X105112450Y-107072282D01*
X105112450Y-107072282D02*
X105160069Y-106977044D01*
X105160069Y-106977044D02*
X105160069Y-106738949D01*
X105160069Y-106738949D02*
X105112450Y-106643711D01*
X105112450Y-106643711D02*
X105064830Y-106596092D01*
X104160069Y-107500854D02*
X104160069Y-108167520D01*
X104160069Y-108167520D02*
X105160069Y-107738949D01*
X264205367Y-143723061D02*
X263205367Y-143723061D01*
X263205367Y-143723061D02*
X263205367Y-143961156D01*
X263205367Y-143961156D02*
X263252986Y-144104013D01*
X263252986Y-144104013D02*
X263348224Y-144199251D01*
X263348224Y-144199251D02*
X263443462Y-144246870D01*
X263443462Y-144246870D02*
X263633938Y-144294489D01*
X263633938Y-144294489D02*
X263776795Y-144294489D01*
X263776795Y-144294489D02*
X263967271Y-144246870D01*
X263967271Y-144246870D02*
X264062509Y-144199251D01*
X264062509Y-144199251D02*
X264157748Y-144104013D01*
X264157748Y-144104013D02*
X264205367Y-143961156D01*
X264205367Y-143961156D02*
X264205367Y-143723061D01*
X264205367Y-145246870D02*
X264205367Y-144675442D01*
X264205367Y-144961156D02*
X263205367Y-144961156D01*
X263205367Y-144961156D02*
X263348224Y-144865918D01*
X263348224Y-144865918D02*
X263443462Y-144770680D01*
X263443462Y-144770680D02*
X263491081Y-144675442D01*
X263300605Y-145627823D02*
X263252986Y-145675442D01*
X263252986Y-145675442D02*
X263205367Y-145770680D01*
X263205367Y-145770680D02*
X263205367Y-146008775D01*
X263205367Y-146008775D02*
X263252986Y-146104013D01*
X263252986Y-146104013D02*
X263300605Y-146151632D01*
X263300605Y-146151632D02*
X263395843Y-146199251D01*
X263395843Y-146199251D02*
X263491081Y-146199251D01*
X263491081Y-146199251D02*
X263633938Y-146151632D01*
X263633938Y-146151632D02*
X264205367Y-145580204D01*
X264205367Y-145580204D02*
X264205367Y-146199251D01*
X81347069Y-86593311D02*
X80347069Y-86593311D01*
X80347069Y-86593311D02*
X80347069Y-86831406D01*
X80347069Y-86831406D02*
X80394688Y-86974263D01*
X80394688Y-86974263D02*
X80489926Y-87069501D01*
X80489926Y-87069501D02*
X80585164Y-87117120D01*
X80585164Y-87117120D02*
X80775640Y-87164739D01*
X80775640Y-87164739D02*
X80918497Y-87164739D01*
X80918497Y-87164739D02*
X81108973Y-87117120D01*
X81108973Y-87117120D02*
X81204211Y-87069501D01*
X81204211Y-87069501D02*
X81299450Y-86974263D01*
X81299450Y-86974263D02*
X81347069Y-86831406D01*
X81347069Y-86831406D02*
X81347069Y-86593311D01*
X80347069Y-88069501D02*
X80347069Y-87593311D01*
X80347069Y-87593311D02*
X80823259Y-87545692D01*
X80823259Y-87545692D02*
X80775640Y-87593311D01*
X80775640Y-87593311D02*
X80728021Y-87688549D01*
X80728021Y-87688549D02*
X80728021Y-87926644D01*
X80728021Y-87926644D02*
X80775640Y-88021882D01*
X80775640Y-88021882D02*
X80823259Y-88069501D01*
X80823259Y-88069501D02*
X80918497Y-88117120D01*
X80918497Y-88117120D02*
X81156592Y-88117120D01*
X81156592Y-88117120D02*
X81251830Y-88069501D01*
X81251830Y-88069501D02*
X81299450Y-88021882D01*
X81299450Y-88021882D02*
X81347069Y-87926644D01*
X81347069Y-87926644D02*
X81347069Y-87688549D01*
X81347069Y-87688549D02*
X81299450Y-87593311D01*
X81299450Y-87593311D02*
X81251830Y-87545692D01*
X80347069Y-88736168D02*
X80347069Y-88831406D01*
X80347069Y-88831406D02*
X80394688Y-88926644D01*
X80394688Y-88926644D02*
X80442307Y-88974263D01*
X80442307Y-88974263D02*
X80537545Y-89021882D01*
X80537545Y-89021882D02*
X80728021Y-89069501D01*
X80728021Y-89069501D02*
X80966116Y-89069501D01*
X80966116Y-89069501D02*
X81156592Y-89021882D01*
X81156592Y-89021882D02*
X81251830Y-88974263D01*
X81251830Y-88974263D02*
X81299450Y-88926644D01*
X81299450Y-88926644D02*
X81347069Y-88831406D01*
X81347069Y-88831406D02*
X81347069Y-88736168D01*
X81347069Y-88736168D02*
X81299450Y-88640930D01*
X81299450Y-88640930D02*
X81251830Y-88593311D01*
X81251830Y-88593311D02*
X81156592Y-88545692D01*
X81156592Y-88545692D02*
X80966116Y-88498073D01*
X80966116Y-88498073D02*
X80728021Y-88498073D01*
X80728021Y-88498073D02*
X80537545Y-88545692D01*
X80537545Y-88545692D02*
X80442307Y-88593311D01*
X80442307Y-88593311D02*
X80394688Y-88640930D01*
X80394688Y-88640930D02*
X80347069Y-88736168D01*
X95634869Y-124694111D02*
X94634869Y-124694111D01*
X94634869Y-124694111D02*
X94634869Y-124932206D01*
X94634869Y-124932206D02*
X94682488Y-125075063D01*
X94682488Y-125075063D02*
X94777726Y-125170301D01*
X94777726Y-125170301D02*
X94872964Y-125217920D01*
X94872964Y-125217920D02*
X95063440Y-125265539D01*
X95063440Y-125265539D02*
X95206297Y-125265539D01*
X95206297Y-125265539D02*
X95396773Y-125217920D01*
X95396773Y-125217920D02*
X95492011Y-125170301D01*
X95492011Y-125170301D02*
X95587250Y-125075063D01*
X95587250Y-125075063D02*
X95634869Y-124932206D01*
X95634869Y-124932206D02*
X95634869Y-124694111D01*
X94634869Y-126170301D02*
X94634869Y-125694111D01*
X94634869Y-125694111D02*
X95111059Y-125646492D01*
X95111059Y-125646492D02*
X95063440Y-125694111D01*
X95063440Y-125694111D02*
X95015821Y-125789349D01*
X95015821Y-125789349D02*
X95015821Y-126027444D01*
X95015821Y-126027444D02*
X95063440Y-126122682D01*
X95063440Y-126122682D02*
X95111059Y-126170301D01*
X95111059Y-126170301D02*
X95206297Y-126217920D01*
X95206297Y-126217920D02*
X95444392Y-126217920D01*
X95444392Y-126217920D02*
X95539630Y-126170301D01*
X95539630Y-126170301D02*
X95587250Y-126122682D01*
X95587250Y-126122682D02*
X95634869Y-126027444D01*
X95634869Y-126027444D02*
X95634869Y-125789349D01*
X95634869Y-125789349D02*
X95587250Y-125694111D01*
X95587250Y-125694111D02*
X95539630Y-125646492D01*
X95063440Y-126789349D02*
X95015821Y-126694111D01*
X95015821Y-126694111D02*
X94968202Y-126646492D01*
X94968202Y-126646492D02*
X94872964Y-126598873D01*
X94872964Y-126598873D02*
X94825345Y-126598873D01*
X94825345Y-126598873D02*
X94730107Y-126646492D01*
X94730107Y-126646492D02*
X94682488Y-126694111D01*
X94682488Y-126694111D02*
X94634869Y-126789349D01*
X94634869Y-126789349D02*
X94634869Y-126979825D01*
X94634869Y-126979825D02*
X94682488Y-127075063D01*
X94682488Y-127075063D02*
X94730107Y-127122682D01*
X94730107Y-127122682D02*
X94825345Y-127170301D01*
X94825345Y-127170301D02*
X94872964Y-127170301D01*
X94872964Y-127170301D02*
X94968202Y-127122682D01*
X94968202Y-127122682D02*
X95015821Y-127075063D01*
X95015821Y-127075063D02*
X95063440Y-126979825D01*
X95063440Y-126979825D02*
X95063440Y-126789349D01*
X95063440Y-126789349D02*
X95111059Y-126694111D01*
X95111059Y-126694111D02*
X95158678Y-126646492D01*
X95158678Y-126646492D02*
X95253916Y-126598873D01*
X95253916Y-126598873D02*
X95444392Y-126598873D01*
X95444392Y-126598873D02*
X95539630Y-126646492D01*
X95539630Y-126646492D02*
X95587250Y-126694111D01*
X95587250Y-126694111D02*
X95634869Y-126789349D01*
X95634869Y-126789349D02*
X95634869Y-126979825D01*
X95634869Y-126979825D02*
X95587250Y-127075063D01*
X95587250Y-127075063D02*
X95539630Y-127122682D01*
X95539630Y-127122682D02*
X95444392Y-127170301D01*
X95444392Y-127170301D02*
X95253916Y-127170301D01*
X95253916Y-127170301D02*
X95158678Y-127122682D01*
X95158678Y-127122682D02*
X95111059Y-127075063D01*
X95111059Y-127075063D02*
X95063440Y-126979825D01*
X371363867Y-67521461D02*
X370363867Y-67521461D01*
X370363867Y-67521461D02*
X370363867Y-67759556D01*
X370363867Y-67759556D02*
X370411486Y-67902413D01*
X370411486Y-67902413D02*
X370506724Y-67997651D01*
X370506724Y-67997651D02*
X370601962Y-68045270D01*
X370601962Y-68045270D02*
X370792438Y-68092889D01*
X370792438Y-68092889D02*
X370935295Y-68092889D01*
X370935295Y-68092889D02*
X371125771Y-68045270D01*
X371125771Y-68045270D02*
X371221009Y-67997651D01*
X371221009Y-67997651D02*
X371316248Y-67902413D01*
X371316248Y-67902413D02*
X371363867Y-67759556D01*
X371363867Y-67759556D02*
X371363867Y-67521461D01*
X370697200Y-68950032D02*
X371363867Y-68950032D01*
X370316248Y-68711937D02*
X371030533Y-68473842D01*
X371030533Y-68473842D02*
X371030533Y-69092889D01*
X371363867Y-69997651D02*
X371363867Y-69426223D01*
X371363867Y-69711937D02*
X370363867Y-69711937D01*
X370363867Y-69711937D02*
X370506724Y-69616699D01*
X370506724Y-69616699D02*
X370601962Y-69521461D01*
X370601962Y-69521461D02*
X370649581Y-69426223D01*
X238011067Y-67997652D02*
X237011067Y-67997652D01*
X237011067Y-67997652D02*
X237011067Y-68235747D01*
X237011067Y-68235747D02*
X237058686Y-68378604D01*
X237058686Y-68378604D02*
X237153924Y-68473842D01*
X237153924Y-68473842D02*
X237249162Y-68521461D01*
X237249162Y-68521461D02*
X237439638Y-68569080D01*
X237439638Y-68569080D02*
X237582495Y-68569080D01*
X237582495Y-68569080D02*
X237772971Y-68521461D01*
X237772971Y-68521461D02*
X237868209Y-68473842D01*
X237868209Y-68473842D02*
X237963448Y-68378604D01*
X237963448Y-68378604D02*
X238011067Y-68235747D01*
X238011067Y-68235747D02*
X238011067Y-67997652D01*
X237106305Y-68950033D02*
X237058686Y-68997652D01*
X237058686Y-68997652D02*
X237011067Y-69092890D01*
X237011067Y-69092890D02*
X237011067Y-69330985D01*
X237011067Y-69330985D02*
X237058686Y-69426223D01*
X237058686Y-69426223D02*
X237106305Y-69473842D01*
X237106305Y-69473842D02*
X237201543Y-69521461D01*
X237201543Y-69521461D02*
X237296781Y-69521461D01*
X237296781Y-69521461D02*
X237439638Y-69473842D01*
X237439638Y-69473842D02*
X238011067Y-68902414D01*
X238011067Y-68902414D02*
X238011067Y-69521461D01*
X128830994Y-143744511D02*
X127830994Y-143744511D01*
X127830994Y-143744511D02*
X127830994Y-143982606D01*
X127830994Y-143982606D02*
X127878613Y-144125463D01*
X127878613Y-144125463D02*
X127973851Y-144220701D01*
X127973851Y-144220701D02*
X128069089Y-144268320D01*
X128069089Y-144268320D02*
X128259565Y-144315939D01*
X128259565Y-144315939D02*
X128402422Y-144315939D01*
X128402422Y-144315939D02*
X128592898Y-144268320D01*
X128592898Y-144268320D02*
X128688136Y-144220701D01*
X128688136Y-144220701D02*
X128783375Y-144125463D01*
X128783375Y-144125463D02*
X128830994Y-143982606D01*
X128830994Y-143982606D02*
X128830994Y-143744511D01*
X127830994Y-145173082D02*
X127830994Y-144982606D01*
X127830994Y-144982606D02*
X127878613Y-144887368D01*
X127878613Y-144887368D02*
X127926232Y-144839749D01*
X127926232Y-144839749D02*
X128069089Y-144744511D01*
X128069089Y-144744511D02*
X128259565Y-144696892D01*
X128259565Y-144696892D02*
X128640517Y-144696892D01*
X128640517Y-144696892D02*
X128735755Y-144744511D01*
X128735755Y-144744511D02*
X128783375Y-144792130D01*
X128783375Y-144792130D02*
X128830994Y-144887368D01*
X128830994Y-144887368D02*
X128830994Y-145077844D01*
X128830994Y-145077844D02*
X128783375Y-145173082D01*
X128783375Y-145173082D02*
X128735755Y-145220701D01*
X128735755Y-145220701D02*
X128640517Y-145268320D01*
X128640517Y-145268320D02*
X128402422Y-145268320D01*
X128402422Y-145268320D02*
X128307184Y-145220701D01*
X128307184Y-145220701D02*
X128259565Y-145173082D01*
X128259565Y-145173082D02*
X128211946Y-145077844D01*
X128211946Y-145077844D02*
X128211946Y-144887368D01*
X128211946Y-144887368D02*
X128259565Y-144792130D01*
X128259565Y-144792130D02*
X128307184Y-144744511D01*
X128307184Y-144744511D02*
X128402422Y-144696892D01*
X127830994Y-146173082D02*
X127830994Y-145696892D01*
X127830994Y-145696892D02*
X128307184Y-145649273D01*
X128307184Y-145649273D02*
X128259565Y-145696892D01*
X128259565Y-145696892D02*
X128211946Y-145792130D01*
X128211946Y-145792130D02*
X128211946Y-146030225D01*
X128211946Y-146030225D02*
X128259565Y-146125463D01*
X128259565Y-146125463D02*
X128307184Y-146173082D01*
X128307184Y-146173082D02*
X128402422Y-146220701D01*
X128402422Y-146220701D02*
X128640517Y-146220701D01*
X128640517Y-146220701D02*
X128735755Y-146173082D01*
X128735755Y-146173082D02*
X128783375Y-146125463D01*
X128783375Y-146125463D02*
X128830994Y-146030225D01*
X128830994Y-146030225D02*
X128830994Y-145792130D01*
X128830994Y-145792130D02*
X128783375Y-145696892D01*
X128783375Y-145696892D02*
X128735755Y-145649273D01*
X147881394Y-67542911D02*
X146881394Y-67542911D01*
X146881394Y-67542911D02*
X146881394Y-67781006D01*
X146881394Y-67781006D02*
X146929013Y-67923863D01*
X146929013Y-67923863D02*
X147024251Y-68019101D01*
X147024251Y-68019101D02*
X147119489Y-68066720D01*
X147119489Y-68066720D02*
X147309965Y-68114339D01*
X147309965Y-68114339D02*
X147452822Y-68114339D01*
X147452822Y-68114339D02*
X147643298Y-68066720D01*
X147643298Y-68066720D02*
X147738536Y-68019101D01*
X147738536Y-68019101D02*
X147833775Y-67923863D01*
X147833775Y-67923863D02*
X147881394Y-67781006D01*
X147881394Y-67781006D02*
X147881394Y-67542911D01*
X146881394Y-68971482D02*
X146881394Y-68781006D01*
X146881394Y-68781006D02*
X146929013Y-68685768D01*
X146929013Y-68685768D02*
X146976632Y-68638149D01*
X146976632Y-68638149D02*
X147119489Y-68542911D01*
X147119489Y-68542911D02*
X147309965Y-68495292D01*
X147309965Y-68495292D02*
X147690917Y-68495292D01*
X147690917Y-68495292D02*
X147786155Y-68542911D01*
X147786155Y-68542911D02*
X147833775Y-68590530D01*
X147833775Y-68590530D02*
X147881394Y-68685768D01*
X147881394Y-68685768D02*
X147881394Y-68876244D01*
X147881394Y-68876244D02*
X147833775Y-68971482D01*
X147833775Y-68971482D02*
X147786155Y-69019101D01*
X147786155Y-69019101D02*
X147690917Y-69066720D01*
X147690917Y-69066720D02*
X147452822Y-69066720D01*
X147452822Y-69066720D02*
X147357584Y-69019101D01*
X147357584Y-69019101D02*
X147309965Y-68971482D01*
X147309965Y-68971482D02*
X147262346Y-68876244D01*
X147262346Y-68876244D02*
X147262346Y-68685768D01*
X147262346Y-68685768D02*
X147309965Y-68590530D01*
X147309965Y-68590530D02*
X147357584Y-68542911D01*
X147357584Y-68542911D02*
X147452822Y-68495292D01*
X146881394Y-69400054D02*
X146881394Y-70066720D01*
X146881394Y-70066720D02*
X147881394Y-69638149D01*
X242773667Y-87048052D02*
X241773667Y-87048052D01*
X241773667Y-87048052D02*
X241773667Y-87286147D01*
X241773667Y-87286147D02*
X241821286Y-87429004D01*
X241821286Y-87429004D02*
X241916524Y-87524242D01*
X241916524Y-87524242D02*
X242011762Y-87571861D01*
X242011762Y-87571861D02*
X242202238Y-87619480D01*
X242202238Y-87619480D02*
X242345095Y-87619480D01*
X242345095Y-87619480D02*
X242535571Y-87571861D01*
X242535571Y-87571861D02*
X242630809Y-87524242D01*
X242630809Y-87524242D02*
X242726048Y-87429004D01*
X242726048Y-87429004D02*
X242773667Y-87286147D01*
X242773667Y-87286147D02*
X242773667Y-87048052D01*
X241773667Y-87952814D02*
X241773667Y-88571861D01*
X241773667Y-88571861D02*
X242154619Y-88238528D01*
X242154619Y-88238528D02*
X242154619Y-88381385D01*
X242154619Y-88381385D02*
X242202238Y-88476623D01*
X242202238Y-88476623D02*
X242249857Y-88524242D01*
X242249857Y-88524242D02*
X242345095Y-88571861D01*
X242345095Y-88571861D02*
X242583190Y-88571861D01*
X242583190Y-88571861D02*
X242678428Y-88524242D01*
X242678428Y-88524242D02*
X242726048Y-88476623D01*
X242726048Y-88476623D02*
X242773667Y-88381385D01*
X242773667Y-88381385D02*
X242773667Y-88095671D01*
X242773667Y-88095671D02*
X242726048Y-88000433D01*
X242726048Y-88000433D02*
X242678428Y-87952814D01*
X90872269Y-48492511D02*
X89872269Y-48492511D01*
X89872269Y-48492511D02*
X89872269Y-48730606D01*
X89872269Y-48730606D02*
X89919888Y-48873463D01*
X89919888Y-48873463D02*
X90015126Y-48968701D01*
X90015126Y-48968701D02*
X90110364Y-49016320D01*
X90110364Y-49016320D02*
X90300840Y-49063939D01*
X90300840Y-49063939D02*
X90443697Y-49063939D01*
X90443697Y-49063939D02*
X90634173Y-49016320D01*
X90634173Y-49016320D02*
X90729411Y-48968701D01*
X90729411Y-48968701D02*
X90824650Y-48873463D01*
X90824650Y-48873463D02*
X90872269Y-48730606D01*
X90872269Y-48730606D02*
X90872269Y-48492511D01*
X90205602Y-49921082D02*
X90872269Y-49921082D01*
X89824650Y-49682987D02*
X90538935Y-49444892D01*
X90538935Y-49444892D02*
X90538935Y-50063939D01*
X90300840Y-50587749D02*
X90253221Y-50492511D01*
X90253221Y-50492511D02*
X90205602Y-50444892D01*
X90205602Y-50444892D02*
X90110364Y-50397273D01*
X90110364Y-50397273D02*
X90062745Y-50397273D01*
X90062745Y-50397273D02*
X89967507Y-50444892D01*
X89967507Y-50444892D02*
X89919888Y-50492511D01*
X89919888Y-50492511D02*
X89872269Y-50587749D01*
X89872269Y-50587749D02*
X89872269Y-50778225D01*
X89872269Y-50778225D02*
X89919888Y-50873463D01*
X89919888Y-50873463D02*
X89967507Y-50921082D01*
X89967507Y-50921082D02*
X90062745Y-50968701D01*
X90062745Y-50968701D02*
X90110364Y-50968701D01*
X90110364Y-50968701D02*
X90205602Y-50921082D01*
X90205602Y-50921082D02*
X90253221Y-50873463D01*
X90253221Y-50873463D02*
X90300840Y-50778225D01*
X90300840Y-50778225D02*
X90300840Y-50587749D01*
X90300840Y-50587749D02*
X90348459Y-50492511D01*
X90348459Y-50492511D02*
X90396078Y-50444892D01*
X90396078Y-50444892D02*
X90491316Y-50397273D01*
X90491316Y-50397273D02*
X90681792Y-50397273D01*
X90681792Y-50397273D02*
X90777030Y-50444892D01*
X90777030Y-50444892D02*
X90824650Y-50492511D01*
X90824650Y-50492511D02*
X90872269Y-50587749D01*
X90872269Y-50587749D02*
X90872269Y-50778225D01*
X90872269Y-50778225D02*
X90824650Y-50873463D01*
X90824650Y-50873463D02*
X90777030Y-50921082D01*
X90777030Y-50921082D02*
X90681792Y-50968701D01*
X90681792Y-50968701D02*
X90491316Y-50968701D01*
X90491316Y-50968701D02*
X90396078Y-50921082D01*
X90396078Y-50921082D02*
X90348459Y-50873463D01*
X90348459Y-50873463D02*
X90300840Y-50778225D01*
X185982194Y-143744511D02*
X184982194Y-143744511D01*
X184982194Y-143744511D02*
X184982194Y-143982606D01*
X184982194Y-143982606D02*
X185029813Y-144125463D01*
X185029813Y-144125463D02*
X185125051Y-144220701D01*
X185125051Y-144220701D02*
X185220289Y-144268320D01*
X185220289Y-144268320D02*
X185410765Y-144315939D01*
X185410765Y-144315939D02*
X185553622Y-144315939D01*
X185553622Y-144315939D02*
X185744098Y-144268320D01*
X185744098Y-144268320D02*
X185839336Y-144220701D01*
X185839336Y-144220701D02*
X185934575Y-144125463D01*
X185934575Y-144125463D02*
X185982194Y-143982606D01*
X185982194Y-143982606D02*
X185982194Y-143744511D01*
X185410765Y-144887368D02*
X185363146Y-144792130D01*
X185363146Y-144792130D02*
X185315527Y-144744511D01*
X185315527Y-144744511D02*
X185220289Y-144696892D01*
X185220289Y-144696892D02*
X185172670Y-144696892D01*
X185172670Y-144696892D02*
X185077432Y-144744511D01*
X185077432Y-144744511D02*
X185029813Y-144792130D01*
X185029813Y-144792130D02*
X184982194Y-144887368D01*
X184982194Y-144887368D02*
X184982194Y-145077844D01*
X184982194Y-145077844D02*
X185029813Y-145173082D01*
X185029813Y-145173082D02*
X185077432Y-145220701D01*
X185077432Y-145220701D02*
X185172670Y-145268320D01*
X185172670Y-145268320D02*
X185220289Y-145268320D01*
X185220289Y-145268320D02*
X185315527Y-145220701D01*
X185315527Y-145220701D02*
X185363146Y-145173082D01*
X185363146Y-145173082D02*
X185410765Y-145077844D01*
X185410765Y-145077844D02*
X185410765Y-144887368D01*
X185410765Y-144887368D02*
X185458384Y-144792130D01*
X185458384Y-144792130D02*
X185506003Y-144744511D01*
X185506003Y-144744511D02*
X185601241Y-144696892D01*
X185601241Y-144696892D02*
X185791717Y-144696892D01*
X185791717Y-144696892D02*
X185886955Y-144744511D01*
X185886955Y-144744511D02*
X185934575Y-144792130D01*
X185934575Y-144792130D02*
X185982194Y-144887368D01*
X185982194Y-144887368D02*
X185982194Y-145077844D01*
X185982194Y-145077844D02*
X185934575Y-145173082D01*
X185934575Y-145173082D02*
X185886955Y-145220701D01*
X185886955Y-145220701D02*
X185791717Y-145268320D01*
X185791717Y-145268320D02*
X185601241Y-145268320D01*
X185601241Y-145268320D02*
X185506003Y-145220701D01*
X185506003Y-145220701D02*
X185458384Y-145173082D01*
X185458384Y-145173082D02*
X185410765Y-145077844D01*
X184982194Y-145601654D02*
X184982194Y-146220701D01*
X184982194Y-146220701D02*
X185363146Y-145887368D01*
X185363146Y-145887368D02*
X185363146Y-146030225D01*
X185363146Y-146030225D02*
X185410765Y-146125463D01*
X185410765Y-146125463D02*
X185458384Y-146173082D01*
X185458384Y-146173082D02*
X185553622Y-146220701D01*
X185553622Y-146220701D02*
X185791717Y-146220701D01*
X185791717Y-146220701D02*
X185886955Y-146173082D01*
X185886955Y-146173082D02*
X185934575Y-146125463D01*
X185934575Y-146125463D02*
X185982194Y-146030225D01*
X185982194Y-146030225D02*
X185982194Y-145744511D01*
X185982194Y-145744511D02*
X185934575Y-145649273D01*
X185934575Y-145649273D02*
X185886955Y-145601654D01*
X321356567Y-143723061D02*
X320356567Y-143723061D01*
X320356567Y-143723061D02*
X320356567Y-143961156D01*
X320356567Y-143961156D02*
X320404186Y-144104013D01*
X320404186Y-144104013D02*
X320499424Y-144199251D01*
X320499424Y-144199251D02*
X320594662Y-144246870D01*
X320594662Y-144246870D02*
X320785138Y-144294489D01*
X320785138Y-144294489D02*
X320927995Y-144294489D01*
X320927995Y-144294489D02*
X321118471Y-144246870D01*
X321118471Y-144246870D02*
X321213709Y-144199251D01*
X321213709Y-144199251D02*
X321308948Y-144104013D01*
X321308948Y-144104013D02*
X321356567Y-143961156D01*
X321356567Y-143961156D02*
X321356567Y-143723061D01*
X320451805Y-144675442D02*
X320404186Y-144723061D01*
X320404186Y-144723061D02*
X320356567Y-144818299D01*
X320356567Y-144818299D02*
X320356567Y-145056394D01*
X320356567Y-145056394D02*
X320404186Y-145151632D01*
X320404186Y-145151632D02*
X320451805Y-145199251D01*
X320451805Y-145199251D02*
X320547043Y-145246870D01*
X320547043Y-145246870D02*
X320642281Y-145246870D01*
X320642281Y-145246870D02*
X320785138Y-145199251D01*
X320785138Y-145199251D02*
X321356567Y-144627823D01*
X321356567Y-144627823D02*
X321356567Y-145246870D01*
X320689900Y-146104013D02*
X321356567Y-146104013D01*
X320308948Y-145865918D02*
X321023233Y-145627823D01*
X321023233Y-145627823D02*
X321023233Y-146246870D01*
X326640364Y-31695827D02*
X326687983Y-31743447D01*
X326687983Y-31743447D02*
X326830840Y-31791066D01*
X326830840Y-31791066D02*
X326926078Y-31791066D01*
X326926078Y-31791066D02*
X327068935Y-31743447D01*
X327068935Y-31743447D02*
X327164173Y-31648208D01*
X327164173Y-31648208D02*
X327211792Y-31552970D01*
X327211792Y-31552970D02*
X327259411Y-31362494D01*
X327259411Y-31362494D02*
X327259411Y-31219637D01*
X327259411Y-31219637D02*
X327211792Y-31029161D01*
X327211792Y-31029161D02*
X327164173Y-30933923D01*
X327164173Y-30933923D02*
X327068935Y-30838685D01*
X327068935Y-30838685D02*
X326926078Y-30791066D01*
X326926078Y-30791066D02*
X326830840Y-30791066D01*
X326830840Y-30791066D02*
X326687983Y-30838685D01*
X326687983Y-30838685D02*
X326640364Y-30886304D01*
X325687983Y-31791066D02*
X326259411Y-31791066D01*
X325973697Y-31791066D02*
X325973697Y-30791066D01*
X325973697Y-30791066D02*
X326068935Y-30933923D01*
X326068935Y-30933923D02*
X326164173Y-31029161D01*
X326164173Y-31029161D02*
X326259411Y-31076780D01*
X86109669Y-105643711D02*
X85109669Y-105643711D01*
X85109669Y-105643711D02*
X85109669Y-105881806D01*
X85109669Y-105881806D02*
X85157288Y-106024663D01*
X85157288Y-106024663D02*
X85252526Y-106119901D01*
X85252526Y-106119901D02*
X85347764Y-106167520D01*
X85347764Y-106167520D02*
X85538240Y-106215139D01*
X85538240Y-106215139D02*
X85681097Y-106215139D01*
X85681097Y-106215139D02*
X85871573Y-106167520D01*
X85871573Y-106167520D02*
X85966811Y-106119901D01*
X85966811Y-106119901D02*
X86062050Y-106024663D01*
X86062050Y-106024663D02*
X86109669Y-105881806D01*
X86109669Y-105881806D02*
X86109669Y-105643711D01*
X85109669Y-107119901D02*
X85109669Y-106643711D01*
X85109669Y-106643711D02*
X85585859Y-106596092D01*
X85585859Y-106596092D02*
X85538240Y-106643711D01*
X85538240Y-106643711D02*
X85490621Y-106738949D01*
X85490621Y-106738949D02*
X85490621Y-106977044D01*
X85490621Y-106977044D02*
X85538240Y-107072282D01*
X85538240Y-107072282D02*
X85585859Y-107119901D01*
X85585859Y-107119901D02*
X85681097Y-107167520D01*
X85681097Y-107167520D02*
X85919192Y-107167520D01*
X85919192Y-107167520D02*
X86014430Y-107119901D01*
X86014430Y-107119901D02*
X86062050Y-107072282D01*
X86062050Y-107072282D02*
X86109669Y-106977044D01*
X86109669Y-106977044D02*
X86109669Y-106738949D01*
X86109669Y-106738949D02*
X86062050Y-106643711D01*
X86062050Y-106643711D02*
X86014430Y-106596092D01*
X86109669Y-108119901D02*
X86109669Y-107548473D01*
X86109669Y-107834187D02*
X85109669Y-107834187D01*
X85109669Y-107834187D02*
X85252526Y-107738949D01*
X85252526Y-107738949D02*
X85347764Y-107643711D01*
X85347764Y-107643711D02*
X85395383Y-107548473D01*
X157406594Y-86593311D02*
X156406594Y-86593311D01*
X156406594Y-86593311D02*
X156406594Y-86831406D01*
X156406594Y-86831406D02*
X156454213Y-86974263D01*
X156454213Y-86974263D02*
X156549451Y-87069501D01*
X156549451Y-87069501D02*
X156644689Y-87117120D01*
X156644689Y-87117120D02*
X156835165Y-87164739D01*
X156835165Y-87164739D02*
X156978022Y-87164739D01*
X156978022Y-87164739D02*
X157168498Y-87117120D01*
X157168498Y-87117120D02*
X157263736Y-87069501D01*
X157263736Y-87069501D02*
X157358975Y-86974263D01*
X157358975Y-86974263D02*
X157406594Y-86831406D01*
X157406594Y-86831406D02*
X157406594Y-86593311D01*
X156406594Y-87498073D02*
X156406594Y-88164739D01*
X156406594Y-88164739D02*
X157406594Y-87736168D01*
X156739927Y-88974263D02*
X157406594Y-88974263D01*
X156358975Y-88736168D02*
X157073260Y-88498073D01*
X157073260Y-88498073D02*
X157073260Y-89117120D01*
X314212667Y-67521461D02*
X313212667Y-67521461D01*
X313212667Y-67521461D02*
X313212667Y-67759556D01*
X313212667Y-67759556D02*
X313260286Y-67902413D01*
X313260286Y-67902413D02*
X313355524Y-67997651D01*
X313355524Y-67997651D02*
X313450762Y-68045270D01*
X313450762Y-68045270D02*
X313641238Y-68092889D01*
X313641238Y-68092889D02*
X313784095Y-68092889D01*
X313784095Y-68092889D02*
X313974571Y-68045270D01*
X313974571Y-68045270D02*
X314069809Y-67997651D01*
X314069809Y-67997651D02*
X314165048Y-67902413D01*
X314165048Y-67902413D02*
X314212667Y-67759556D01*
X314212667Y-67759556D02*
X314212667Y-67521461D01*
X313307905Y-68473842D02*
X313260286Y-68521461D01*
X313260286Y-68521461D02*
X313212667Y-68616699D01*
X313212667Y-68616699D02*
X313212667Y-68854794D01*
X313212667Y-68854794D02*
X313260286Y-68950032D01*
X313260286Y-68950032D02*
X313307905Y-68997651D01*
X313307905Y-68997651D02*
X313403143Y-69045270D01*
X313403143Y-69045270D02*
X313498381Y-69045270D01*
X313498381Y-69045270D02*
X313641238Y-68997651D01*
X313641238Y-68997651D02*
X314212667Y-68426223D01*
X314212667Y-68426223D02*
X314212667Y-69045270D01*
X313212667Y-69902413D02*
X313212667Y-69711937D01*
X313212667Y-69711937D02*
X313260286Y-69616699D01*
X313260286Y-69616699D02*
X313307905Y-69569080D01*
X313307905Y-69569080D02*
X313450762Y-69473842D01*
X313450762Y-69473842D02*
X313641238Y-69426223D01*
X313641238Y-69426223D02*
X314022190Y-69426223D01*
X314022190Y-69426223D02*
X314117428Y-69473842D01*
X314117428Y-69473842D02*
X314165048Y-69521461D01*
X314165048Y-69521461D02*
X314212667Y-69616699D01*
X314212667Y-69616699D02*
X314212667Y-69807175D01*
X314212667Y-69807175D02*
X314165048Y-69902413D01*
X314165048Y-69902413D02*
X314117428Y-69950032D01*
X314117428Y-69950032D02*
X314022190Y-69997651D01*
X314022190Y-69997651D02*
X313784095Y-69997651D01*
X313784095Y-69997651D02*
X313688857Y-69950032D01*
X313688857Y-69950032D02*
X313641238Y-69902413D01*
X313641238Y-69902413D02*
X313593619Y-69807175D01*
X313593619Y-69807175D02*
X313593619Y-69616699D01*
X313593619Y-69616699D02*
X313641238Y-69521461D01*
X313641238Y-69521461D02*
X313688857Y-69473842D01*
X313688857Y-69473842D02*
X313784095Y-69426223D01*
X205032594Y-105643711D02*
X204032594Y-105643711D01*
X204032594Y-105643711D02*
X204032594Y-105881806D01*
X204032594Y-105881806D02*
X204080213Y-106024663D01*
X204080213Y-106024663D02*
X204175451Y-106119901D01*
X204175451Y-106119901D02*
X204270689Y-106167520D01*
X204270689Y-106167520D02*
X204461165Y-106215139D01*
X204461165Y-106215139D02*
X204604022Y-106215139D01*
X204604022Y-106215139D02*
X204794498Y-106167520D01*
X204794498Y-106167520D02*
X204889736Y-106119901D01*
X204889736Y-106119901D02*
X204984975Y-106024663D01*
X204984975Y-106024663D02*
X205032594Y-105881806D01*
X205032594Y-105881806D02*
X205032594Y-105643711D01*
X204461165Y-106786568D02*
X204413546Y-106691330D01*
X204413546Y-106691330D02*
X204365927Y-106643711D01*
X204365927Y-106643711D02*
X204270689Y-106596092D01*
X204270689Y-106596092D02*
X204223070Y-106596092D01*
X204223070Y-106596092D02*
X204127832Y-106643711D01*
X204127832Y-106643711D02*
X204080213Y-106691330D01*
X204080213Y-106691330D02*
X204032594Y-106786568D01*
X204032594Y-106786568D02*
X204032594Y-106977044D01*
X204032594Y-106977044D02*
X204080213Y-107072282D01*
X204080213Y-107072282D02*
X204127832Y-107119901D01*
X204127832Y-107119901D02*
X204223070Y-107167520D01*
X204223070Y-107167520D02*
X204270689Y-107167520D01*
X204270689Y-107167520D02*
X204365927Y-107119901D01*
X204365927Y-107119901D02*
X204413546Y-107072282D01*
X204413546Y-107072282D02*
X204461165Y-106977044D01*
X204461165Y-106977044D02*
X204461165Y-106786568D01*
X204461165Y-106786568D02*
X204508784Y-106691330D01*
X204508784Y-106691330D02*
X204556403Y-106643711D01*
X204556403Y-106643711D02*
X204651641Y-106596092D01*
X204651641Y-106596092D02*
X204842117Y-106596092D01*
X204842117Y-106596092D02*
X204937355Y-106643711D01*
X204937355Y-106643711D02*
X204984975Y-106691330D01*
X204984975Y-106691330D02*
X205032594Y-106786568D01*
X205032594Y-106786568D02*
X205032594Y-106977044D01*
X205032594Y-106977044D02*
X204984975Y-107072282D01*
X204984975Y-107072282D02*
X204937355Y-107119901D01*
X204937355Y-107119901D02*
X204842117Y-107167520D01*
X204842117Y-107167520D02*
X204651641Y-107167520D01*
X204651641Y-107167520D02*
X204556403Y-107119901D01*
X204556403Y-107119901D02*
X204508784Y-107072282D01*
X204508784Y-107072282D02*
X204461165Y-106977044D01*
X205032594Y-108119901D02*
X205032594Y-107548473D01*
X205032594Y-107834187D02*
X204032594Y-107834187D01*
X204032594Y-107834187D02*
X204175451Y-107738949D01*
X204175451Y-107738949D02*
X204270689Y-107643711D01*
X204270689Y-107643711D02*
X204318308Y-107548473D01*
X276111867Y-48471061D02*
X275111867Y-48471061D01*
X275111867Y-48471061D02*
X275111867Y-48709156D01*
X275111867Y-48709156D02*
X275159486Y-48852013D01*
X275159486Y-48852013D02*
X275254724Y-48947251D01*
X275254724Y-48947251D02*
X275349962Y-48994870D01*
X275349962Y-48994870D02*
X275540438Y-49042489D01*
X275540438Y-49042489D02*
X275683295Y-49042489D01*
X275683295Y-49042489D02*
X275873771Y-48994870D01*
X275873771Y-48994870D02*
X275969009Y-48947251D01*
X275969009Y-48947251D02*
X276064248Y-48852013D01*
X276064248Y-48852013D02*
X276111867Y-48709156D01*
X276111867Y-48709156D02*
X276111867Y-48471061D01*
X276111867Y-49994870D02*
X276111867Y-49423442D01*
X276111867Y-49709156D02*
X275111867Y-49709156D01*
X275111867Y-49709156D02*
X275254724Y-49613918D01*
X275254724Y-49613918D02*
X275349962Y-49518680D01*
X275349962Y-49518680D02*
X275397581Y-49423442D01*
X275111867Y-50328204D02*
X275111867Y-50947251D01*
X275111867Y-50947251D02*
X275492819Y-50613918D01*
X275492819Y-50613918D02*
X275492819Y-50756775D01*
X275492819Y-50756775D02*
X275540438Y-50852013D01*
X275540438Y-50852013D02*
X275588057Y-50899632D01*
X275588057Y-50899632D02*
X275683295Y-50947251D01*
X275683295Y-50947251D02*
X275921390Y-50947251D01*
X275921390Y-50947251D02*
X276016628Y-50899632D01*
X276016628Y-50899632D02*
X276064248Y-50852013D01*
X276064248Y-50852013D02*
X276111867Y-50756775D01*
X276111867Y-50756775D02*
X276111867Y-50471061D01*
X276111867Y-50471061D02*
X276064248Y-50375823D01*
X276064248Y-50375823D02*
X276016628Y-50328204D01*
X143118794Y-105643711D02*
X142118794Y-105643711D01*
X142118794Y-105643711D02*
X142118794Y-105881806D01*
X142118794Y-105881806D02*
X142166413Y-106024663D01*
X142166413Y-106024663D02*
X142261651Y-106119901D01*
X142261651Y-106119901D02*
X142356889Y-106167520D01*
X142356889Y-106167520D02*
X142547365Y-106215139D01*
X142547365Y-106215139D02*
X142690222Y-106215139D01*
X142690222Y-106215139D02*
X142880698Y-106167520D01*
X142880698Y-106167520D02*
X142975936Y-106119901D01*
X142975936Y-106119901D02*
X143071175Y-106024663D01*
X143071175Y-106024663D02*
X143118794Y-105881806D01*
X143118794Y-105881806D02*
X143118794Y-105643711D01*
X142118794Y-107072282D02*
X142118794Y-106881806D01*
X142118794Y-106881806D02*
X142166413Y-106786568D01*
X142166413Y-106786568D02*
X142214032Y-106738949D01*
X142214032Y-106738949D02*
X142356889Y-106643711D01*
X142356889Y-106643711D02*
X142547365Y-106596092D01*
X142547365Y-106596092D02*
X142928317Y-106596092D01*
X142928317Y-106596092D02*
X143023555Y-106643711D01*
X143023555Y-106643711D02*
X143071175Y-106691330D01*
X143071175Y-106691330D02*
X143118794Y-106786568D01*
X143118794Y-106786568D02*
X143118794Y-106977044D01*
X143118794Y-106977044D02*
X143071175Y-107072282D01*
X143071175Y-107072282D02*
X143023555Y-107119901D01*
X143023555Y-107119901D02*
X142928317Y-107167520D01*
X142928317Y-107167520D02*
X142690222Y-107167520D01*
X142690222Y-107167520D02*
X142594984Y-107119901D01*
X142594984Y-107119901D02*
X142547365Y-107072282D01*
X142547365Y-107072282D02*
X142499746Y-106977044D01*
X142499746Y-106977044D02*
X142499746Y-106786568D01*
X142499746Y-106786568D02*
X142547365Y-106691330D01*
X142547365Y-106691330D02*
X142594984Y-106643711D01*
X142594984Y-106643711D02*
X142690222Y-106596092D01*
X143118794Y-107643711D02*
X143118794Y-107834187D01*
X143118794Y-107834187D02*
X143071175Y-107929425D01*
X143071175Y-107929425D02*
X143023555Y-107977044D01*
X143023555Y-107977044D02*
X142880698Y-108072282D01*
X142880698Y-108072282D02*
X142690222Y-108119901D01*
X142690222Y-108119901D02*
X142309270Y-108119901D01*
X142309270Y-108119901D02*
X142214032Y-108072282D01*
X142214032Y-108072282D02*
X142166413Y-108024663D01*
X142166413Y-108024663D02*
X142118794Y-107929425D01*
X142118794Y-107929425D02*
X142118794Y-107738949D01*
X142118794Y-107738949D02*
X142166413Y-107643711D01*
X142166413Y-107643711D02*
X142214032Y-107596092D01*
X142214032Y-107596092D02*
X142309270Y-107548473D01*
X142309270Y-107548473D02*
X142547365Y-107548473D01*
X142547365Y-107548473D02*
X142642603Y-107596092D01*
X142642603Y-107596092D02*
X142690222Y-107643711D01*
X142690222Y-107643711D02*
X142737841Y-107738949D01*
X142737841Y-107738949D02*
X142737841Y-107929425D01*
X142737841Y-107929425D02*
X142690222Y-108024663D01*
X142690222Y-108024663D02*
X142642603Y-108072282D01*
X142642603Y-108072282D02*
X142547365Y-108119901D01*
X166931794Y-143744511D02*
X165931794Y-143744511D01*
X165931794Y-143744511D02*
X165931794Y-143982606D01*
X165931794Y-143982606D02*
X165979413Y-144125463D01*
X165979413Y-144125463D02*
X166074651Y-144220701D01*
X166074651Y-144220701D02*
X166169889Y-144268320D01*
X166169889Y-144268320D02*
X166360365Y-144315939D01*
X166360365Y-144315939D02*
X166503222Y-144315939D01*
X166503222Y-144315939D02*
X166693698Y-144268320D01*
X166693698Y-144268320D02*
X166788936Y-144220701D01*
X166788936Y-144220701D02*
X166884175Y-144125463D01*
X166884175Y-144125463D02*
X166931794Y-143982606D01*
X166931794Y-143982606D02*
X166931794Y-143744511D01*
X165931794Y-144649273D02*
X165931794Y-145315939D01*
X165931794Y-145315939D02*
X166931794Y-144887368D01*
X165931794Y-145601654D02*
X165931794Y-146268320D01*
X165931794Y-146268320D02*
X166931794Y-145839749D01*
X318975267Y-124808636D02*
X317975267Y-124808636D01*
X317975267Y-124808636D02*
X317975267Y-125046731D01*
X317975267Y-125046731D02*
X318022886Y-125189588D01*
X318022886Y-125189588D02*
X318118124Y-125284826D01*
X318118124Y-125284826D02*
X318213362Y-125332445D01*
X318213362Y-125332445D02*
X318403838Y-125380064D01*
X318403838Y-125380064D02*
X318546695Y-125380064D01*
X318546695Y-125380064D02*
X318737171Y-125332445D01*
X318737171Y-125332445D02*
X318832409Y-125284826D01*
X318832409Y-125284826D02*
X318927648Y-125189588D01*
X318927648Y-125189588D02*
X318975267Y-125046731D01*
X318975267Y-125046731D02*
X318975267Y-124808636D01*
X318070505Y-125761017D02*
X318022886Y-125808636D01*
X318022886Y-125808636D02*
X317975267Y-125903874D01*
X317975267Y-125903874D02*
X317975267Y-126141969D01*
X317975267Y-126141969D02*
X318022886Y-126237207D01*
X318022886Y-126237207D02*
X318070505Y-126284826D01*
X318070505Y-126284826D02*
X318165743Y-126332445D01*
X318165743Y-126332445D02*
X318260981Y-126332445D01*
X318260981Y-126332445D02*
X318403838Y-126284826D01*
X318403838Y-126284826D02*
X318975267Y-125713398D01*
X318975267Y-125713398D02*
X318975267Y-126332445D01*
X317975267Y-126665779D02*
X317975267Y-127284826D01*
X317975267Y-127284826D02*
X318356219Y-126951493D01*
X318356219Y-126951493D02*
X318356219Y-127094350D01*
X318356219Y-127094350D02*
X318403838Y-127189588D01*
X318403838Y-127189588D02*
X318451457Y-127237207D01*
X318451457Y-127237207D02*
X318546695Y-127284826D01*
X318546695Y-127284826D02*
X318784790Y-127284826D01*
X318784790Y-127284826D02*
X318880028Y-127237207D01*
X318880028Y-127237207D02*
X318927648Y-127189588D01*
X318927648Y-127189588D02*
X318975267Y-127094350D01*
X318975267Y-127094350D02*
X318975267Y-126808636D01*
X318975267Y-126808636D02*
X318927648Y-126713398D01*
X318927648Y-126713398D02*
X318880028Y-126665779D01*
X76584469Y-124694111D02*
X75584469Y-124694111D01*
X75584469Y-124694111D02*
X75584469Y-124932206D01*
X75584469Y-124932206D02*
X75632088Y-125075063D01*
X75632088Y-125075063D02*
X75727326Y-125170301D01*
X75727326Y-125170301D02*
X75822564Y-125217920D01*
X75822564Y-125217920D02*
X76013040Y-125265539D01*
X76013040Y-125265539D02*
X76155897Y-125265539D01*
X76155897Y-125265539D02*
X76346373Y-125217920D01*
X76346373Y-125217920D02*
X76441611Y-125170301D01*
X76441611Y-125170301D02*
X76536850Y-125075063D01*
X76536850Y-125075063D02*
X76584469Y-124932206D01*
X76584469Y-124932206D02*
X76584469Y-124694111D01*
X75584469Y-126170301D02*
X75584469Y-125694111D01*
X75584469Y-125694111D02*
X76060659Y-125646492D01*
X76060659Y-125646492D02*
X76013040Y-125694111D01*
X76013040Y-125694111D02*
X75965421Y-125789349D01*
X75965421Y-125789349D02*
X75965421Y-126027444D01*
X75965421Y-126027444D02*
X76013040Y-126122682D01*
X76013040Y-126122682D02*
X76060659Y-126170301D01*
X76060659Y-126170301D02*
X76155897Y-126217920D01*
X76155897Y-126217920D02*
X76393992Y-126217920D01*
X76393992Y-126217920D02*
X76489230Y-126170301D01*
X76489230Y-126170301D02*
X76536850Y-126122682D01*
X76536850Y-126122682D02*
X76584469Y-126027444D01*
X76584469Y-126027444D02*
X76584469Y-125789349D01*
X76584469Y-125789349D02*
X76536850Y-125694111D01*
X76536850Y-125694111D02*
X76489230Y-125646492D01*
X75679707Y-126598873D02*
X75632088Y-126646492D01*
X75632088Y-126646492D02*
X75584469Y-126741730D01*
X75584469Y-126741730D02*
X75584469Y-126979825D01*
X75584469Y-126979825D02*
X75632088Y-127075063D01*
X75632088Y-127075063D02*
X75679707Y-127122682D01*
X75679707Y-127122682D02*
X75774945Y-127170301D01*
X75774945Y-127170301D02*
X75870183Y-127170301D01*
X75870183Y-127170301D02*
X76013040Y-127122682D01*
X76013040Y-127122682D02*
X76584469Y-126551254D01*
X76584469Y-126551254D02*
X76584469Y-127170301D01*
X285637067Y-86571861D02*
X284637067Y-86571861D01*
X284637067Y-86571861D02*
X284637067Y-86809956D01*
X284637067Y-86809956D02*
X284684686Y-86952813D01*
X284684686Y-86952813D02*
X284779924Y-87048051D01*
X284779924Y-87048051D02*
X284875162Y-87095670D01*
X284875162Y-87095670D02*
X285065638Y-87143289D01*
X285065638Y-87143289D02*
X285208495Y-87143289D01*
X285208495Y-87143289D02*
X285398971Y-87095670D01*
X285398971Y-87095670D02*
X285494209Y-87048051D01*
X285494209Y-87048051D02*
X285589448Y-86952813D01*
X285589448Y-86952813D02*
X285637067Y-86809956D01*
X285637067Y-86809956D02*
X285637067Y-86571861D01*
X285637067Y-88095670D02*
X285637067Y-87524242D01*
X285637067Y-87809956D02*
X284637067Y-87809956D01*
X284637067Y-87809956D02*
X284779924Y-87714718D01*
X284779924Y-87714718D02*
X284875162Y-87619480D01*
X284875162Y-87619480D02*
X284922781Y-87524242D01*
X284637067Y-89000432D02*
X284637067Y-88524242D01*
X284637067Y-88524242D02*
X285113257Y-88476623D01*
X285113257Y-88476623D02*
X285065638Y-88524242D01*
X285065638Y-88524242D02*
X285018019Y-88619480D01*
X285018019Y-88619480D02*
X285018019Y-88857575D01*
X285018019Y-88857575D02*
X285065638Y-88952813D01*
X285065638Y-88952813D02*
X285113257Y-89000432D01*
X285113257Y-89000432D02*
X285208495Y-89048051D01*
X285208495Y-89048051D02*
X285446590Y-89048051D01*
X285446590Y-89048051D02*
X285541828Y-89000432D01*
X285541828Y-89000432D02*
X285589448Y-88952813D01*
X285589448Y-88952813D02*
X285637067Y-88857575D01*
X285637067Y-88857575D02*
X285637067Y-88619480D01*
X285637067Y-88619480D02*
X285589448Y-88524242D01*
X285589448Y-88524242D02*
X285541828Y-88476623D01*
X71821869Y-67542911D02*
X70821869Y-67542911D01*
X70821869Y-67542911D02*
X70821869Y-67781006D01*
X70821869Y-67781006D02*
X70869488Y-67923863D01*
X70869488Y-67923863D02*
X70964726Y-68019101D01*
X70964726Y-68019101D02*
X71059964Y-68066720D01*
X71059964Y-68066720D02*
X71250440Y-68114339D01*
X71250440Y-68114339D02*
X71393297Y-68114339D01*
X71393297Y-68114339D02*
X71583773Y-68066720D01*
X71583773Y-68066720D02*
X71679011Y-68019101D01*
X71679011Y-68019101D02*
X71774250Y-67923863D01*
X71774250Y-67923863D02*
X71821869Y-67781006D01*
X71821869Y-67781006D02*
X71821869Y-67542911D01*
X71155202Y-68971482D02*
X71821869Y-68971482D01*
X70774250Y-68733387D02*
X71488535Y-68495292D01*
X71488535Y-68495292D02*
X71488535Y-69114339D01*
X70821869Y-69400054D02*
X70821869Y-70019101D01*
X70821869Y-70019101D02*
X71202821Y-69685768D01*
X71202821Y-69685768D02*
X71202821Y-69828625D01*
X71202821Y-69828625D02*
X71250440Y-69923863D01*
X71250440Y-69923863D02*
X71298059Y-69971482D01*
X71298059Y-69971482D02*
X71393297Y-70019101D01*
X71393297Y-70019101D02*
X71631392Y-70019101D01*
X71631392Y-70019101D02*
X71726630Y-69971482D01*
X71726630Y-69971482D02*
X71774250Y-69923863D01*
X71774250Y-69923863D02*
X71821869Y-69828625D01*
X71821869Y-69828625D02*
X71821869Y-69542911D01*
X71821869Y-69542911D02*
X71774250Y-69447673D01*
X71774250Y-69447673D02*
X71726630Y-69400054D01*
X174075694Y-105643711D02*
X173075694Y-105643711D01*
X173075694Y-105643711D02*
X173075694Y-105881806D01*
X173075694Y-105881806D02*
X173123313Y-106024663D01*
X173123313Y-106024663D02*
X173218551Y-106119901D01*
X173218551Y-106119901D02*
X173313789Y-106167520D01*
X173313789Y-106167520D02*
X173504265Y-106215139D01*
X173504265Y-106215139D02*
X173647122Y-106215139D01*
X173647122Y-106215139D02*
X173837598Y-106167520D01*
X173837598Y-106167520D02*
X173932836Y-106119901D01*
X173932836Y-106119901D02*
X174028075Y-106024663D01*
X174028075Y-106024663D02*
X174075694Y-105881806D01*
X174075694Y-105881806D02*
X174075694Y-105643711D01*
X173075694Y-106548473D02*
X173075694Y-107215139D01*
X173075694Y-107215139D02*
X174075694Y-106786568D01*
X173075694Y-108072282D02*
X173075694Y-107596092D01*
X173075694Y-107596092D02*
X173551884Y-107548473D01*
X173551884Y-107548473D02*
X173504265Y-107596092D01*
X173504265Y-107596092D02*
X173456646Y-107691330D01*
X173456646Y-107691330D02*
X173456646Y-107929425D01*
X173456646Y-107929425D02*
X173504265Y-108024663D01*
X173504265Y-108024663D02*
X173551884Y-108072282D01*
X173551884Y-108072282D02*
X173647122Y-108119901D01*
X173647122Y-108119901D02*
X173885217Y-108119901D01*
X173885217Y-108119901D02*
X173980455Y-108072282D01*
X173980455Y-108072282D02*
X174028075Y-108024663D01*
X174028075Y-108024663D02*
X174075694Y-107929425D01*
X174075694Y-107929425D02*
X174075694Y-107691330D01*
X174075694Y-107691330D02*
X174028075Y-107596092D01*
X174028075Y-107596092D02*
X173980455Y-107548473D01*
X205032594Y-86593311D02*
X204032594Y-86593311D01*
X204032594Y-86593311D02*
X204032594Y-86831406D01*
X204032594Y-86831406D02*
X204080213Y-86974263D01*
X204080213Y-86974263D02*
X204175451Y-87069501D01*
X204175451Y-87069501D02*
X204270689Y-87117120D01*
X204270689Y-87117120D02*
X204461165Y-87164739D01*
X204461165Y-87164739D02*
X204604022Y-87164739D01*
X204604022Y-87164739D02*
X204794498Y-87117120D01*
X204794498Y-87117120D02*
X204889736Y-87069501D01*
X204889736Y-87069501D02*
X204984975Y-86974263D01*
X204984975Y-86974263D02*
X205032594Y-86831406D01*
X205032594Y-86831406D02*
X205032594Y-86593311D01*
X204461165Y-87736168D02*
X204413546Y-87640930D01*
X204413546Y-87640930D02*
X204365927Y-87593311D01*
X204365927Y-87593311D02*
X204270689Y-87545692D01*
X204270689Y-87545692D02*
X204223070Y-87545692D01*
X204223070Y-87545692D02*
X204127832Y-87593311D01*
X204127832Y-87593311D02*
X204080213Y-87640930D01*
X204080213Y-87640930D02*
X204032594Y-87736168D01*
X204032594Y-87736168D02*
X204032594Y-87926644D01*
X204032594Y-87926644D02*
X204080213Y-88021882D01*
X204080213Y-88021882D02*
X204127832Y-88069501D01*
X204127832Y-88069501D02*
X204223070Y-88117120D01*
X204223070Y-88117120D02*
X204270689Y-88117120D01*
X204270689Y-88117120D02*
X204365927Y-88069501D01*
X204365927Y-88069501D02*
X204413546Y-88021882D01*
X204413546Y-88021882D02*
X204461165Y-87926644D01*
X204461165Y-87926644D02*
X204461165Y-87736168D01*
X204461165Y-87736168D02*
X204508784Y-87640930D01*
X204508784Y-87640930D02*
X204556403Y-87593311D01*
X204556403Y-87593311D02*
X204651641Y-87545692D01*
X204651641Y-87545692D02*
X204842117Y-87545692D01*
X204842117Y-87545692D02*
X204937355Y-87593311D01*
X204937355Y-87593311D02*
X204984975Y-87640930D01*
X204984975Y-87640930D02*
X205032594Y-87736168D01*
X205032594Y-87736168D02*
X205032594Y-87926644D01*
X205032594Y-87926644D02*
X204984975Y-88021882D01*
X204984975Y-88021882D02*
X204937355Y-88069501D01*
X204937355Y-88069501D02*
X204842117Y-88117120D01*
X204842117Y-88117120D02*
X204651641Y-88117120D01*
X204651641Y-88117120D02*
X204556403Y-88069501D01*
X204556403Y-88069501D02*
X204508784Y-88021882D01*
X204508784Y-88021882D02*
X204461165Y-87926644D01*
X204032594Y-88974263D02*
X204032594Y-88783787D01*
X204032594Y-88783787D02*
X204080213Y-88688549D01*
X204080213Y-88688549D02*
X204127832Y-88640930D01*
X204127832Y-88640930D02*
X204270689Y-88545692D01*
X204270689Y-88545692D02*
X204461165Y-88498073D01*
X204461165Y-88498073D02*
X204842117Y-88498073D01*
X204842117Y-88498073D02*
X204937355Y-88545692D01*
X204937355Y-88545692D02*
X204984975Y-88593311D01*
X204984975Y-88593311D02*
X205032594Y-88688549D01*
X205032594Y-88688549D02*
X205032594Y-88879025D01*
X205032594Y-88879025D02*
X204984975Y-88974263D01*
X204984975Y-88974263D02*
X204937355Y-89021882D01*
X204937355Y-89021882D02*
X204842117Y-89069501D01*
X204842117Y-89069501D02*
X204604022Y-89069501D01*
X204604022Y-89069501D02*
X204508784Y-89021882D01*
X204508784Y-89021882D02*
X204461165Y-88974263D01*
X204461165Y-88974263D02*
X204413546Y-88879025D01*
X204413546Y-88879025D02*
X204413546Y-88688549D01*
X204413546Y-88688549D02*
X204461165Y-88593311D01*
X204461165Y-88593311D02*
X204508784Y-88545692D01*
X204508784Y-88545692D02*
X204604022Y-88498073D01*
X147881394Y-48492511D02*
X146881394Y-48492511D01*
X146881394Y-48492511D02*
X146881394Y-48730606D01*
X146881394Y-48730606D02*
X146929013Y-48873463D01*
X146929013Y-48873463D02*
X147024251Y-48968701D01*
X147024251Y-48968701D02*
X147119489Y-49016320D01*
X147119489Y-49016320D02*
X147309965Y-49063939D01*
X147309965Y-49063939D02*
X147452822Y-49063939D01*
X147452822Y-49063939D02*
X147643298Y-49016320D01*
X147643298Y-49016320D02*
X147738536Y-48968701D01*
X147738536Y-48968701D02*
X147833775Y-48873463D01*
X147833775Y-48873463D02*
X147881394Y-48730606D01*
X147881394Y-48730606D02*
X147881394Y-48492511D01*
X146881394Y-49921082D02*
X146881394Y-49730606D01*
X146881394Y-49730606D02*
X146929013Y-49635368D01*
X146929013Y-49635368D02*
X146976632Y-49587749D01*
X146976632Y-49587749D02*
X147119489Y-49492511D01*
X147119489Y-49492511D02*
X147309965Y-49444892D01*
X147309965Y-49444892D02*
X147690917Y-49444892D01*
X147690917Y-49444892D02*
X147786155Y-49492511D01*
X147786155Y-49492511D02*
X147833775Y-49540130D01*
X147833775Y-49540130D02*
X147881394Y-49635368D01*
X147881394Y-49635368D02*
X147881394Y-49825844D01*
X147881394Y-49825844D02*
X147833775Y-49921082D01*
X147833775Y-49921082D02*
X147786155Y-49968701D01*
X147786155Y-49968701D02*
X147690917Y-50016320D01*
X147690917Y-50016320D02*
X147452822Y-50016320D01*
X147452822Y-50016320D02*
X147357584Y-49968701D01*
X147357584Y-49968701D02*
X147309965Y-49921082D01*
X147309965Y-49921082D02*
X147262346Y-49825844D01*
X147262346Y-49825844D02*
X147262346Y-49635368D01*
X147262346Y-49635368D02*
X147309965Y-49540130D01*
X147309965Y-49540130D02*
X147357584Y-49492511D01*
X147357584Y-49492511D02*
X147452822Y-49444892D01*
X146881394Y-50873463D02*
X146881394Y-50682987D01*
X146881394Y-50682987D02*
X146929013Y-50587749D01*
X146929013Y-50587749D02*
X146976632Y-50540130D01*
X146976632Y-50540130D02*
X147119489Y-50444892D01*
X147119489Y-50444892D02*
X147309965Y-50397273D01*
X147309965Y-50397273D02*
X147690917Y-50397273D01*
X147690917Y-50397273D02*
X147786155Y-50444892D01*
X147786155Y-50444892D02*
X147833775Y-50492511D01*
X147833775Y-50492511D02*
X147881394Y-50587749D01*
X147881394Y-50587749D02*
X147881394Y-50778225D01*
X147881394Y-50778225D02*
X147833775Y-50873463D01*
X147833775Y-50873463D02*
X147786155Y-50921082D01*
X147786155Y-50921082D02*
X147690917Y-50968701D01*
X147690917Y-50968701D02*
X147452822Y-50968701D01*
X147452822Y-50968701D02*
X147357584Y-50921082D01*
X147357584Y-50921082D02*
X147309965Y-50873463D01*
X147309965Y-50873463D02*
X147262346Y-50778225D01*
X147262346Y-50778225D02*
X147262346Y-50587749D01*
X147262346Y-50587749D02*
X147309965Y-50492511D01*
X147309965Y-50492511D02*
X147357584Y-50444892D01*
X147357584Y-50444892D02*
X147452822Y-50397273D01*
X342788267Y-86571861D02*
X341788267Y-86571861D01*
X341788267Y-86571861D02*
X341788267Y-86809956D01*
X341788267Y-86809956D02*
X341835886Y-86952813D01*
X341835886Y-86952813D02*
X341931124Y-87048051D01*
X341931124Y-87048051D02*
X342026362Y-87095670D01*
X342026362Y-87095670D02*
X342216838Y-87143289D01*
X342216838Y-87143289D02*
X342359695Y-87143289D01*
X342359695Y-87143289D02*
X342550171Y-87095670D01*
X342550171Y-87095670D02*
X342645409Y-87048051D01*
X342645409Y-87048051D02*
X342740648Y-86952813D01*
X342740648Y-86952813D02*
X342788267Y-86809956D01*
X342788267Y-86809956D02*
X342788267Y-86571861D01*
X341788267Y-87476623D02*
X341788267Y-88095670D01*
X341788267Y-88095670D02*
X342169219Y-87762337D01*
X342169219Y-87762337D02*
X342169219Y-87905194D01*
X342169219Y-87905194D02*
X342216838Y-88000432D01*
X342216838Y-88000432D02*
X342264457Y-88048051D01*
X342264457Y-88048051D02*
X342359695Y-88095670D01*
X342359695Y-88095670D02*
X342597790Y-88095670D01*
X342597790Y-88095670D02*
X342693028Y-88048051D01*
X342693028Y-88048051D02*
X342740648Y-88000432D01*
X342740648Y-88000432D02*
X342788267Y-87905194D01*
X342788267Y-87905194D02*
X342788267Y-87619480D01*
X342788267Y-87619480D02*
X342740648Y-87524242D01*
X342740648Y-87524242D02*
X342693028Y-87476623D01*
X341788267Y-88429004D02*
X341788267Y-89048051D01*
X341788267Y-89048051D02*
X342169219Y-88714718D01*
X342169219Y-88714718D02*
X342169219Y-88857575D01*
X342169219Y-88857575D02*
X342216838Y-88952813D01*
X342216838Y-88952813D02*
X342264457Y-89000432D01*
X342264457Y-89000432D02*
X342359695Y-89048051D01*
X342359695Y-89048051D02*
X342597790Y-89048051D01*
X342597790Y-89048051D02*
X342693028Y-89000432D01*
X342693028Y-89000432D02*
X342740648Y-88952813D01*
X342740648Y-88952813D02*
X342788267Y-88857575D01*
X342788267Y-88857575D02*
X342788267Y-88571861D01*
X342788267Y-88571861D02*
X342740648Y-88476623D01*
X342740648Y-88476623D02*
X342693028Y-88429004D01*
X238011067Y-48947252D02*
X237011067Y-48947252D01*
X237011067Y-48947252D02*
X237011067Y-49185347D01*
X237011067Y-49185347D02*
X237058686Y-49328204D01*
X237058686Y-49328204D02*
X237153924Y-49423442D01*
X237153924Y-49423442D02*
X237249162Y-49471061D01*
X237249162Y-49471061D02*
X237439638Y-49518680D01*
X237439638Y-49518680D02*
X237582495Y-49518680D01*
X237582495Y-49518680D02*
X237772971Y-49471061D01*
X237772971Y-49471061D02*
X237868209Y-49423442D01*
X237868209Y-49423442D02*
X237963448Y-49328204D01*
X237963448Y-49328204D02*
X238011067Y-49185347D01*
X238011067Y-49185347D02*
X238011067Y-48947252D01*
X238011067Y-50471061D02*
X238011067Y-49899633D01*
X238011067Y-50185347D02*
X237011067Y-50185347D01*
X237011067Y-50185347D02*
X237153924Y-50090109D01*
X237153924Y-50090109D02*
X237249162Y-49994871D01*
X237249162Y-49994871D02*
X237296781Y-49899633D01*
X257061467Y-48947252D02*
X256061467Y-48947252D01*
X256061467Y-48947252D02*
X256061467Y-49185347D01*
X256061467Y-49185347D02*
X256109086Y-49328204D01*
X256109086Y-49328204D02*
X256204324Y-49423442D01*
X256204324Y-49423442D02*
X256299562Y-49471061D01*
X256299562Y-49471061D02*
X256490038Y-49518680D01*
X256490038Y-49518680D02*
X256632895Y-49518680D01*
X256632895Y-49518680D02*
X256823371Y-49471061D01*
X256823371Y-49471061D02*
X256918609Y-49423442D01*
X256918609Y-49423442D02*
X257013848Y-49328204D01*
X257013848Y-49328204D02*
X257061467Y-49185347D01*
X257061467Y-49185347D02*
X257061467Y-48947252D01*
X256061467Y-49852014D02*
X256061467Y-50518680D01*
X256061467Y-50518680D02*
X257061467Y-50090109D01*
X205032594Y-48492511D02*
X204032594Y-48492511D01*
X204032594Y-48492511D02*
X204032594Y-48730606D01*
X204032594Y-48730606D02*
X204080213Y-48873463D01*
X204080213Y-48873463D02*
X204175451Y-48968701D01*
X204175451Y-48968701D02*
X204270689Y-49016320D01*
X204270689Y-49016320D02*
X204461165Y-49063939D01*
X204461165Y-49063939D02*
X204604022Y-49063939D01*
X204604022Y-49063939D02*
X204794498Y-49016320D01*
X204794498Y-49016320D02*
X204889736Y-48968701D01*
X204889736Y-48968701D02*
X204984975Y-48873463D01*
X204984975Y-48873463D02*
X205032594Y-48730606D01*
X205032594Y-48730606D02*
X205032594Y-48492511D01*
X204461165Y-49635368D02*
X204413546Y-49540130D01*
X204413546Y-49540130D02*
X204365927Y-49492511D01*
X204365927Y-49492511D02*
X204270689Y-49444892D01*
X204270689Y-49444892D02*
X204223070Y-49444892D01*
X204223070Y-49444892D02*
X204127832Y-49492511D01*
X204127832Y-49492511D02*
X204080213Y-49540130D01*
X204080213Y-49540130D02*
X204032594Y-49635368D01*
X204032594Y-49635368D02*
X204032594Y-49825844D01*
X204032594Y-49825844D02*
X204080213Y-49921082D01*
X204080213Y-49921082D02*
X204127832Y-49968701D01*
X204127832Y-49968701D02*
X204223070Y-50016320D01*
X204223070Y-50016320D02*
X204270689Y-50016320D01*
X204270689Y-50016320D02*
X204365927Y-49968701D01*
X204365927Y-49968701D02*
X204413546Y-49921082D01*
X204413546Y-49921082D02*
X204461165Y-49825844D01*
X204461165Y-49825844D02*
X204461165Y-49635368D01*
X204461165Y-49635368D02*
X204508784Y-49540130D01*
X204508784Y-49540130D02*
X204556403Y-49492511D01*
X204556403Y-49492511D02*
X204651641Y-49444892D01*
X204651641Y-49444892D02*
X204842117Y-49444892D01*
X204842117Y-49444892D02*
X204937355Y-49492511D01*
X204937355Y-49492511D02*
X204984975Y-49540130D01*
X204984975Y-49540130D02*
X205032594Y-49635368D01*
X205032594Y-49635368D02*
X205032594Y-49825844D01*
X205032594Y-49825844D02*
X204984975Y-49921082D01*
X204984975Y-49921082D02*
X204937355Y-49968701D01*
X204937355Y-49968701D02*
X204842117Y-50016320D01*
X204842117Y-50016320D02*
X204651641Y-50016320D01*
X204651641Y-50016320D02*
X204556403Y-49968701D01*
X204556403Y-49968701D02*
X204508784Y-49921082D01*
X204508784Y-49921082D02*
X204461165Y-49825844D01*
X204365927Y-50873463D02*
X205032594Y-50873463D01*
X203984975Y-50635368D02*
X204699260Y-50397273D01*
X204699260Y-50397273D02*
X204699260Y-51016320D01*
X124068394Y-105643711D02*
X123068394Y-105643711D01*
X123068394Y-105643711D02*
X123068394Y-105881806D01*
X123068394Y-105881806D02*
X123116013Y-106024663D01*
X123116013Y-106024663D02*
X123211251Y-106119901D01*
X123211251Y-106119901D02*
X123306489Y-106167520D01*
X123306489Y-106167520D02*
X123496965Y-106215139D01*
X123496965Y-106215139D02*
X123639822Y-106215139D01*
X123639822Y-106215139D02*
X123830298Y-106167520D01*
X123830298Y-106167520D02*
X123925536Y-106119901D01*
X123925536Y-106119901D02*
X124020775Y-106024663D01*
X124020775Y-106024663D02*
X124068394Y-105881806D01*
X124068394Y-105881806D02*
X124068394Y-105643711D01*
X123068394Y-107072282D02*
X123068394Y-106881806D01*
X123068394Y-106881806D02*
X123116013Y-106786568D01*
X123116013Y-106786568D02*
X123163632Y-106738949D01*
X123163632Y-106738949D02*
X123306489Y-106643711D01*
X123306489Y-106643711D02*
X123496965Y-106596092D01*
X123496965Y-106596092D02*
X123877917Y-106596092D01*
X123877917Y-106596092D02*
X123973155Y-106643711D01*
X123973155Y-106643711D02*
X124020775Y-106691330D01*
X124020775Y-106691330D02*
X124068394Y-106786568D01*
X124068394Y-106786568D02*
X124068394Y-106977044D01*
X124068394Y-106977044D02*
X124020775Y-107072282D01*
X124020775Y-107072282D02*
X123973155Y-107119901D01*
X123973155Y-107119901D02*
X123877917Y-107167520D01*
X123877917Y-107167520D02*
X123639822Y-107167520D01*
X123639822Y-107167520D02*
X123544584Y-107119901D01*
X123544584Y-107119901D02*
X123496965Y-107072282D01*
X123496965Y-107072282D02*
X123449346Y-106977044D01*
X123449346Y-106977044D02*
X123449346Y-106786568D01*
X123449346Y-106786568D02*
X123496965Y-106691330D01*
X123496965Y-106691330D02*
X123544584Y-106643711D01*
X123544584Y-106643711D02*
X123639822Y-106596092D01*
X123068394Y-107500854D02*
X123068394Y-108119901D01*
X123068394Y-108119901D02*
X123449346Y-107786568D01*
X123449346Y-107786568D02*
X123449346Y-107929425D01*
X123449346Y-107929425D02*
X123496965Y-108024663D01*
X123496965Y-108024663D02*
X123544584Y-108072282D01*
X123544584Y-108072282D02*
X123639822Y-108119901D01*
X123639822Y-108119901D02*
X123877917Y-108119901D01*
X123877917Y-108119901D02*
X123973155Y-108072282D01*
X123973155Y-108072282D02*
X124020775Y-108024663D01*
X124020775Y-108024663D02*
X124068394Y-107929425D01*
X124068394Y-107929425D02*
X124068394Y-107643711D01*
X124068394Y-107643711D02*
X124020775Y-107548473D01*
X124020775Y-107548473D02*
X123973155Y-107500854D01*
X333263067Y-48471061D02*
X332263067Y-48471061D01*
X332263067Y-48471061D02*
X332263067Y-48709156D01*
X332263067Y-48709156D02*
X332310686Y-48852013D01*
X332310686Y-48852013D02*
X332405924Y-48947251D01*
X332405924Y-48947251D02*
X332501162Y-48994870D01*
X332501162Y-48994870D02*
X332691638Y-49042489D01*
X332691638Y-49042489D02*
X332834495Y-49042489D01*
X332834495Y-49042489D02*
X333024971Y-48994870D01*
X333024971Y-48994870D02*
X333120209Y-48947251D01*
X333120209Y-48947251D02*
X333215448Y-48852013D01*
X333215448Y-48852013D02*
X333263067Y-48709156D01*
X333263067Y-48709156D02*
X333263067Y-48471061D01*
X332263067Y-49375823D02*
X332263067Y-49994870D01*
X332263067Y-49994870D02*
X332644019Y-49661537D01*
X332644019Y-49661537D02*
X332644019Y-49804394D01*
X332644019Y-49804394D02*
X332691638Y-49899632D01*
X332691638Y-49899632D02*
X332739257Y-49947251D01*
X332739257Y-49947251D02*
X332834495Y-49994870D01*
X332834495Y-49994870D02*
X333072590Y-49994870D01*
X333072590Y-49994870D02*
X333167828Y-49947251D01*
X333167828Y-49947251D02*
X333215448Y-49899632D01*
X333215448Y-49899632D02*
X333263067Y-49804394D01*
X333263067Y-49804394D02*
X333263067Y-49518680D01*
X333263067Y-49518680D02*
X333215448Y-49423442D01*
X333215448Y-49423442D02*
X333167828Y-49375823D01*
X333263067Y-50947251D02*
X333263067Y-50375823D01*
X333263067Y-50661537D02*
X332263067Y-50661537D01*
X332263067Y-50661537D02*
X332405924Y-50566299D01*
X332405924Y-50566299D02*
X332501162Y-50471061D01*
X332501162Y-50471061D02*
X332548781Y-50375823D01*
X352313467Y-143723061D02*
X351313467Y-143723061D01*
X351313467Y-143723061D02*
X351313467Y-143961156D01*
X351313467Y-143961156D02*
X351361086Y-144104013D01*
X351361086Y-144104013D02*
X351456324Y-144199251D01*
X351456324Y-144199251D02*
X351551562Y-144246870D01*
X351551562Y-144246870D02*
X351742038Y-144294489D01*
X351742038Y-144294489D02*
X351884895Y-144294489D01*
X351884895Y-144294489D02*
X352075371Y-144246870D01*
X352075371Y-144246870D02*
X352170609Y-144199251D01*
X352170609Y-144199251D02*
X352265848Y-144104013D01*
X352265848Y-144104013D02*
X352313467Y-143961156D01*
X352313467Y-143961156D02*
X352313467Y-143723061D01*
X351313467Y-144627823D02*
X351313467Y-145246870D01*
X351313467Y-145246870D02*
X351694419Y-144913537D01*
X351694419Y-144913537D02*
X351694419Y-145056394D01*
X351694419Y-145056394D02*
X351742038Y-145151632D01*
X351742038Y-145151632D02*
X351789657Y-145199251D01*
X351789657Y-145199251D02*
X351884895Y-145246870D01*
X351884895Y-145246870D02*
X352122990Y-145246870D01*
X352122990Y-145246870D02*
X352218228Y-145199251D01*
X352218228Y-145199251D02*
X352265848Y-145151632D01*
X352265848Y-145151632D02*
X352313467Y-145056394D01*
X352313467Y-145056394D02*
X352313467Y-144770680D01*
X352313467Y-144770680D02*
X352265848Y-144675442D01*
X352265848Y-144675442D02*
X352218228Y-144627823D01*
X351313467Y-145865918D02*
X351313467Y-145961156D01*
X351313467Y-145961156D02*
X351361086Y-146056394D01*
X351361086Y-146056394D02*
X351408705Y-146104013D01*
X351408705Y-146104013D02*
X351503943Y-146151632D01*
X351503943Y-146151632D02*
X351694419Y-146199251D01*
X351694419Y-146199251D02*
X351932514Y-146199251D01*
X351932514Y-146199251D02*
X352122990Y-146151632D01*
X352122990Y-146151632D02*
X352218228Y-146104013D01*
X352218228Y-146104013D02*
X352265848Y-146056394D01*
X352265848Y-146056394D02*
X352313467Y-145961156D01*
X352313467Y-145961156D02*
X352313467Y-145865918D01*
X352313467Y-145865918D02*
X352265848Y-145770680D01*
X352265848Y-145770680D02*
X352218228Y-145723061D01*
X352218228Y-145723061D02*
X352122990Y-145675442D01*
X352122990Y-145675442D02*
X351932514Y-145627823D01*
X351932514Y-145627823D02*
X351694419Y-145627823D01*
X351694419Y-145627823D02*
X351503943Y-145675442D01*
X351503943Y-145675442D02*
X351408705Y-145723061D01*
X351408705Y-145723061D02*
X351361086Y-145770680D01*
X351361086Y-145770680D02*
X351313467Y-145865918D01*
X280874467Y-124672661D02*
X279874467Y-124672661D01*
X279874467Y-124672661D02*
X279874467Y-124910756D01*
X279874467Y-124910756D02*
X279922086Y-125053613D01*
X279922086Y-125053613D02*
X280017324Y-125148851D01*
X280017324Y-125148851D02*
X280112562Y-125196470D01*
X280112562Y-125196470D02*
X280303038Y-125244089D01*
X280303038Y-125244089D02*
X280445895Y-125244089D01*
X280445895Y-125244089D02*
X280636371Y-125196470D01*
X280636371Y-125196470D02*
X280731609Y-125148851D01*
X280731609Y-125148851D02*
X280826848Y-125053613D01*
X280826848Y-125053613D02*
X280874467Y-124910756D01*
X280874467Y-124910756D02*
X280874467Y-124672661D01*
X280874467Y-126196470D02*
X280874467Y-125625042D01*
X280874467Y-125910756D02*
X279874467Y-125910756D01*
X279874467Y-125910756D02*
X280017324Y-125815518D01*
X280017324Y-125815518D02*
X280112562Y-125720280D01*
X280112562Y-125720280D02*
X280160181Y-125625042D01*
X280874467Y-127148851D02*
X280874467Y-126577423D01*
X280874467Y-126863137D02*
X279874467Y-126863137D01*
X279874467Y-126863137D02*
X280017324Y-126767899D01*
X280017324Y-126767899D02*
X280112562Y-126672661D01*
X280112562Y-126672661D02*
X280160181Y-126577423D01*
X338025667Y-124672661D02*
X337025667Y-124672661D01*
X337025667Y-124672661D02*
X337025667Y-124910756D01*
X337025667Y-124910756D02*
X337073286Y-125053613D01*
X337073286Y-125053613D02*
X337168524Y-125148851D01*
X337168524Y-125148851D02*
X337263762Y-125196470D01*
X337263762Y-125196470D02*
X337454238Y-125244089D01*
X337454238Y-125244089D02*
X337597095Y-125244089D01*
X337597095Y-125244089D02*
X337787571Y-125196470D01*
X337787571Y-125196470D02*
X337882809Y-125148851D01*
X337882809Y-125148851D02*
X337978048Y-125053613D01*
X337978048Y-125053613D02*
X338025667Y-124910756D01*
X338025667Y-124910756D02*
X338025667Y-124672661D01*
X337120905Y-125625042D02*
X337073286Y-125672661D01*
X337073286Y-125672661D02*
X337025667Y-125767899D01*
X337025667Y-125767899D02*
X337025667Y-126005994D01*
X337025667Y-126005994D02*
X337073286Y-126101232D01*
X337073286Y-126101232D02*
X337120905Y-126148851D01*
X337120905Y-126148851D02*
X337216143Y-126196470D01*
X337216143Y-126196470D02*
X337311381Y-126196470D01*
X337311381Y-126196470D02*
X337454238Y-126148851D01*
X337454238Y-126148851D02*
X338025667Y-125577423D01*
X338025667Y-125577423D02*
X338025667Y-126196470D01*
X338025667Y-126672661D02*
X338025667Y-126863137D01*
X338025667Y-126863137D02*
X337978048Y-126958375D01*
X337978048Y-126958375D02*
X337930428Y-127005994D01*
X337930428Y-127005994D02*
X337787571Y-127101232D01*
X337787571Y-127101232D02*
X337597095Y-127148851D01*
X337597095Y-127148851D02*
X337216143Y-127148851D01*
X337216143Y-127148851D02*
X337120905Y-127101232D01*
X337120905Y-127101232D02*
X337073286Y-127053613D01*
X337073286Y-127053613D02*
X337025667Y-126958375D01*
X337025667Y-126958375D02*
X337025667Y-126767899D01*
X337025667Y-126767899D02*
X337073286Y-126672661D01*
X337073286Y-126672661D02*
X337120905Y-126625042D01*
X337120905Y-126625042D02*
X337216143Y-126577423D01*
X337216143Y-126577423D02*
X337454238Y-126577423D01*
X337454238Y-126577423D02*
X337549476Y-126625042D01*
X337549476Y-126625042D02*
X337597095Y-126672661D01*
X337597095Y-126672661D02*
X337644714Y-126767899D01*
X337644714Y-126767899D02*
X337644714Y-126958375D01*
X337644714Y-126958375D02*
X337597095Y-127053613D01*
X337597095Y-127053613D02*
X337549476Y-127101232D01*
X337549476Y-127101232D02*
X337454238Y-127148851D01*
X205032594Y-124694111D02*
X204032594Y-124694111D01*
X204032594Y-124694111D02*
X204032594Y-124932206D01*
X204032594Y-124932206D02*
X204080213Y-125075063D01*
X204080213Y-125075063D02*
X204175451Y-125170301D01*
X204175451Y-125170301D02*
X204270689Y-125217920D01*
X204270689Y-125217920D02*
X204461165Y-125265539D01*
X204461165Y-125265539D02*
X204604022Y-125265539D01*
X204604022Y-125265539D02*
X204794498Y-125217920D01*
X204794498Y-125217920D02*
X204889736Y-125170301D01*
X204889736Y-125170301D02*
X204984975Y-125075063D01*
X204984975Y-125075063D02*
X205032594Y-124932206D01*
X205032594Y-124932206D02*
X205032594Y-124694111D01*
X204461165Y-125836968D02*
X204413546Y-125741730D01*
X204413546Y-125741730D02*
X204365927Y-125694111D01*
X204365927Y-125694111D02*
X204270689Y-125646492D01*
X204270689Y-125646492D02*
X204223070Y-125646492D01*
X204223070Y-125646492D02*
X204127832Y-125694111D01*
X204127832Y-125694111D02*
X204080213Y-125741730D01*
X204080213Y-125741730D02*
X204032594Y-125836968D01*
X204032594Y-125836968D02*
X204032594Y-126027444D01*
X204032594Y-126027444D02*
X204080213Y-126122682D01*
X204080213Y-126122682D02*
X204127832Y-126170301D01*
X204127832Y-126170301D02*
X204223070Y-126217920D01*
X204223070Y-126217920D02*
X204270689Y-126217920D01*
X204270689Y-126217920D02*
X204365927Y-126170301D01*
X204365927Y-126170301D02*
X204413546Y-126122682D01*
X204413546Y-126122682D02*
X204461165Y-126027444D01*
X204461165Y-126027444D02*
X204461165Y-125836968D01*
X204461165Y-125836968D02*
X204508784Y-125741730D01*
X204508784Y-125741730D02*
X204556403Y-125694111D01*
X204556403Y-125694111D02*
X204651641Y-125646492D01*
X204651641Y-125646492D02*
X204842117Y-125646492D01*
X204842117Y-125646492D02*
X204937355Y-125694111D01*
X204937355Y-125694111D02*
X204984975Y-125741730D01*
X204984975Y-125741730D02*
X205032594Y-125836968D01*
X205032594Y-125836968D02*
X205032594Y-126027444D01*
X205032594Y-126027444D02*
X204984975Y-126122682D01*
X204984975Y-126122682D02*
X204937355Y-126170301D01*
X204937355Y-126170301D02*
X204842117Y-126217920D01*
X204842117Y-126217920D02*
X204651641Y-126217920D01*
X204651641Y-126217920D02*
X204556403Y-126170301D01*
X204556403Y-126170301D02*
X204508784Y-126122682D01*
X204508784Y-126122682D02*
X204461165Y-126027444D01*
X204032594Y-126551254D02*
X204032594Y-127217920D01*
X204032594Y-127217920D02*
X205032594Y-126789349D01*
X133593594Y-124694111D02*
X132593594Y-124694111D01*
X132593594Y-124694111D02*
X132593594Y-124932206D01*
X132593594Y-124932206D02*
X132641213Y-125075063D01*
X132641213Y-125075063D02*
X132736451Y-125170301D01*
X132736451Y-125170301D02*
X132831689Y-125217920D01*
X132831689Y-125217920D02*
X133022165Y-125265539D01*
X133022165Y-125265539D02*
X133165022Y-125265539D01*
X133165022Y-125265539D02*
X133355498Y-125217920D01*
X133355498Y-125217920D02*
X133450736Y-125170301D01*
X133450736Y-125170301D02*
X133545975Y-125075063D01*
X133545975Y-125075063D02*
X133593594Y-124932206D01*
X133593594Y-124932206D02*
X133593594Y-124694111D01*
X132593594Y-125598873D02*
X132593594Y-126265539D01*
X132593594Y-126265539D02*
X133593594Y-125836968D01*
X132593594Y-126836968D02*
X132593594Y-126932206D01*
X132593594Y-126932206D02*
X132641213Y-127027444D01*
X132641213Y-127027444D02*
X132688832Y-127075063D01*
X132688832Y-127075063D02*
X132784070Y-127122682D01*
X132784070Y-127122682D02*
X132974546Y-127170301D01*
X132974546Y-127170301D02*
X133212641Y-127170301D01*
X133212641Y-127170301D02*
X133403117Y-127122682D01*
X133403117Y-127122682D02*
X133498355Y-127075063D01*
X133498355Y-127075063D02*
X133545975Y-127027444D01*
X133545975Y-127027444D02*
X133593594Y-126932206D01*
X133593594Y-126932206D02*
X133593594Y-126836968D01*
X133593594Y-126836968D02*
X133545975Y-126741730D01*
X133545975Y-126741730D02*
X133498355Y-126694111D01*
X133498355Y-126694111D02*
X133403117Y-126646492D01*
X133403117Y-126646492D02*
X133212641Y-126598873D01*
X133212641Y-126598873D02*
X132974546Y-126598873D01*
X132974546Y-126598873D02*
X132784070Y-126646492D01*
X132784070Y-126646492D02*
X132688832Y-126694111D01*
X132688832Y-126694111D02*
X132641213Y-126741730D01*
X132641213Y-126741730D02*
X132593594Y-126836968D01*
X295162267Y-67521461D02*
X294162267Y-67521461D01*
X294162267Y-67521461D02*
X294162267Y-67759556D01*
X294162267Y-67759556D02*
X294209886Y-67902413D01*
X294209886Y-67902413D02*
X294305124Y-67997651D01*
X294305124Y-67997651D02*
X294400362Y-68045270D01*
X294400362Y-68045270D02*
X294590838Y-68092889D01*
X294590838Y-68092889D02*
X294733695Y-68092889D01*
X294733695Y-68092889D02*
X294924171Y-68045270D01*
X294924171Y-68045270D02*
X295019409Y-67997651D01*
X295019409Y-67997651D02*
X295114648Y-67902413D01*
X295114648Y-67902413D02*
X295162267Y-67759556D01*
X295162267Y-67759556D02*
X295162267Y-67521461D01*
X294257505Y-68473842D02*
X294209886Y-68521461D01*
X294209886Y-68521461D02*
X294162267Y-68616699D01*
X294162267Y-68616699D02*
X294162267Y-68854794D01*
X294162267Y-68854794D02*
X294209886Y-68950032D01*
X294209886Y-68950032D02*
X294257505Y-68997651D01*
X294257505Y-68997651D02*
X294352743Y-69045270D01*
X294352743Y-69045270D02*
X294447981Y-69045270D01*
X294447981Y-69045270D02*
X294590838Y-68997651D01*
X294590838Y-68997651D02*
X295162267Y-68426223D01*
X295162267Y-68426223D02*
X295162267Y-69045270D01*
X294162267Y-69664318D02*
X294162267Y-69759556D01*
X294162267Y-69759556D02*
X294209886Y-69854794D01*
X294209886Y-69854794D02*
X294257505Y-69902413D01*
X294257505Y-69902413D02*
X294352743Y-69950032D01*
X294352743Y-69950032D02*
X294543219Y-69997651D01*
X294543219Y-69997651D02*
X294781314Y-69997651D01*
X294781314Y-69997651D02*
X294971790Y-69950032D01*
X294971790Y-69950032D02*
X295067028Y-69902413D01*
X295067028Y-69902413D02*
X295114648Y-69854794D01*
X295114648Y-69854794D02*
X295162267Y-69759556D01*
X295162267Y-69759556D02*
X295162267Y-69664318D01*
X295162267Y-69664318D02*
X295114648Y-69569080D01*
X295114648Y-69569080D02*
X295067028Y-69521461D01*
X295067028Y-69521461D02*
X294971790Y-69473842D01*
X294971790Y-69473842D02*
X294781314Y-69426223D01*
X294781314Y-69426223D02*
X294543219Y-69426223D01*
X294543219Y-69426223D02*
X294352743Y-69473842D01*
X294352743Y-69473842D02*
X294257505Y-69521461D01*
X294257505Y-69521461D02*
X294209886Y-69569080D01*
X294209886Y-69569080D02*
X294162267Y-69664318D01*
X176456994Y-67542911D02*
X175456994Y-67542911D01*
X175456994Y-67542911D02*
X175456994Y-67781006D01*
X175456994Y-67781006D02*
X175504613Y-67923863D01*
X175504613Y-67923863D02*
X175599851Y-68019101D01*
X175599851Y-68019101D02*
X175695089Y-68066720D01*
X175695089Y-68066720D02*
X175885565Y-68114339D01*
X175885565Y-68114339D02*
X176028422Y-68114339D01*
X176028422Y-68114339D02*
X176218898Y-68066720D01*
X176218898Y-68066720D02*
X176314136Y-68019101D01*
X176314136Y-68019101D02*
X176409375Y-67923863D01*
X176409375Y-67923863D02*
X176456994Y-67781006D01*
X176456994Y-67781006D02*
X176456994Y-67542911D01*
X175456994Y-68447673D02*
X175456994Y-69114339D01*
X175456994Y-69114339D02*
X176456994Y-68685768D01*
X175456994Y-69400054D02*
X175456994Y-70019101D01*
X175456994Y-70019101D02*
X175837946Y-69685768D01*
X175837946Y-69685768D02*
X175837946Y-69828625D01*
X175837946Y-69828625D02*
X175885565Y-69923863D01*
X175885565Y-69923863D02*
X175933184Y-69971482D01*
X175933184Y-69971482D02*
X176028422Y-70019101D01*
X176028422Y-70019101D02*
X176266517Y-70019101D01*
X176266517Y-70019101D02*
X176361755Y-69971482D01*
X176361755Y-69971482D02*
X176409375Y-69923863D01*
X176409375Y-69923863D02*
X176456994Y-69828625D01*
X176456994Y-69828625D02*
X176456994Y-69542911D01*
X176456994Y-69542911D02*
X176409375Y-69447673D01*
X176409375Y-69447673D02*
X176361755Y-69400054D01*
X304687467Y-86571861D02*
X303687467Y-86571861D01*
X303687467Y-86571861D02*
X303687467Y-86809956D01*
X303687467Y-86809956D02*
X303735086Y-86952813D01*
X303735086Y-86952813D02*
X303830324Y-87048051D01*
X303830324Y-87048051D02*
X303925562Y-87095670D01*
X303925562Y-87095670D02*
X304116038Y-87143289D01*
X304116038Y-87143289D02*
X304258895Y-87143289D01*
X304258895Y-87143289D02*
X304449371Y-87095670D01*
X304449371Y-87095670D02*
X304544609Y-87048051D01*
X304544609Y-87048051D02*
X304639848Y-86952813D01*
X304639848Y-86952813D02*
X304687467Y-86809956D01*
X304687467Y-86809956D02*
X304687467Y-86571861D01*
X303782705Y-87524242D02*
X303735086Y-87571861D01*
X303735086Y-87571861D02*
X303687467Y-87667099D01*
X303687467Y-87667099D02*
X303687467Y-87905194D01*
X303687467Y-87905194D02*
X303735086Y-88000432D01*
X303735086Y-88000432D02*
X303782705Y-88048051D01*
X303782705Y-88048051D02*
X303877943Y-88095670D01*
X303877943Y-88095670D02*
X303973181Y-88095670D01*
X303973181Y-88095670D02*
X304116038Y-88048051D01*
X304116038Y-88048051D02*
X304687467Y-87476623D01*
X304687467Y-87476623D02*
X304687467Y-88095670D01*
X304687467Y-89048051D02*
X304687467Y-88476623D01*
X304687467Y-88762337D02*
X303687467Y-88762337D01*
X303687467Y-88762337D02*
X303830324Y-88667099D01*
X303830324Y-88667099D02*
X303925562Y-88571861D01*
X303925562Y-88571861D02*
X303973181Y-88476623D01*
X185982194Y-124694111D02*
X184982194Y-124694111D01*
X184982194Y-124694111D02*
X184982194Y-124932206D01*
X184982194Y-124932206D02*
X185029813Y-125075063D01*
X185029813Y-125075063D02*
X185125051Y-125170301D01*
X185125051Y-125170301D02*
X185220289Y-125217920D01*
X185220289Y-125217920D02*
X185410765Y-125265539D01*
X185410765Y-125265539D02*
X185553622Y-125265539D01*
X185553622Y-125265539D02*
X185744098Y-125217920D01*
X185744098Y-125217920D02*
X185839336Y-125170301D01*
X185839336Y-125170301D02*
X185934575Y-125075063D01*
X185934575Y-125075063D02*
X185982194Y-124932206D01*
X185982194Y-124932206D02*
X185982194Y-124694111D01*
X185410765Y-125836968D02*
X185363146Y-125741730D01*
X185363146Y-125741730D02*
X185315527Y-125694111D01*
X185315527Y-125694111D02*
X185220289Y-125646492D01*
X185220289Y-125646492D02*
X185172670Y-125646492D01*
X185172670Y-125646492D02*
X185077432Y-125694111D01*
X185077432Y-125694111D02*
X185029813Y-125741730D01*
X185029813Y-125741730D02*
X184982194Y-125836968D01*
X184982194Y-125836968D02*
X184982194Y-126027444D01*
X184982194Y-126027444D02*
X185029813Y-126122682D01*
X185029813Y-126122682D02*
X185077432Y-126170301D01*
X185077432Y-126170301D02*
X185172670Y-126217920D01*
X185172670Y-126217920D02*
X185220289Y-126217920D01*
X185220289Y-126217920D02*
X185315527Y-126170301D01*
X185315527Y-126170301D02*
X185363146Y-126122682D01*
X185363146Y-126122682D02*
X185410765Y-126027444D01*
X185410765Y-126027444D02*
X185410765Y-125836968D01*
X185410765Y-125836968D02*
X185458384Y-125741730D01*
X185458384Y-125741730D02*
X185506003Y-125694111D01*
X185506003Y-125694111D02*
X185601241Y-125646492D01*
X185601241Y-125646492D02*
X185791717Y-125646492D01*
X185791717Y-125646492D02*
X185886955Y-125694111D01*
X185886955Y-125694111D02*
X185934575Y-125741730D01*
X185934575Y-125741730D02*
X185982194Y-125836968D01*
X185982194Y-125836968D02*
X185982194Y-126027444D01*
X185982194Y-126027444D02*
X185934575Y-126122682D01*
X185934575Y-126122682D02*
X185886955Y-126170301D01*
X185886955Y-126170301D02*
X185791717Y-126217920D01*
X185791717Y-126217920D02*
X185601241Y-126217920D01*
X185601241Y-126217920D02*
X185506003Y-126170301D01*
X185506003Y-126170301D02*
X185458384Y-126122682D01*
X185458384Y-126122682D02*
X185410765Y-126027444D01*
X185077432Y-126598873D02*
X185029813Y-126646492D01*
X185029813Y-126646492D02*
X184982194Y-126741730D01*
X184982194Y-126741730D02*
X184982194Y-126979825D01*
X184982194Y-126979825D02*
X185029813Y-127075063D01*
X185029813Y-127075063D02*
X185077432Y-127122682D01*
X185077432Y-127122682D02*
X185172670Y-127170301D01*
X185172670Y-127170301D02*
X185267908Y-127170301D01*
X185267908Y-127170301D02*
X185410765Y-127122682D01*
X185410765Y-127122682D02*
X185982194Y-126551254D01*
X185982194Y-126551254D02*
X185982194Y-127170301D01*
X347550867Y-105622261D02*
X346550867Y-105622261D01*
X346550867Y-105622261D02*
X346550867Y-105860356D01*
X346550867Y-105860356D02*
X346598486Y-106003213D01*
X346598486Y-106003213D02*
X346693724Y-106098451D01*
X346693724Y-106098451D02*
X346788962Y-106146070D01*
X346788962Y-106146070D02*
X346979438Y-106193689D01*
X346979438Y-106193689D02*
X347122295Y-106193689D01*
X347122295Y-106193689D02*
X347312771Y-106146070D01*
X347312771Y-106146070D02*
X347408009Y-106098451D01*
X347408009Y-106098451D02*
X347503248Y-106003213D01*
X347503248Y-106003213D02*
X347550867Y-105860356D01*
X347550867Y-105860356D02*
X347550867Y-105622261D01*
X346550867Y-106527023D02*
X346550867Y-107146070D01*
X346550867Y-107146070D02*
X346931819Y-106812737D01*
X346931819Y-106812737D02*
X346931819Y-106955594D01*
X346931819Y-106955594D02*
X346979438Y-107050832D01*
X346979438Y-107050832D02*
X347027057Y-107098451D01*
X347027057Y-107098451D02*
X347122295Y-107146070D01*
X347122295Y-107146070D02*
X347360390Y-107146070D01*
X347360390Y-107146070D02*
X347455628Y-107098451D01*
X347455628Y-107098451D02*
X347503248Y-107050832D01*
X347503248Y-107050832D02*
X347550867Y-106955594D01*
X347550867Y-106955594D02*
X347550867Y-106669880D01*
X347550867Y-106669880D02*
X347503248Y-106574642D01*
X347503248Y-106574642D02*
X347455628Y-106527023D01*
X346884200Y-108003213D02*
X347550867Y-108003213D01*
X346503248Y-107765118D02*
X347217533Y-107527023D01*
X347217533Y-107527023D02*
X347217533Y-108146070D01*
X328500467Y-105622261D02*
X327500467Y-105622261D01*
X327500467Y-105622261D02*
X327500467Y-105860356D01*
X327500467Y-105860356D02*
X327548086Y-106003213D01*
X327548086Y-106003213D02*
X327643324Y-106098451D01*
X327643324Y-106098451D02*
X327738562Y-106146070D01*
X327738562Y-106146070D02*
X327929038Y-106193689D01*
X327929038Y-106193689D02*
X328071895Y-106193689D01*
X328071895Y-106193689D02*
X328262371Y-106146070D01*
X328262371Y-106146070D02*
X328357609Y-106098451D01*
X328357609Y-106098451D02*
X328452848Y-106003213D01*
X328452848Y-106003213D02*
X328500467Y-105860356D01*
X328500467Y-105860356D02*
X328500467Y-105622261D01*
X327595705Y-106574642D02*
X327548086Y-106622261D01*
X327548086Y-106622261D02*
X327500467Y-106717499D01*
X327500467Y-106717499D02*
X327500467Y-106955594D01*
X327500467Y-106955594D02*
X327548086Y-107050832D01*
X327548086Y-107050832D02*
X327595705Y-107098451D01*
X327595705Y-107098451D02*
X327690943Y-107146070D01*
X327690943Y-107146070D02*
X327786181Y-107146070D01*
X327786181Y-107146070D02*
X327929038Y-107098451D01*
X327929038Y-107098451D02*
X328500467Y-106527023D01*
X328500467Y-106527023D02*
X328500467Y-107146070D01*
X327929038Y-107717499D02*
X327881419Y-107622261D01*
X327881419Y-107622261D02*
X327833800Y-107574642D01*
X327833800Y-107574642D02*
X327738562Y-107527023D01*
X327738562Y-107527023D02*
X327690943Y-107527023D01*
X327690943Y-107527023D02*
X327595705Y-107574642D01*
X327595705Y-107574642D02*
X327548086Y-107622261D01*
X327548086Y-107622261D02*
X327500467Y-107717499D01*
X327500467Y-107717499D02*
X327500467Y-107907975D01*
X327500467Y-107907975D02*
X327548086Y-108003213D01*
X327548086Y-108003213D02*
X327595705Y-108050832D01*
X327595705Y-108050832D02*
X327690943Y-108098451D01*
X327690943Y-108098451D02*
X327738562Y-108098451D01*
X327738562Y-108098451D02*
X327833800Y-108050832D01*
X327833800Y-108050832D02*
X327881419Y-108003213D01*
X327881419Y-108003213D02*
X327929038Y-107907975D01*
X327929038Y-107907975D02*
X327929038Y-107717499D01*
X327929038Y-107717499D02*
X327976657Y-107622261D01*
X327976657Y-107622261D02*
X328024276Y-107574642D01*
X328024276Y-107574642D02*
X328119514Y-107527023D01*
X328119514Y-107527023D02*
X328309990Y-107527023D01*
X328309990Y-107527023D02*
X328405228Y-107574642D01*
X328405228Y-107574642D02*
X328452848Y-107622261D01*
X328452848Y-107622261D02*
X328500467Y-107717499D01*
X328500467Y-107717499D02*
X328500467Y-107907975D01*
X328500467Y-107907975D02*
X328452848Y-108003213D01*
X328452848Y-108003213D02*
X328405228Y-108050832D01*
X328405228Y-108050832D02*
X328309990Y-108098451D01*
X328309990Y-108098451D02*
X328119514Y-108098451D01*
X328119514Y-108098451D02*
X328024276Y-108050832D01*
X328024276Y-108050832D02*
X327976657Y-108003213D01*
X327976657Y-108003213D02*
X327929038Y-107907975D01*
X159787894Y-124694111D02*
X158787894Y-124694111D01*
X158787894Y-124694111D02*
X158787894Y-124932206D01*
X158787894Y-124932206D02*
X158835513Y-125075063D01*
X158835513Y-125075063D02*
X158930751Y-125170301D01*
X158930751Y-125170301D02*
X159025989Y-125217920D01*
X159025989Y-125217920D02*
X159216465Y-125265539D01*
X159216465Y-125265539D02*
X159359322Y-125265539D01*
X159359322Y-125265539D02*
X159549798Y-125217920D01*
X159549798Y-125217920D02*
X159645036Y-125170301D01*
X159645036Y-125170301D02*
X159740275Y-125075063D01*
X159740275Y-125075063D02*
X159787894Y-124932206D01*
X159787894Y-124932206D02*
X159787894Y-124694111D01*
X158787894Y-125598873D02*
X158787894Y-126265539D01*
X158787894Y-126265539D02*
X159787894Y-125836968D01*
X158787894Y-127075063D02*
X158787894Y-126884587D01*
X158787894Y-126884587D02*
X158835513Y-126789349D01*
X158835513Y-126789349D02*
X158883132Y-126741730D01*
X158883132Y-126741730D02*
X159025989Y-126646492D01*
X159025989Y-126646492D02*
X159216465Y-126598873D01*
X159216465Y-126598873D02*
X159597417Y-126598873D01*
X159597417Y-126598873D02*
X159692655Y-126646492D01*
X159692655Y-126646492D02*
X159740275Y-126694111D01*
X159740275Y-126694111D02*
X159787894Y-126789349D01*
X159787894Y-126789349D02*
X159787894Y-126979825D01*
X159787894Y-126979825D02*
X159740275Y-127075063D01*
X159740275Y-127075063D02*
X159692655Y-127122682D01*
X159692655Y-127122682D02*
X159597417Y-127170301D01*
X159597417Y-127170301D02*
X159359322Y-127170301D01*
X159359322Y-127170301D02*
X159264084Y-127122682D01*
X159264084Y-127122682D02*
X159216465Y-127075063D01*
X159216465Y-127075063D02*
X159168846Y-126979825D01*
X159168846Y-126979825D02*
X159168846Y-126789349D01*
X159168846Y-126789349D02*
X159216465Y-126694111D01*
X159216465Y-126694111D02*
X159264084Y-126646492D01*
X159264084Y-126646492D02*
X159359322Y-126598873D01*
X181219594Y-86593311D02*
X180219594Y-86593311D01*
X180219594Y-86593311D02*
X180219594Y-86831406D01*
X180219594Y-86831406D02*
X180267213Y-86974263D01*
X180267213Y-86974263D02*
X180362451Y-87069501D01*
X180362451Y-87069501D02*
X180457689Y-87117120D01*
X180457689Y-87117120D02*
X180648165Y-87164739D01*
X180648165Y-87164739D02*
X180791022Y-87164739D01*
X180791022Y-87164739D02*
X180981498Y-87117120D01*
X180981498Y-87117120D02*
X181076736Y-87069501D01*
X181076736Y-87069501D02*
X181171975Y-86974263D01*
X181171975Y-86974263D02*
X181219594Y-86831406D01*
X181219594Y-86831406D02*
X181219594Y-86593311D01*
X180648165Y-87736168D02*
X180600546Y-87640930D01*
X180600546Y-87640930D02*
X180552927Y-87593311D01*
X180552927Y-87593311D02*
X180457689Y-87545692D01*
X180457689Y-87545692D02*
X180410070Y-87545692D01*
X180410070Y-87545692D02*
X180314832Y-87593311D01*
X180314832Y-87593311D02*
X180267213Y-87640930D01*
X180267213Y-87640930D02*
X180219594Y-87736168D01*
X180219594Y-87736168D02*
X180219594Y-87926644D01*
X180219594Y-87926644D02*
X180267213Y-88021882D01*
X180267213Y-88021882D02*
X180314832Y-88069501D01*
X180314832Y-88069501D02*
X180410070Y-88117120D01*
X180410070Y-88117120D02*
X180457689Y-88117120D01*
X180457689Y-88117120D02*
X180552927Y-88069501D01*
X180552927Y-88069501D02*
X180600546Y-88021882D01*
X180600546Y-88021882D02*
X180648165Y-87926644D01*
X180648165Y-87926644D02*
X180648165Y-87736168D01*
X180648165Y-87736168D02*
X180695784Y-87640930D01*
X180695784Y-87640930D02*
X180743403Y-87593311D01*
X180743403Y-87593311D02*
X180838641Y-87545692D01*
X180838641Y-87545692D02*
X181029117Y-87545692D01*
X181029117Y-87545692D02*
X181124355Y-87593311D01*
X181124355Y-87593311D02*
X181171975Y-87640930D01*
X181171975Y-87640930D02*
X181219594Y-87736168D01*
X181219594Y-87736168D02*
X181219594Y-87926644D01*
X181219594Y-87926644D02*
X181171975Y-88021882D01*
X181171975Y-88021882D02*
X181124355Y-88069501D01*
X181124355Y-88069501D02*
X181029117Y-88117120D01*
X181029117Y-88117120D02*
X180838641Y-88117120D01*
X180838641Y-88117120D02*
X180743403Y-88069501D01*
X180743403Y-88069501D02*
X180695784Y-88021882D01*
X180695784Y-88021882D02*
X180648165Y-87926644D01*
X180219594Y-88736168D02*
X180219594Y-88831406D01*
X180219594Y-88831406D02*
X180267213Y-88926644D01*
X180267213Y-88926644D02*
X180314832Y-88974263D01*
X180314832Y-88974263D02*
X180410070Y-89021882D01*
X180410070Y-89021882D02*
X180600546Y-89069501D01*
X180600546Y-89069501D02*
X180838641Y-89069501D01*
X180838641Y-89069501D02*
X181029117Y-89021882D01*
X181029117Y-89021882D02*
X181124355Y-88974263D01*
X181124355Y-88974263D02*
X181171975Y-88926644D01*
X181171975Y-88926644D02*
X181219594Y-88831406D01*
X181219594Y-88831406D02*
X181219594Y-88736168D01*
X181219594Y-88736168D02*
X181171975Y-88640930D01*
X181171975Y-88640930D02*
X181124355Y-88593311D01*
X181124355Y-88593311D02*
X181029117Y-88545692D01*
X181029117Y-88545692D02*
X180838641Y-88498073D01*
X180838641Y-88498073D02*
X180600546Y-88498073D01*
X180600546Y-88498073D02*
X180410070Y-88545692D01*
X180410070Y-88545692D02*
X180314832Y-88593311D01*
X180314832Y-88593311D02*
X180267213Y-88640930D01*
X180267213Y-88640930D02*
X180219594Y-88736168D01*
X119305794Y-86593311D02*
X118305794Y-86593311D01*
X118305794Y-86593311D02*
X118305794Y-86831406D01*
X118305794Y-86831406D02*
X118353413Y-86974263D01*
X118353413Y-86974263D02*
X118448651Y-87069501D01*
X118448651Y-87069501D02*
X118543889Y-87117120D01*
X118543889Y-87117120D02*
X118734365Y-87164739D01*
X118734365Y-87164739D02*
X118877222Y-87164739D01*
X118877222Y-87164739D02*
X119067698Y-87117120D01*
X119067698Y-87117120D02*
X119162936Y-87069501D01*
X119162936Y-87069501D02*
X119258175Y-86974263D01*
X119258175Y-86974263D02*
X119305794Y-86831406D01*
X119305794Y-86831406D02*
X119305794Y-86593311D01*
X118305794Y-88021882D02*
X118305794Y-87831406D01*
X118305794Y-87831406D02*
X118353413Y-87736168D01*
X118353413Y-87736168D02*
X118401032Y-87688549D01*
X118401032Y-87688549D02*
X118543889Y-87593311D01*
X118543889Y-87593311D02*
X118734365Y-87545692D01*
X118734365Y-87545692D02*
X119115317Y-87545692D01*
X119115317Y-87545692D02*
X119210555Y-87593311D01*
X119210555Y-87593311D02*
X119258175Y-87640930D01*
X119258175Y-87640930D02*
X119305794Y-87736168D01*
X119305794Y-87736168D02*
X119305794Y-87926644D01*
X119305794Y-87926644D02*
X119258175Y-88021882D01*
X119258175Y-88021882D02*
X119210555Y-88069501D01*
X119210555Y-88069501D02*
X119115317Y-88117120D01*
X119115317Y-88117120D02*
X118877222Y-88117120D01*
X118877222Y-88117120D02*
X118781984Y-88069501D01*
X118781984Y-88069501D02*
X118734365Y-88021882D01*
X118734365Y-88021882D02*
X118686746Y-87926644D01*
X118686746Y-87926644D02*
X118686746Y-87736168D01*
X118686746Y-87736168D02*
X118734365Y-87640930D01*
X118734365Y-87640930D02*
X118781984Y-87593311D01*
X118781984Y-87593311D02*
X118877222Y-87545692D01*
X118401032Y-88498073D02*
X118353413Y-88545692D01*
X118353413Y-88545692D02*
X118305794Y-88640930D01*
X118305794Y-88640930D02*
X118305794Y-88879025D01*
X118305794Y-88879025D02*
X118353413Y-88974263D01*
X118353413Y-88974263D02*
X118401032Y-89021882D01*
X118401032Y-89021882D02*
X118496270Y-89069501D01*
X118496270Y-89069501D02*
X118591508Y-89069501D01*
X118591508Y-89069501D02*
X118734365Y-89021882D01*
X118734365Y-89021882D02*
X119305794Y-88450454D01*
X119305794Y-88450454D02*
X119305794Y-89069501D01*
X109922669Y-48492511D02*
X108922669Y-48492511D01*
X108922669Y-48492511D02*
X108922669Y-48730606D01*
X108922669Y-48730606D02*
X108970288Y-48873463D01*
X108970288Y-48873463D02*
X109065526Y-48968701D01*
X109065526Y-48968701D02*
X109160764Y-49016320D01*
X109160764Y-49016320D02*
X109351240Y-49063939D01*
X109351240Y-49063939D02*
X109494097Y-49063939D01*
X109494097Y-49063939D02*
X109684573Y-49016320D01*
X109684573Y-49016320D02*
X109779811Y-48968701D01*
X109779811Y-48968701D02*
X109875050Y-48873463D01*
X109875050Y-48873463D02*
X109922669Y-48730606D01*
X109922669Y-48730606D02*
X109922669Y-48492511D01*
X108922669Y-49968701D02*
X108922669Y-49492511D01*
X108922669Y-49492511D02*
X109398859Y-49444892D01*
X109398859Y-49444892D02*
X109351240Y-49492511D01*
X109351240Y-49492511D02*
X109303621Y-49587749D01*
X109303621Y-49587749D02*
X109303621Y-49825844D01*
X109303621Y-49825844D02*
X109351240Y-49921082D01*
X109351240Y-49921082D02*
X109398859Y-49968701D01*
X109398859Y-49968701D02*
X109494097Y-50016320D01*
X109494097Y-50016320D02*
X109732192Y-50016320D01*
X109732192Y-50016320D02*
X109827430Y-49968701D01*
X109827430Y-49968701D02*
X109875050Y-49921082D01*
X109875050Y-49921082D02*
X109922669Y-49825844D01*
X109922669Y-49825844D02*
X109922669Y-49587749D01*
X109922669Y-49587749D02*
X109875050Y-49492511D01*
X109875050Y-49492511D02*
X109827430Y-49444892D01*
X109256002Y-50873463D02*
X109922669Y-50873463D01*
X108875050Y-50635368D02*
X109589335Y-50397273D01*
X109589335Y-50397273D02*
X109589335Y-51016320D01*
X357076067Y-124672661D02*
X356076067Y-124672661D01*
X356076067Y-124672661D02*
X356076067Y-124910756D01*
X356076067Y-124910756D02*
X356123686Y-125053613D01*
X356123686Y-125053613D02*
X356218924Y-125148851D01*
X356218924Y-125148851D02*
X356314162Y-125196470D01*
X356314162Y-125196470D02*
X356504638Y-125244089D01*
X356504638Y-125244089D02*
X356647495Y-125244089D01*
X356647495Y-125244089D02*
X356837971Y-125196470D01*
X356837971Y-125196470D02*
X356933209Y-125148851D01*
X356933209Y-125148851D02*
X357028448Y-125053613D01*
X357028448Y-125053613D02*
X357076067Y-124910756D01*
X357076067Y-124910756D02*
X357076067Y-124672661D01*
X356076067Y-125577423D02*
X356076067Y-126196470D01*
X356076067Y-126196470D02*
X356457019Y-125863137D01*
X356457019Y-125863137D02*
X356457019Y-126005994D01*
X356457019Y-126005994D02*
X356504638Y-126101232D01*
X356504638Y-126101232D02*
X356552257Y-126148851D01*
X356552257Y-126148851D02*
X356647495Y-126196470D01*
X356647495Y-126196470D02*
X356885590Y-126196470D01*
X356885590Y-126196470D02*
X356980828Y-126148851D01*
X356980828Y-126148851D02*
X357028448Y-126101232D01*
X357028448Y-126101232D02*
X357076067Y-126005994D01*
X357076067Y-126005994D02*
X357076067Y-125720280D01*
X357076067Y-125720280D02*
X357028448Y-125625042D01*
X357028448Y-125625042D02*
X356980828Y-125577423D01*
X356076067Y-127101232D02*
X356076067Y-126625042D01*
X356076067Y-126625042D02*
X356552257Y-126577423D01*
X356552257Y-126577423D02*
X356504638Y-126625042D01*
X356504638Y-126625042D02*
X356457019Y-126720280D01*
X356457019Y-126720280D02*
X356457019Y-126958375D01*
X356457019Y-126958375D02*
X356504638Y-127053613D01*
X356504638Y-127053613D02*
X356552257Y-127101232D01*
X356552257Y-127101232D02*
X356647495Y-127148851D01*
X356647495Y-127148851D02*
X356885590Y-127148851D01*
X356885590Y-127148851D02*
X356980828Y-127101232D01*
X356980828Y-127101232D02*
X357028448Y-127053613D01*
X357028448Y-127053613D02*
X357076067Y-126958375D01*
X357076067Y-126958375D02*
X357076067Y-126720280D01*
X357076067Y-126720280D02*
X357028448Y-126625042D01*
X357028448Y-126625042D02*
X356980828Y-126577423D01*
X276111867Y-67521461D02*
X275111867Y-67521461D01*
X275111867Y-67521461D02*
X275111867Y-67759556D01*
X275111867Y-67759556D02*
X275159486Y-67902413D01*
X275159486Y-67902413D02*
X275254724Y-67997651D01*
X275254724Y-67997651D02*
X275349962Y-68045270D01*
X275349962Y-68045270D02*
X275540438Y-68092889D01*
X275540438Y-68092889D02*
X275683295Y-68092889D01*
X275683295Y-68092889D02*
X275873771Y-68045270D01*
X275873771Y-68045270D02*
X275969009Y-67997651D01*
X275969009Y-67997651D02*
X276064248Y-67902413D01*
X276064248Y-67902413D02*
X276111867Y-67759556D01*
X276111867Y-67759556D02*
X276111867Y-67521461D01*
X276111867Y-69045270D02*
X276111867Y-68473842D01*
X276111867Y-68759556D02*
X275111867Y-68759556D01*
X275111867Y-68759556D02*
X275254724Y-68664318D01*
X275254724Y-68664318D02*
X275349962Y-68569080D01*
X275349962Y-68569080D02*
X275397581Y-68473842D01*
X275445200Y-69902413D02*
X276111867Y-69902413D01*
X275064248Y-69664318D02*
X275778533Y-69426223D01*
X275778533Y-69426223D02*
X275778533Y-70045270D01*
D11*
%TO.C,D10*%
X271894448Y-104476547D02*
X271894448Y-108486547D01*
X271894448Y-104476547D02*
X273894448Y-104476547D01*
X273894448Y-104476547D02*
X273894448Y-108486547D01*
%TO.C,D44*%
X62841850Y-85447597D02*
X62841850Y-89457597D01*
X62841850Y-85447597D02*
X64841850Y-85447597D01*
X64841850Y-85447597D02*
X64841850Y-89457597D01*
%TO.C,D16*%
X290944848Y-104476547D02*
X290944848Y-108486547D01*
X290944848Y-104476547D02*
X292944848Y-104476547D01*
X292944848Y-104476547D02*
X292944848Y-108486547D01*
%TO.C,D22*%
X309995248Y-104476547D02*
X309995248Y-108486547D01*
X309995248Y-104476547D02*
X311995248Y-104476547D01*
X311995248Y-104476547D02*
X311995248Y-108486547D01*
%TO.C,D39*%
X367146448Y-104476547D02*
X367146448Y-108486547D01*
X367146448Y-104476547D02*
X369146448Y-104476547D01*
X369146448Y-104476547D02*
X369146448Y-108486547D01*
%TO.C,D38*%
X362383848Y-85426147D02*
X362383848Y-89436147D01*
X362383848Y-85426147D02*
X364383848Y-85426147D01*
X364383848Y-85426147D02*
X364383848Y-89436147D01*
%TO.C,D25*%
X314757848Y-47325347D02*
X314757848Y-51335347D01*
X314757848Y-47325347D02*
X316757848Y-47325347D01*
X316757848Y-47325347D02*
X316757848Y-51335347D01*
%TO.C,D5*%
X250462748Y-123526947D02*
X250462748Y-127536947D01*
X250462748Y-123526947D02*
X252462748Y-123526947D01*
X252462748Y-123526947D02*
X252462748Y-127536947D01*
%TO.C,C2*%
X160999002Y-32299447D02*
X160476498Y-32299447D01*
X160999002Y-33769447D02*
X160476498Y-33769447D01*
%TO.C,D56*%
X100942650Y-85447597D02*
X100942650Y-89457597D01*
X100942650Y-85447597D02*
X102942650Y-85447597D01*
X102942650Y-85447597D02*
X102942650Y-89457597D01*
%TO.C,D46*%
X58100000Y-123590000D02*
X58100000Y-127600000D01*
X58100000Y-123590000D02*
X60100000Y-123590000D01*
X60100000Y-123590000D02*
X60100000Y-127600000D01*
%TO.C,D32*%
X333808248Y-66375747D02*
X333808248Y-70385747D01*
X333808248Y-66375747D02*
X335808248Y-66375747D01*
X335808248Y-66375747D02*
X335808248Y-70385747D01*
%TO.C,D49*%
X91417450Y-66397197D02*
X91417450Y-70407197D01*
X91417450Y-66397197D02*
X93417450Y-66397197D01*
X93417450Y-66397197D02*
X93417450Y-70407197D01*
%TO.C,D79*%
X205577775Y-66397197D02*
X205577775Y-70407197D01*
X205577775Y-66397197D02*
X207577775Y-66397197D01*
X207577775Y-66397197D02*
X207577775Y-70407197D01*
%TO.C,D71*%
X148426575Y-142598797D02*
X148426575Y-146608797D01*
X148426575Y-142598797D02*
X150426575Y-142598797D01*
X150426575Y-142598797D02*
X150426575Y-146608797D01*
%TO.C,D9*%
X267131848Y-85426147D02*
X267131848Y-89436147D01*
X267131848Y-85426147D02*
X269131848Y-85426147D01*
X269131848Y-85426147D02*
X269131848Y-89436147D01*
%TO.C,D6*%
X240937548Y-142577347D02*
X240937548Y-146587347D01*
X240937548Y-142577347D02*
X242937548Y-142577347D01*
X242937548Y-142577347D02*
X242937548Y-146587347D01*
%TO.C,D78*%
X186527375Y-47346797D02*
X186527375Y-51356797D01*
X186527375Y-47346797D02*
X188527375Y-47346797D01*
X188527375Y-47346797D02*
X188527375Y-51356797D01*
%TO.C,D55*%
X110467850Y-66397197D02*
X110467850Y-70407197D01*
X110467850Y-66397197D02*
X112467850Y-66397197D01*
X112467850Y-66397197D02*
X112467850Y-70407197D01*
%TO.C,D59*%
X110467850Y-142598797D02*
X110467850Y-146608797D01*
X110467850Y-142598797D02*
X112467850Y-142598797D01*
X112467850Y-142598797D02*
X112467850Y-146608797D01*
%TO.C,D8*%
X257606648Y-66375747D02*
X257606648Y-70385747D01*
X257606648Y-66375747D02*
X259606648Y-66375747D01*
X259606648Y-66375747D02*
X259606648Y-70385747D01*
%TO.C,D42*%
X72367050Y-47346797D02*
X72367050Y-51356797D01*
X72367050Y-47346797D02*
X74367050Y-47346797D01*
X74367050Y-47346797D02*
X74367050Y-51356797D01*
%TO.C,D68*%
X138901375Y-85447597D02*
X138901375Y-89457597D01*
X138901375Y-85447597D02*
X140901375Y-85447597D01*
X140901375Y-85447597D02*
X140901375Y-89457597D01*
%TO.C,D47*%
X51816425Y-142454692D02*
X51816425Y-146464692D01*
X51816425Y-142454692D02*
X53816425Y-142454692D01*
X53816425Y-142454692D02*
X53816425Y-146464692D01*
%TO.C,D18*%
X288563548Y-142577347D02*
X288563548Y-146587347D01*
X288563548Y-142577347D02*
X290563548Y-142577347D01*
X290563548Y-142577347D02*
X290563548Y-146587347D01*
%TO.C,D37*%
X352858648Y-66375747D02*
X352858648Y-70385747D01*
X352858648Y-66375747D02*
X354858648Y-66375747D01*
X354858648Y-66375747D02*
X354858648Y-70385747D01*
%TO.C,D36*%
X352858648Y-47325347D02*
X352858648Y-51335347D01*
X352858648Y-47325347D02*
X354858648Y-47325347D01*
X354858648Y-47325347D02*
X354858648Y-51335347D01*
%TO.C,D17*%
X300470048Y-123526947D02*
X300470048Y-127536947D01*
X300470048Y-123526947D02*
X302470048Y-123526947D01*
X302470048Y-123526947D02*
X302470048Y-127536947D01*
%TO.C,D4*%
X245700148Y-104476547D02*
X245700148Y-108486547D01*
X245700148Y-104476547D02*
X247700148Y-104476547D01*
X247700148Y-104476547D02*
X247700148Y-108486547D01*
%TO.C,D53*%
X81892250Y-142598797D02*
X81892250Y-146608797D01*
X81892250Y-142598797D02*
X83892250Y-142598797D01*
X83892250Y-142598797D02*
X83892250Y-146608797D01*
%TO.C,D64*%
X115088375Y-123548397D02*
X115088375Y-127558397D01*
X115088375Y-123548397D02*
X117088375Y-123548397D01*
X117088375Y-123548397D02*
X117088375Y-127558397D01*
%TO.C,D61*%
X129376175Y-66397197D02*
X129376175Y-70407197D01*
X129376175Y-66397197D02*
X131376175Y-66397197D01*
X131376175Y-66397197D02*
X131376175Y-70407197D01*
%TO.C,D88*%
X205577775Y-142734772D02*
X205577775Y-146744772D01*
X205577775Y-142734772D02*
X207577775Y-142734772D01*
X207577775Y-142734772D02*
X207577775Y-146744772D01*
%TO.C,D40*%
X371909048Y-47325347D02*
X371909048Y-51335347D01*
X371909048Y-47325347D02*
X373909048Y-47325347D01*
X373909048Y-47325347D02*
X373909048Y-51335347D01*
%TO.C,D60*%
X129518250Y-47346797D02*
X129518250Y-51356797D01*
X129518250Y-47346797D02*
X131518250Y-47346797D01*
X131518250Y-47346797D02*
X131518250Y-51356797D01*
%TO.C,D72*%
X167476975Y-47346797D02*
X167476975Y-51356797D01*
X167476975Y-47346797D02*
X169476975Y-47346797D01*
X169476975Y-47346797D02*
X169476975Y-51356797D01*
%TO.C,D27*%
X324283048Y-85426147D02*
X324283048Y-89436147D01*
X324283048Y-85426147D02*
X326283048Y-85426147D01*
X326283048Y-85426147D02*
X326283048Y-89436147D01*
%TO.C,D19*%
X295707448Y-47325347D02*
X295707448Y-51335347D01*
X295707448Y-47325347D02*
X297707448Y-47325347D01*
X297707448Y-47325347D02*
X297707448Y-51335347D01*
%TO.C,D45*%
X67604450Y-104362022D02*
X67604450Y-108372022D01*
X67604450Y-104362022D02*
X69604450Y-104362022D01*
X69604450Y-104362022D02*
X69604450Y-108372022D01*
%TO.C,D57*%
X105705250Y-104497997D02*
X105705250Y-108507997D01*
X105705250Y-104497997D02*
X107705250Y-104497997D01*
X107705250Y-104497997D02*
X107705250Y-108507997D01*
%TO.C,D12*%
X264750548Y-142577347D02*
X264750548Y-146587347D01*
X264750548Y-142577347D02*
X266750548Y-142577347D01*
X266750548Y-142577347D02*
X266750548Y-146587347D01*
%TO.C,D50*%
X81892250Y-85447597D02*
X81892250Y-89457597D01*
X81892250Y-85447597D02*
X83892250Y-85447597D01*
X83892250Y-85447597D02*
X83892250Y-89457597D01*
%TO.C,D58*%
X96180050Y-123548397D02*
X96180050Y-127558397D01*
X96180050Y-123548397D02*
X98180050Y-123548397D01*
X98180050Y-123548397D02*
X98180050Y-127558397D01*
%TO.C,D41*%
X371909048Y-66375747D02*
X371909048Y-70385747D01*
X371909048Y-66375747D02*
X373909048Y-66375747D01*
X373909048Y-66375747D02*
X373909048Y-70385747D01*
%TO.C,D2*%
X238556248Y-66375747D02*
X238556248Y-70385747D01*
X238556248Y-66375747D02*
X240556248Y-66375747D01*
X240556248Y-66375747D02*
X240556248Y-70385747D01*
%TO.C,D65*%
X129376175Y-142598797D02*
X129376175Y-146608797D01*
X129376175Y-142598797D02*
X131376175Y-142598797D01*
X131376175Y-142598797D02*
X131376175Y-146608797D01*
%TO.C,D67*%
X148426575Y-66397197D02*
X148426575Y-70407197D01*
X148426575Y-66397197D02*
X150426575Y-66397197D01*
X150426575Y-66397197D02*
X150426575Y-70407197D01*
%TO.C,D3*%
X243318848Y-85426147D02*
X243318848Y-89436147D01*
X243318848Y-85426147D02*
X245318848Y-85426147D01*
X245318848Y-85426147D02*
X245318848Y-89436147D01*
%TO.C,D48*%
X91417450Y-47346797D02*
X91417450Y-51356797D01*
X91417450Y-47346797D02*
X93417450Y-47346797D01*
X93417450Y-47346797D02*
X93417450Y-51356797D01*
%TO.C,D83*%
X186527375Y-142598797D02*
X186527375Y-146608797D01*
X186527375Y-142598797D02*
X188527375Y-142598797D01*
X188527375Y-142598797D02*
X188527375Y-146608797D01*
%TO.C,D24*%
X321901748Y-142577347D02*
X321901748Y-146587347D01*
X321901748Y-142577347D02*
X323901748Y-142577347D01*
X323901748Y-142577347D02*
X323901748Y-146587347D01*
%TO.C,C1*%
X326734950Y-32281247D02*
X326212446Y-32281247D01*
X326734950Y-33751247D02*
X326212446Y-33751247D01*
%TO.C,D51*%
X86654850Y-104497997D02*
X86654850Y-108507997D01*
X86654850Y-104497997D02*
X88654850Y-104497997D01*
X88654850Y-104497997D02*
X88654850Y-108507997D01*
%TO.C,D74*%
X157951775Y-85447597D02*
X157951775Y-89457597D01*
X157951775Y-85447597D02*
X159951775Y-85447597D01*
X159951775Y-85447597D02*
X159951775Y-89457597D01*
%TO.C,D26*%
X314757848Y-66375747D02*
X314757848Y-70385747D01*
X314757848Y-66375747D02*
X316757848Y-66375747D01*
X316757848Y-66375747D02*
X316757848Y-70385747D01*
%TO.C,D81*%
X205577775Y-104497997D02*
X205577775Y-108507997D01*
X205577775Y-104497997D02*
X207577775Y-104497997D01*
X207577775Y-104497997D02*
X207577775Y-108507997D01*
%TO.C,D13*%
X276657048Y-47325347D02*
X276657048Y-51335347D01*
X276657048Y-47325347D02*
X278657048Y-47325347D01*
X278657048Y-47325347D02*
X278657048Y-51335347D01*
%TO.C,D69*%
X143663975Y-104497997D02*
X143663975Y-108507997D01*
X143663975Y-104497997D02*
X145663975Y-104497997D01*
X145663975Y-104497997D02*
X145663975Y-108507997D01*
%TO.C,D77*%
X167476975Y-142598797D02*
X167476975Y-146608797D01*
X167476975Y-142598797D02*
X169476975Y-142598797D01*
X169476975Y-142598797D02*
X169476975Y-146608797D01*
%TO.C,D23*%
X319520448Y-123662922D02*
X319520448Y-127672922D01*
X319520448Y-123662922D02*
X321520448Y-123662922D01*
X321520448Y-123662922D02*
X321520448Y-127672922D01*
%TO.C,D52*%
X77129650Y-123548397D02*
X77129650Y-127558397D01*
X77129650Y-123548397D02*
X79129650Y-123548397D01*
X79129650Y-123548397D02*
X79129650Y-127558397D01*
%TO.C,D15*%
X286182248Y-85426147D02*
X286182248Y-89436147D01*
X286182248Y-85426147D02*
X288182248Y-85426147D01*
X288182248Y-85426147D02*
X288182248Y-89436147D01*
%TO.C,D43*%
X72367050Y-66397197D02*
X72367050Y-70407197D01*
X72367050Y-66397197D02*
X74367050Y-66397197D01*
X74367050Y-66397197D02*
X74367050Y-70407197D01*
%TO.C,D75*%
X174620875Y-104497997D02*
X174620875Y-108507997D01*
X174620875Y-104497997D02*
X176620875Y-104497997D01*
X176620875Y-104497997D02*
X176620875Y-108507997D01*
%TO.C,D86*%
X205577775Y-85447597D02*
X205577775Y-89457597D01*
X205577775Y-85447597D02*
X207577775Y-85447597D01*
X207577775Y-85447597D02*
X207577775Y-89457597D01*
%TO.C,D66*%
X148426575Y-47346797D02*
X148426575Y-51356797D01*
X148426575Y-47346797D02*
X150426575Y-47346797D01*
X150426575Y-47346797D02*
X150426575Y-51356797D01*
%TO.C,D33*%
X343333448Y-85426147D02*
X343333448Y-89436147D01*
X343333448Y-85426147D02*
X345333448Y-85426147D01*
X345333448Y-85426147D02*
X345333448Y-89436147D01*
%TO.C,D1*%
X238556248Y-47325347D02*
X238556248Y-51335347D01*
X238556248Y-47325347D02*
X240556248Y-47325347D01*
X240556248Y-47325347D02*
X240556248Y-51335347D01*
%TO.C,D7*%
X257606648Y-47325347D02*
X257606648Y-51335347D01*
X257606648Y-47325347D02*
X259606648Y-47325347D01*
X259606648Y-47325347D02*
X259606648Y-51335347D01*
%TO.C,D84*%
X205577775Y-47346797D02*
X205577775Y-51356797D01*
X205577775Y-47346797D02*
X207577775Y-47346797D01*
X207577775Y-47346797D02*
X207577775Y-51356797D01*
%TO.C,D63*%
X124613575Y-104497997D02*
X124613575Y-108507997D01*
X124613575Y-104497997D02*
X126613575Y-104497997D01*
X126613575Y-104497997D02*
X126613575Y-108507997D01*
%TO.C,D31*%
X333808248Y-47325347D02*
X333808248Y-51335347D01*
X333808248Y-47325347D02*
X335808248Y-47325347D01*
X335808248Y-47325347D02*
X335808248Y-51335347D01*
%TO.C,D30*%
X352858648Y-142577347D02*
X352858648Y-146587347D01*
X352858648Y-142577347D02*
X354858648Y-142577347D01*
X354858648Y-142577347D02*
X354858648Y-146587347D01*
%TO.C,D11*%
X281419648Y-123526947D02*
X281419648Y-127536947D01*
X281419648Y-123526947D02*
X283419648Y-123526947D01*
X283419648Y-123526947D02*
X283419648Y-127536947D01*
%TO.C,D29*%
X338570848Y-123526947D02*
X338570848Y-127536947D01*
X338570848Y-123526947D02*
X340570848Y-123526947D01*
X340570848Y-123526947D02*
X340570848Y-127536947D01*
%TO.C,D87*%
X205577775Y-123548397D02*
X205577775Y-127558397D01*
X205577775Y-123548397D02*
X207577775Y-123548397D01*
X207577775Y-123548397D02*
X207577775Y-127558397D01*
%TO.C,D70*%
X134138775Y-123548397D02*
X134138775Y-127558397D01*
X134138775Y-123548397D02*
X136138775Y-123548397D01*
X136138775Y-123548397D02*
X136138775Y-127558397D01*
%TO.C,D20*%
X295707448Y-66375747D02*
X295707448Y-70385747D01*
X295707448Y-66375747D02*
X297707448Y-66375747D01*
X297707448Y-66375747D02*
X297707448Y-70385747D01*
%TO.C,D73*%
X177002175Y-66397197D02*
X177002175Y-70407197D01*
X177002175Y-66397197D02*
X179002175Y-66397197D01*
X179002175Y-66397197D02*
X179002175Y-70407197D01*
%TO.C,D21*%
X305232648Y-85426147D02*
X305232648Y-89436147D01*
X305232648Y-85426147D02*
X307232648Y-85426147D01*
X307232648Y-85426147D02*
X307232648Y-89436147D01*
%TO.C,D82*%
X186527375Y-123548397D02*
X186527375Y-127558397D01*
X186527375Y-123548397D02*
X188527375Y-123548397D01*
X188527375Y-123548397D02*
X188527375Y-127558397D01*
%TO.C,D34*%
X348096048Y-104476547D02*
X348096048Y-108486547D01*
X348096048Y-104476547D02*
X350096048Y-104476547D01*
X350096048Y-104476547D02*
X350096048Y-108486547D01*
%TO.C,D28*%
X329045648Y-104476547D02*
X329045648Y-108486547D01*
X329045648Y-104476547D02*
X331045648Y-104476547D01*
X331045648Y-104476547D02*
X331045648Y-108486547D01*
%TO.C,D76*%
X160333075Y-123548397D02*
X160333075Y-127558397D01*
X160333075Y-123548397D02*
X162333075Y-123548397D01*
X162333075Y-123548397D02*
X162333075Y-127558397D01*
%TO.C,D80*%
X181764775Y-85447597D02*
X181764775Y-89457597D01*
X181764775Y-85447597D02*
X183764775Y-85447597D01*
X183764775Y-85447597D02*
X183764775Y-89457597D01*
%TO.C,D62*%
X119850975Y-85447597D02*
X119850975Y-89457597D01*
X119850975Y-85447597D02*
X121850975Y-85447597D01*
X121850975Y-85447597D02*
X121850975Y-89457597D01*
%TO.C,D54*%
X110467850Y-47346797D02*
X110467850Y-51356797D01*
X110467850Y-47346797D02*
X112467850Y-47346797D01*
X112467850Y-47346797D02*
X112467850Y-51356797D01*
%TO.C,D35*%
X357621248Y-123526947D02*
X357621248Y-127536947D01*
X357621248Y-123526947D02*
X359621248Y-123526947D01*
X359621248Y-123526947D02*
X359621248Y-127536947D01*
%TO.C,D14*%
X276657048Y-66375747D02*
X276657048Y-70385747D01*
X276657048Y-66375747D02*
X278657048Y-66375747D01*
X278657048Y-66375747D02*
X278657048Y-70385747D01*
%TD*%
M02*
